<?xml version="1.0" encoding="UTF-8" standalone="no"?>
<!DOCTYPE svg PUBLIC "-//W3C//DTD SVG 1.1//EN"
 "http://www.w3.org/Graphics/SVG/1.1/DTD/svg11.dtd">
<!-- Generated by graphviz version 10.0.1 (20240210.2158)
 -->
<!-- Title: structs Pages: 1 -->
<svg width="450pt" height="2472pt"
 viewBox="0.00 0.00 450.00 2472.00" xmlns="http://www.w3.org/2000/svg" xmlns:xlink="http://www.w3.org/1999/xlink">
<g id="graph0" class="graph" transform="scale(1 1) rotate(0) translate(4 2468)">
<title>structs</title>
<polygon fill="white" stroke="none" points="-4,4 -4,-2468 446,-2468 446,4 -4,4"/>
<!-- _sqlx_migrations -->
<g id="node1" class="node">
<title>_sqlx_migrations</title>
<polygon fill="none" stroke="black" points="71.5,-138 71.5,-160 181.5,-160 181.5,-138 71.5,-138"/>
<text text-anchor="start" x="76.62" y="-144.7" font-family="Times,serif" font-weight="bold" font-size="14.00">_sqlx_migrations</text>
<polygon fill="none" stroke="black" points="71.5,-114 71.5,-138 91.5,-138 91.5,-114 71.5,-114"/>
<text text-anchor="start" x="74.38" y="-121.7" font-family="Times,serif" font-size="14.00">🔑</text>
<polygon fill="none" stroke="black" points="91.5,-114 91.5,-138 181.5,-138 181.5,-114 91.5,-114"/>
<text text-anchor="start" x="116.62" y="-120.95" font-family="Times,serif" font-size="14.00">version</text>
<polygon fill="none" stroke="black" points="71.5,-92 71.5,-114 91.5,-114 91.5,-92 71.5,-92"/>
<text text-anchor="start" x="79.62" y="-97.7" font-family="Times,serif" font-size="14.00"> </text>
<polygon fill="none" stroke="black" points="91.5,-92 91.5,-114 181.5,-114 181.5,-92 91.5,-92"/>
<text text-anchor="start" x="106.5" y="-97.7" font-family="Times,serif" font-size="14.00">description</text>
<polygon fill="none" stroke="black" points="71.5,-70 71.5,-92 91.5,-92 91.5,-70 71.5,-70"/>
<text text-anchor="start" x="79.62" y="-75.7" font-family="Times,serif" font-size="14.00"> </text>
<polygon fill="none" stroke="black" points="91.5,-70 91.5,-92 181.5,-92 181.5,-70 91.5,-70"/>
<text text-anchor="start" x="103.5" y="-75.7" font-family="Times,serif" font-size="14.00">installed_on</text>
<polygon fill="none" stroke="black" points="71.5,-48 71.5,-70 91.5,-70 91.5,-48 71.5,-48"/>
<text text-anchor="start" x="79.62" y="-53.7" font-family="Times,serif" font-size="14.00"> </text>
<polygon fill="none" stroke="black" points="91.5,-48 91.5,-70 181.5,-70 181.5,-48 91.5,-48"/>
<text text-anchor="start" x="116.25" y="-53.7" font-family="Times,serif" font-size="14.00">success</text>
<polygon fill="none" stroke="black" points="71.5,-26 71.5,-48 91.5,-48 91.5,-26 71.5,-26"/>
<text text-anchor="start" x="79.62" y="-31.7" font-family="Times,serif" font-size="14.00"> </text>
<polygon fill="none" stroke="black" points="91.5,-26 91.5,-48 181.5,-48 181.5,-26 91.5,-26"/>
<text text-anchor="start" x="109.12" y="-31.7" font-family="Times,serif" font-size="14.00">checksum</text>
<polygon fill="none" stroke="black" points="71.5,-4 71.5,-26 91.5,-26 91.5,-4 71.5,-4"/>
<text text-anchor="start" x="79.62" y="-9.7" font-family="Times,serif" font-size="14.00"> </text>
<polygon fill="none" stroke="black" points="91.5,-4 91.5,-26 181.5,-26 181.5,-4 91.5,-4"/>
<text text-anchor="start" x="94.5" y="-9.7" font-family="Times,serif" font-size="14.00">execution_time</text>
</g>
<!-- email_setting -->
<g id="node2" class="node">
<title>email_setting</title>
<polygon fill="none" stroke="black" points="70.5,-364 70.5,-386 182.5,-386 182.5,-364 70.5,-364"/>
<text text-anchor="start" x="87.88" y="-370.7" font-family="Times,serif" font-weight="bold" font-size="14.00">email_setting</text>
<polygon fill="none" stroke="black" points="70.5,-340 70.5,-364 90.5,-364 90.5,-340 70.5,-340"/>
<text text-anchor="start" x="73.38" y="-347.7" font-family="Times,serif" font-size="14.00">🔑</text>
<polygon fill="none" stroke="black" points="90.5,-340 90.5,-364 182.5,-364 182.5,-340 90.5,-340"/>
<text text-anchor="start" x="131.25" y="-346.95" font-family="Times,serif" font-size="14.00">id</text>
<polygon fill="none" stroke="black" points="70.5,-318 70.5,-340 90.5,-340 90.5,-318 70.5,-318"/>
<text text-anchor="start" x="78.62" y="-323.7" font-family="Times,serif" font-size="14.00"> </text>
<polygon fill="none" stroke="black" points="90.5,-318 90.5,-340 182.5,-340 182.5,-318 90.5,-318"/>
<text text-anchor="start" x="93.38" y="-323.7" font-family="Times,serif" font-size="14.00">smtp_username</text>
<polygon fill="none" stroke="black" points="70.5,-296 70.5,-318 90.5,-318 90.5,-296 70.5,-296"/>
<text text-anchor="start" x="78.62" y="-301.7" font-family="Times,serif" font-size="14.00"> </text>
<polygon fill="none" stroke="black" points="90.5,-296 90.5,-318 182.5,-318 182.5,-296 90.5,-296"/>
<text text-anchor="start" x="94.12" y="-301.7" font-family="Times,serif" font-size="14.00">smtp_password</text>
<polygon fill="none" stroke="black" points="70.5,-274 70.5,-296 90.5,-296 90.5,-274 70.5,-274"/>
<text text-anchor="start" x="78.62" y="-279.7" font-family="Times,serif" font-size="14.00"> </text>
<polygon fill="none" stroke="black" points="90.5,-274 90.5,-296 182.5,-296 182.5,-274 90.5,-274"/>
<text text-anchor="start" x="103.12" y="-279.7" font-family="Times,serif" font-size="14.00">smtp_server</text>
<polygon fill="none" stroke="black" points="70.5,-252 70.5,-274 90.5,-274 90.5,-252 70.5,-252"/>
<text text-anchor="start" x="78.62" y="-257.7" font-family="Times,serif" font-size="14.00"> </text>
<polygon fill="none" stroke="black" points="90.5,-252 90.5,-274 182.5,-274 182.5,-252 90.5,-252"/>
<text text-anchor="start" x="99.38" y="-257.7" font-family="Times,serif" font-size="14.00">from_address</text>
<polygon fill="none" stroke="black" points="70.5,-230 70.5,-252 90.5,-252 90.5,-230 70.5,-230"/>
<text text-anchor="start" x="78.62" y="-235.7" font-family="Times,serif" font-size="14.00"> </text>
<polygon fill="none" stroke="black" points="90.5,-230 90.5,-252 182.5,-252 182.5,-230 90.5,-230"/>
<text text-anchor="start" x="107.62" y="-235.7" font-family="Times,serif" font-size="14.00">encryption</text>
<polygon fill="none" stroke="black" points="70.5,-208 70.5,-230 90.5,-230 90.5,-208 70.5,-208"/>
<text text-anchor="start" x="78.62" y="-213.7" font-family="Times,serif" font-size="14.00"> </text>
<polygon fill="none" stroke="black" points="90.5,-208 90.5,-230 182.5,-230 182.5,-208 90.5,-208"/>
<text text-anchor="start" x="100.88" y="-213.7" font-family="Times,serif" font-size="14.00">auth_method</text>
<polygon fill="none" stroke="black" points="70.5,-186 70.5,-208 90.5,-208 90.5,-186 70.5,-186"/>
<text text-anchor="start" x="78.62" y="-191.7" font-family="Times,serif" font-size="14.00"> </text>
<polygon fill="none" stroke="black" points="90.5,-186 90.5,-208 182.5,-208 182.5,-186 90.5,-186"/>
<text text-anchor="start" x="108.75" y="-191.7" font-family="Times,serif" font-size="14.00">smtp_port</text>
</g>
<!-- integrations -->
<g id="node3" class="node">
<title>integrations</title>
<polygon fill="none" stroke="black" points="315,-567 315,-589 416,-589 416,-567 315,-567"/>
<text text-anchor="start" x="331" y="-573.7" font-family="Times,serif" font-weight="bold" font-size="14.00">integrations</text>
<polygon fill="none" stroke="black" points="315,-543 315,-567 335,-567 335,-543 315,-543"/>
<text text-anchor="start" x="317.88" y="-550.7" font-family="Times,serif" font-size="14.00">🔑</text>
<polygon fill="none" stroke="black" points="335,-543 335,-567 416,-567 416,-543 335,-543"/>
<text text-anchor="start" x="370.25" y="-549.95" font-family="Times,serif" font-size="14.00">id</text>
<polygon fill="none" stroke="black" points="315,-521 315,-543 335,-543 335,-521 315,-521"/>
<text text-anchor="start" x="323.12" y="-526.7" font-family="Times,serif" font-size="14.00"> </text>
<polygon fill="none" stroke="black" points="335,-521 335,-543 416,-543 416,-521 335,-521"/>
<text text-anchor="start" x="363.5" y="-526.7" font-family="Times,serif" font-size="14.00">kind</text>
<polygon fill="none" stroke="black" points="315,-499 315,-521 335,-521 335,-499 315,-499"/>
<text text-anchor="start" x="323.12" y="-504.7" font-family="Times,serif" font-size="14.00"> </text>
<polygon fill="none" stroke="black" points="335,-499 335,-521 416,-521 416,-499 335,-499"/>
<text text-anchor="start" x="337.62" y="-504.7" font-family="Times,serif" font-size="14.00">display_name</text>
<polygon fill="none" stroke="black" points="315,-477 315,-499 335,-499 335,-477 315,-477"/>
<text text-anchor="start" x="323.12" y="-482.7" font-family="Times,serif" font-size="14.00"> </text>
<polygon fill="none" stroke="black" points="335,-477 335,-499 416,-499 416,-477 335,-477"/>
<text text-anchor="start" x="339.88" y="-482.7" font-family="Times,serif" font-size="14.00">access_token</text>
<polygon fill="none" stroke="black" points="315,-455 315,-477 335,-477 335,-455 315,-455"/>
<text text-anchor="start" x="323.12" y="-460.7" font-family="Times,serif" font-size="14.00"> </text>
<polygon fill="none" stroke="black" points="335,-455 335,-477 416,-477 416,-455 335,-455"/>
<text text-anchor="start" x="351.88" y="-460.7" font-family="Times,serif" font-size="14.00">api_base</text>
<polygon fill="none" stroke="black" points="315,-433 315,-455 335,-455 335,-433 315,-433"/>
<text text-anchor="start" x="323.12" y="-438.7" font-family="Times,serif" font-size="14.00"> </text>
<polygon fill="none" stroke="black" points="335,-433 335,-455 416,-455 416,-433 335,-433"/>
<text text-anchor="start" x="362.38" y="-438.7" font-family="Times,serif" font-size="14.00">error</text>
<polygon fill="none" stroke="black" points="315,-411 315,-433 335,-433 335,-411 315,-411"/>
<text text-anchor="start" x="323.12" y="-416.7" font-family="Times,serif" font-size="14.00"> </text>
<polygon fill="none" stroke="black" points="335,-411 335,-433 416,-433 416,-411 335,-411"/>
<text text-anchor="start" x="347.75" y="-416.7" font-family="Times,serif" font-size="14.00">created_at</text>
<polygon fill="none" stroke="black" points="315,-389 315,-411 335,-411 335,-389 315,-389"/>
<text text-anchor="start" x="323.12" y="-394.7" font-family="Times,serif" font-size="14.00"> </text>
<polygon fill="none" stroke="black" points="335,-389 335,-411 416,-411 416,-389 335,-389"/>
<text text-anchor="start" x="345.88" y="-394.7" font-family="Times,serif" font-size="14.00">updated_at</text>
<polygon fill="none" stroke="black" points="315,-367 315,-389 335,-389 335,-367 315,-367"/>
<text text-anchor="start" x="323.12" y="-372.7" font-family="Times,serif" font-size="14.00"> </text>
<polygon fill="none" stroke="black" points="335,-367 335,-389 416,-389 416,-367 335,-367"/>
<text text-anchor="start" x="356.75" y="-372.7" font-family="Times,serif" font-size="14.00">synced</text>
</g>
<!-- invitations -->
<g id="node4" class="node">
<title>invitations</title>
<polygon fill="none" stroke="black" points="86,-728 86,-750 167,-750 167,-728 86,-728"/>
<text text-anchor="start" x="96.12" y="-734.7" font-family="Times,serif" font-weight="bold" font-size="14.00">invitations</text>
<polygon fill="none" stroke="black" points="86,-704 86,-728 106,-728 106,-704 86,-704"/>
<text text-anchor="start" x="88.88" y="-711.7" font-family="Times,serif" font-size="14.00">🔑</text>
<polygon fill="none" stroke="black" points="106,-704 106,-728 167,-728 167,-704 106,-704"/>
<text text-anchor="start" x="131.25" y="-710.95" font-family="Times,serif" font-size="14.00">id</text>
<polygon fill="none" stroke="black" points="86,-682 86,-704 106,-704 106,-682 86,-682"/>
<text text-anchor="start" x="94.12" y="-687.7" font-family="Times,serif" font-size="14.00"> </text>
<polygon fill="none" stroke="black" points="106,-682 106,-704 167,-704 167,-682 106,-682"/>
<text text-anchor="start" x="121.12" y="-687.7" font-family="Times,serif" font-size="14.00">email</text>
<polygon fill="none" stroke="black" points="86,-660 86,-682 106,-682 106,-660 86,-660"/>
<text text-anchor="start" x="94.12" y="-665.7" font-family="Times,serif" font-size="14.00"> </text>
<polygon fill="none" stroke="black" points="106,-660 106,-682 167,-682 167,-660 106,-660"/>
<text text-anchor="start" x="123.75" y="-665.7" font-family="Times,serif" font-size="14.00">code</text>
<polygon fill="none" stroke="black" points="86,-638 86,-660 106,-660 106,-638 86,-638"/>
<text text-anchor="start" x="94.12" y="-643.7" font-family="Times,serif" font-size="14.00"> </text>
<polygon fill="none" stroke="black" points="106,-638 106,-660 167,-660 167,-638 106,-638"/>
<text text-anchor="start" x="108.75" y="-643.7" font-family="Times,serif" font-size="14.00">created_at</text>
</g>
<!-- job_runs -->
<g id="node5" class="node">
<title>job_runs</title>
<polygon fill="none" stroke="black" points="84,-1020 84,-1042 169,-1042 169,-1020 84,-1020"/>
<text text-anchor="start" x="100.62" y="-1026.7" font-family="Times,serif" font-weight="bold" font-size="14.00">job_runs</text>
<polygon fill="none" stroke="black" points="84,-996 84,-1020 104,-1020 104,-996 84,-996"/>
<text text-anchor="start" x="86.88" y="-1003.7" font-family="Times,serif" font-size="14.00">🔑</text>
<polygon fill="none" stroke="black" points="104,-996 104,-1020 169,-1020 169,-996 104,-996"/>
<text text-anchor="start" x="131.25" y="-1002.95" font-family="Times,serif" font-size="14.00">id</text>
<polygon fill="none" stroke="black" points="84,-974 84,-996 104,-996 104,-974 84,-974"/>
<text text-anchor="start" x="92.12" y="-979.7" font-family="Times,serif" font-size="14.00"> </text>
<polygon fill="none" stroke="black" points="104,-974 104,-996 169,-996 169,-974 104,-974"/>
<text text-anchor="start" x="127.88" y="-979.7" font-family="Times,serif" font-size="14.00">job</text>
<polygon fill="none" stroke="black" points="84,-952 84,-974 104,-974 104,-952 84,-952"/>
<text text-anchor="start" x="92.12" y="-957.7" font-family="Times,serif" font-size="14.00"> </text>
<polygon fill="none" stroke="black" points="104,-952 104,-974 169,-974 169,-952 104,-952"/>
<text text-anchor="start" x="117" y="-957.7" font-family="Times,serif" font-size="14.00">start_ts</text>
<polygon fill="none" stroke="black" points="84,-930 84,-952 104,-952 104,-930 84,-930"/>
<text text-anchor="start" x="92.12" y="-935.7" font-family="Times,serif" font-size="14.00"> </text>
<polygon fill="none" stroke="black" points="104,-930 104,-952 169,-952 169,-930 104,-930"/>
<text text-anchor="start" x="118.88" y="-935.7" font-family="Times,serif" font-size="14.00">end_ts</text>
<polygon fill="none" stroke="black" points="84,-908 84,-930 104,-930 104,-908 84,-908"/>
<text text-anchor="start" x="92.12" y="-913.7" font-family="Times,serif" font-size="14.00"> </text>
<polygon fill="none" stroke="black" points="104,-908 104,-930 169,-930 169,-908 104,-908"/>
<text text-anchor="start" x="110.25" y="-913.7" font-family="Times,serif" font-size="14.00">exit_code</text>
<polygon fill="none" stroke="black" points="84,-886 84,-908 104,-908 104,-886 84,-886"/>
<text text-anchor="start" x="92.12" y="-891.7" font-family="Times,serif" font-size="14.00"> </text>
<polygon fill="none" stroke="black" points="104,-886 104,-908 169,-908 169,-886 104,-886"/>
<text text-anchor="start" x="120" y="-891.7" font-family="Times,serif" font-size="14.00">stdout</text>
<polygon fill="none" stroke="black" points="84,-864 84,-886 104,-886 104,-864 84,-864"/>
<text text-anchor="start" x="92.12" y="-869.7" font-family="Times,serif" font-size="14.00"> </text>
<polygon fill="none" stroke="black" points="104,-864 104,-886 169,-886 169,-864 104,-864"/>
<text text-anchor="start" x="121.12" y="-869.7" font-family="Times,serif" font-size="14.00">stderr</text>
<polygon fill="none" stroke="black" points="84,-842 84,-864 104,-864 104,-842 84,-842"/>
<text text-anchor="start" x="92.12" y="-847.7" font-family="Times,serif" font-size="14.00"> </text>
<polygon fill="none" stroke="black" points="104,-842 104,-864 169,-864 169,-842 104,-842"/>
<text text-anchor="start" x="108.75" y="-847.7" font-family="Times,serif" font-size="14.00">created_at</text>
<polygon fill="none" stroke="black" points="84,-820 84,-842 104,-842 104,-820 84,-820"/>
<text text-anchor="start" x="92.12" y="-825.7" font-family="Times,serif" font-size="14.00"> </text>
<polygon fill="none" stroke="black" points="104,-820 104,-842 169,-842 169,-820 104,-820"/>
<text text-anchor="start" x="106.88" y="-825.7" font-family="Times,serif" font-size="14.00">updated_at</text>
<polygon fill="none" stroke="black" points="84,-798 84,-820 104,-820 104,-798 84,-798"/>
<text text-anchor="start" x="92.12" y="-803.7" font-family="Times,serif" font-size="14.00"> </text>
<polygon fill="none" stroke="black" points="104,-798 104,-820 169,-820 169,-798 104,-798"/>
<text text-anchor="start" x="109.12" y="-803.7" font-family="Times,serif" font-size="14.00">command</text>
<polygon fill="none" stroke="black" points="84,-776 84,-798 104,-798 104,-776 84,-776"/>
<text text-anchor="start" x="92.12" y="-781.7" font-family="Times,serif" font-size="14.00"> </text>
<polygon fill="none" stroke="black" points="104,-776 104,-798 169,-798 169,-776 104,-776"/>
<text text-anchor="start" x="110.25" y="-781.7" font-family="Times,serif" font-size="14.00">started_at</text>
</g>
<!-- oauth_credential -->
<g id="node6" class="node">
<title>oauth_credential</title>
<polygon fill="none" stroke="black" points="75,-1202 75,-1224 178,-1224 178,-1202 75,-1202"/>
<text text-anchor="start" x="77.75" y="-1208.7" font-family="Times,serif" font-weight="bold" font-size="14.00">oauth_credential</text>
<polygon fill="none" stroke="black" points="75,-1178 75,-1202 99,-1202 99,-1178 75,-1178"/>
<text text-anchor="start" x="79.88" y="-1185.7" font-family="Times,serif" font-size="14.00">🔑</text>
<polygon fill="none" stroke="black" points="99,-1178 99,-1202 178,-1202 178,-1178 99,-1178"/>
<text text-anchor="start" x="133.25" y="-1184.95" font-family="Times,serif" font-size="14.00">id</text>
<polygon fill="none" stroke="black" points="75,-1156 75,-1178 99,-1178 99,-1156 75,-1156"/>
<text text-anchor="start" x="85.12" y="-1161.7" font-family="Times,serif" font-size="14.00"> </text>
<polygon fill="none" stroke="black" points="99,-1156 99,-1178 178,-1178 178,-1156 99,-1156"/>
<text text-anchor="start" x="115.62" y="-1161.7" font-family="Times,serif" font-size="14.00">provider</text>
<polygon fill="none" stroke="black" points="75,-1134 75,-1156 99,-1156 99,-1134 75,-1134"/>
<text text-anchor="start" x="85.12" y="-1139.7" font-family="Times,serif" font-size="14.00"> </text>
<polygon fill="none" stroke="black" points="99,-1134 99,-1156 178,-1156 178,-1134 99,-1134"/>
<text text-anchor="start" x="114.88" y="-1139.7" font-family="Times,serif" font-size="14.00">client_id</text>
<polygon fill="none" stroke="black" points="75,-1112 75,-1134 99,-1134 99,-1112 75,-1112"/>
<text text-anchor="start" x="85.12" y="-1117.7" font-family="Times,serif" font-size="14.00"> </text>
<polygon fill="none" stroke="black" points="99,-1112 99,-1134 178,-1134 178,-1112 99,-1112"/>
<text text-anchor="start" x="104.38" y="-1117.7" font-family="Times,serif" font-size="14.00">client_secret</text>
<polygon fill="none" stroke="black" points="75,-1090 75,-1112 99,-1112 99,-1090 75,-1090"/>
<text text-anchor="start" x="85.12" y="-1095.7" font-family="Times,serif" font-size="14.00"> </text>
<polygon fill="none" stroke="black" points="99,-1090 99,-1112 178,-1112 178,-1090 99,-1090"/>
<text text-anchor="start" x="110.75" y="-1095.7" font-family="Times,serif" font-size="14.00">created_at</text>
<polygon fill="none" stroke="black" points="75,-1068 75,-1090 99,-1090 99,-1068 75,-1068"/>
<text text-anchor="start" x="85.12" y="-1073.7" font-family="Times,serif" font-size="14.00"> </text>
<polygon fill="none" stroke="black" points="99,-1068 99,-1090 178,-1090 178,-1068 99,-1068"/>
<text text-anchor="start" x="108.88" y="-1073.7" font-family="Times,serif" font-size="14.00">updated_at</text>
</g>
<!-- password_reset -->
<g id="node7" class="node">
<title>password_reset</title>
<polygon fill="none" stroke="black" points="79,-1908 79,-1930 174,-1930 174,-1908 79,-1908"/>
<text text-anchor="start" x="81.88" y="-1914.7" font-family="Times,serif" font-weight="bold" font-size="14.00">password_reset</text>
<polygon fill="none" stroke="black" points="79,-1884 79,-1908 106,-1908 106,-1884 79,-1884"/>
<text text-anchor="start" x="85.38" y="-1891.7" font-family="Times,serif" font-size="14.00">🔑</text>
<polygon fill="none" stroke="black" points="106,-1884 106,-1908 174,-1908 174,-1884 106,-1884"/>
<text text-anchor="start" x="134.75" y="-1890.95" font-family="Times,serif" font-size="14.00">id</text>
<polygon fill="none" stroke="black" points="79,-1862 79,-1884 106,-1884 106,-1862 79,-1862"/>
<text text-anchor="start" x="90.62" y="-1867.7" font-family="Times,serif" font-size="14.00"> </text>
<polygon fill="none" stroke="black" points="106,-1862 106,-1884 174,-1884 174,-1862 106,-1862"/>
<text text-anchor="start" x="120.12" y="-1867.7" font-family="Times,serif" font-size="14.00">user_id</text>
<polygon fill="none" stroke="black" points="79,-1840 79,-1862 106,-1862 106,-1840 79,-1840"/>
<text text-anchor="start" x="90.62" y="-1845.7" font-family="Times,serif" font-size="14.00"> </text>
<polygon fill="none" stroke="black" points="106,-1840 106,-1862 174,-1862 174,-1840 106,-1840"/>
<text text-anchor="start" x="127.25" y="-1845.7" font-family="Times,serif" font-size="14.00">code</text>
<polygon fill="none" stroke="black" points="79,-1818 79,-1840 106,-1840 106,-1818 79,-1818"/>
<text text-anchor="start" x="90.62" y="-1823.7" font-family="Times,serif" font-size="14.00"> </text>
<polygon fill="none" stroke="black" points="106,-1818 106,-1840 174,-1840 174,-1818 106,-1818"/>
<text text-anchor="start" x="112.25" y="-1823.7" font-family="Times,serif" font-size="14.00">created_at</text>
</g>
<!-- users -->
<g id="node15" class="node">
<title>users</title>
<polygon fill="none" stroke="black" points="297,-1667 297,-1689 434,-1689 434,-1667 297,-1667"/>
<text text-anchor="start" x="350.5" y="-1673.7" font-family="Times,serif" font-weight="bold" font-size="14.00">users</text>
<polygon fill="none" stroke="black" points="297,-1643 297,-1667 317,-1667 317,-1643 297,-1643"/>
<text text-anchor="start" x="299.88" y="-1650.7" font-family="Times,serif" font-size="14.00">🔑</text>
<polygon fill="none" stroke="black" points="317,-1643 317,-1667 434,-1667 434,-1643 317,-1643"/>
<text text-anchor="start" x="370.25" y="-1649.95" font-family="Times,serif" font-size="14.00">id</text>
<polygon fill="none" stroke="black" points="297,-1621 297,-1643 317,-1643 317,-1621 297,-1621"/>
<text text-anchor="start" x="305.12" y="-1626.7" font-family="Times,serif" font-size="14.00"> </text>
<polygon fill="none" stroke="black" points="317,-1621 317,-1643 434,-1643 434,-1621 317,-1621"/>
<text text-anchor="start" x="360.12" y="-1626.7" font-family="Times,serif" font-size="14.00">email</text>
<polygon fill="none" stroke="black" points="297,-1599 297,-1621 317,-1621 317,-1599 297,-1599"/>
<text text-anchor="start" x="305.12" y="-1604.7" font-family="Times,serif" font-size="14.00"> </text>
<polygon fill="none" stroke="black" points="317,-1599 317,-1621 434,-1621 434,-1599 317,-1599"/>
<text text-anchor="start" x="350.38" y="-1604.7" font-family="Times,serif" font-size="14.00">is_admin</text>
<polygon fill="none" stroke="black" points="297,-1577 297,-1599 317,-1599 317,-1577 297,-1577"/>
<text text-anchor="start" x="305.12" y="-1582.7" font-family="Times,serif" font-size="14.00"> </text>
<polygon fill="none" stroke="black" points="317,-1577 317,-1599 434,-1599 434,-1577 317,-1577"/>
<text text-anchor="start" x="347.75" y="-1582.7" font-family="Times,serif" font-size="14.00">created_at</text>
<polygon fill="none" stroke="black" points="297,-1555 297,-1577 317,-1577 317,-1555 297,-1555"/>
<text text-anchor="start" x="305.12" y="-1560.7" font-family="Times,serif" font-size="14.00"> </text>
<polygon fill="none" stroke="black" points="317,-1555 317,-1577 434,-1577 434,-1555 317,-1555"/>
<text text-anchor="start" x="345.88" y="-1560.7" font-family="Times,serif" font-size="14.00">updated_at</text>
<polygon fill="none" stroke="black" points="297,-1533 297,-1555 317,-1555 317,-1533 297,-1533"/>
<text text-anchor="start" x="305.12" y="-1538.7" font-family="Times,serif" font-size="14.00"> </text>
<polygon fill="none" stroke="black" points="317,-1533 317,-1555 434,-1555 434,-1533 317,-1533"/>
<text text-anchor="start" x="345.5" y="-1538.7" font-family="Times,serif" font-size="14.00">auth_token</text>
<polygon fill="none" stroke="black" points="297,-1511 297,-1533 317,-1533 317,-1511 297,-1511"/>
<text text-anchor="start" x="305.12" y="-1516.7" font-family="Times,serif" font-size="14.00"> </text>
<polygon fill="none" stroke="black" points="317,-1511 317,-1533 434,-1533 434,-1511 317,-1511"/>
<text text-anchor="start" x="359.38" y="-1516.7" font-family="Times,serif" font-size="14.00">active</text>
<polygon fill="none" stroke="black" points="297,-1489 297,-1511 317,-1511 317,-1489 297,-1489"/>
<text text-anchor="start" x="305.12" y="-1494.7" font-family="Times,serif" font-size="14.00"> </text>
<polygon fill="none" stroke="black" points="317,-1489 317,-1511 434,-1511 434,-1489 317,-1489"/>
<text text-anchor="start" x="320" y="-1494.7" font-family="Times,serif" font-size="14.00">password_encrypted</text>
<polygon fill="none" stroke="black" points="297,-1467 297,-1489 317,-1489 317,-1467 297,-1467"/>
<text text-anchor="start" x="305.12" y="-1472.7" font-family="Times,serif" font-size="14.00"> </text>
<polygon fill="none" stroke="black" points="317,-1467 317,-1489 434,-1489 434,-1467 317,-1467"/>
<text text-anchor="start" x="359" y="-1472.7" font-family="Times,serif" font-size="14.00">avatar</text>
<polygon fill="none" stroke="black" points="297,-1445 297,-1467 317,-1467 317,-1445 297,-1445"/>
<text text-anchor="start" x="305.12" y="-1450.7" font-family="Times,serif" font-size="14.00"> </text>
<polygon fill="none" stroke="black" points="317,-1445 317,-1467 434,-1467 434,-1445 317,-1445"/>
<text text-anchor="start" x="360.5" y="-1450.7" font-family="Times,serif" font-size="14.00">name</text>
</g>
<!-- password_reset&#45;&gt;users -->
<g id="edge4" class="edge">
<title>password_reset:e&#45;&gt;users:w</title>
<path fill="none" stroke="black" d="M175.5,-1873C221.32,-1873 228.53,-1843.74 253,-1805 287.76,-1749.96 233.56,-1665.95 284.33,-1655.98"/>
<polygon fill="black" stroke="black" points="284.34,-1659.49 293.99,-1655.13 283.73,-1652.52 284.34,-1659.49"/>
</g>
<!-- provided_repositories -->
<g id="node8" class="node">
<title>provided_repositories</title>
<polygon fill="none" stroke="black" points="60.5,-590 60.5,-612 192.5,-612 192.5,-590 60.5,-590"/>
<text text-anchor="start" x="63.5" y="-596.7" font-family="Times,serif" font-weight="bold" font-size="14.00">provided_repositories</text>
<polygon fill="none" stroke="black" points="60.5,-566 60.5,-590 95.5,-590 95.5,-566 60.5,-566"/>
<text text-anchor="start" x="70.88" y="-573.7" font-family="Times,serif" font-size="14.00">🔑</text>
<polygon fill="none" stroke="black" points="95.5,-566 95.5,-590 192.5,-590 192.5,-566 95.5,-566"/>
<text text-anchor="start" x="138.75" y="-572.95" font-family="Times,serif" font-size="14.00">id</text>
<polygon fill="none" stroke="black" points="60.5,-544 60.5,-566 95.5,-566 95.5,-544 60.5,-544"/>
<text text-anchor="start" x="76.12" y="-549.7" font-family="Times,serif" font-size="14.00"> </text>
<polygon fill="none" stroke="black" points="95.5,-544 95.5,-566 192.5,-566 192.5,-544 95.5,-544"/>
<text text-anchor="start" x="106.12" y="-549.7" font-family="Times,serif" font-size="14.00">integration_id</text>
<polygon fill="none" stroke="black" points="60.5,-522 60.5,-544 95.5,-544 95.5,-522 60.5,-522"/>
<text text-anchor="start" x="76.12" y="-527.7" font-family="Times,serif" font-size="14.00"> </text>
<polygon fill="none" stroke="black" points="95.5,-522 95.5,-544 192.5,-544 192.5,-522 95.5,-522"/>
<text text-anchor="start" x="116.62" y="-527.7" font-family="Times,serif" font-size="14.00">vendor_id</text>
<polygon fill="none" stroke="black" points="60.5,-500 60.5,-522 95.5,-522 95.5,-500 60.5,-500"/>
<text text-anchor="start" x="76.12" y="-505.7" font-family="Times,serif" font-size="14.00"> </text>
<polygon fill="none" stroke="black" points="95.5,-500 95.5,-522 192.5,-522 192.5,-500 95.5,-500"/>
<text text-anchor="start" x="129" y="-505.7" font-family="Times,serif" font-size="14.00">name</text>
<polygon fill="none" stroke="black" points="60.5,-478 60.5,-500 95.5,-500 95.5,-478 60.5,-478"/>
<text text-anchor="start" x="76.12" y="-483.7" font-family="Times,serif" font-size="14.00"> </text>
<polygon fill="none" stroke="black" points="95.5,-478 95.5,-500 192.5,-500 192.5,-478 95.5,-478"/>
<text text-anchor="start" x="126" y="-483.7" font-family="Times,serif" font-size="14.00">git_url</text>
<polygon fill="none" stroke="black" points="60.5,-456 60.5,-478 95.5,-478 95.5,-456 60.5,-456"/>
<text text-anchor="start" x="76.12" y="-461.7" font-family="Times,serif" font-size="14.00"> </text>
<polygon fill="none" stroke="black" points="95.5,-456 95.5,-478 192.5,-478 192.5,-456 95.5,-456"/>
<text text-anchor="start" x="127.88" y="-461.7" font-family="Times,serif" font-size="14.00">active</text>
<polygon fill="none" stroke="black" points="60.5,-434 60.5,-456 95.5,-456 95.5,-434 60.5,-434"/>
<text text-anchor="start" x="76.12" y="-439.7" font-family="Times,serif" font-size="14.00"> </text>
<polygon fill="none" stroke="black" points="95.5,-434 95.5,-456 192.5,-456 192.5,-434 95.5,-434"/>
<text text-anchor="start" x="116.25" y="-439.7" font-family="Times,serif" font-size="14.00">created_at</text>
<polygon fill="none" stroke="black" points="60.5,-412 60.5,-434 95.5,-434 95.5,-412 60.5,-412"/>
<text text-anchor="start" x="76.12" y="-417.7" font-family="Times,serif" font-size="14.00"> </text>
<polygon fill="none" stroke="black" points="95.5,-412 95.5,-434 192.5,-434 192.5,-412 95.5,-412"/>
<text text-anchor="start" x="114.38" y="-417.7" font-family="Times,serif" font-size="14.00">updated_at</text>
</g>
<!-- provided_repositories&#45;&gt;integrations -->
<g id="edge5" class="edge">
<title>provided_repositories:e&#45;&gt;integrations:w</title>
<path fill="none" stroke="black" d="M193.5,-555C242.88,-555 257.97,-555 302.25,-555"/>
<polygon fill="black" stroke="black" points="301.99,-558.5 311.99,-555 301.99,-551.5 301.99,-558.5"/>
</g>
<!-- refresh_tokens -->
<g id="node9" class="node">
<title>refresh_tokens</title>
<polygon fill="none" stroke="black" points="81,-1770 81,-1792 172,-1792 172,-1770 81,-1770"/>
<text text-anchor="start" x="83.75" y="-1776.7" font-family="Times,serif" font-weight="bold" font-size="14.00">refresh_tokens</text>
<polygon fill="none" stroke="black" points="81,-1746 81,-1770 106,-1770 106,-1746 81,-1746"/>
<text text-anchor="start" x="86.38" y="-1753.7" font-family="Times,serif" font-size="14.00">🔑</text>
<polygon fill="none" stroke="black" points="106,-1746 106,-1770 172,-1770 172,-1746 106,-1746"/>
<text text-anchor="start" x="133.75" y="-1752.95" font-family="Times,serif" font-size="14.00">id</text>
<polygon fill="none" stroke="black" points="81,-1724 81,-1746 106,-1746 106,-1724 81,-1724"/>
<text text-anchor="start" x="91.62" y="-1729.7" font-family="Times,serif" font-size="14.00"> </text>
<polygon fill="none" stroke="black" points="106,-1724 106,-1746 172,-1746 172,-1724 106,-1724"/>
<text text-anchor="start" x="119.12" y="-1729.7" font-family="Times,serif" font-size="14.00">user_id</text>
<polygon fill="none" stroke="black" points="81,-1702 81,-1724 106,-1724 106,-1702 81,-1702"/>
<text text-anchor="start" x="91.62" y="-1707.7" font-family="Times,serif" font-size="14.00"> </text>
<polygon fill="none" stroke="black" points="106,-1702 106,-1724 172,-1724 172,-1702 106,-1702"/>
<text text-anchor="start" x="124" y="-1707.7" font-family="Times,serif" font-size="14.00">token</text>
<polygon fill="none" stroke="black" points="81,-1680 81,-1702 106,-1702 106,-1680 81,-1680"/>
<text text-anchor="start" x="91.62" y="-1685.7" font-family="Times,serif" font-size="14.00"> </text>
<polygon fill="none" stroke="black" points="106,-1680 106,-1702 172,-1702 172,-1680 106,-1680"/>
<text text-anchor="start" x="111.25" y="-1685.7" font-family="Times,serif" font-size="14.00">expires_at</text>
<polygon fill="none" stroke="black" points="81,-1658 81,-1680 106,-1680 106,-1658 81,-1658"/>
<text text-anchor="start" x="91.62" y="-1663.7" font-family="Times,serif" font-size="14.00"> </text>
<polygon fill="none" stroke="black" points="106,-1658 106,-1680 172,-1680 172,-1658 106,-1658"/>
<text text-anchor="start" x="111.25" y="-1663.7" font-family="Times,serif" font-size="14.00">created_at</text>
</g>
<!-- refresh_tokens&#45;&gt;users -->
<g id="edge1" class="edge">
<title>refresh_tokens:e&#45;&gt;users:w</title>
<path fill="none" stroke="black" d="M173.5,-1735C234.29,-1735 231.34,-1664.69 284.16,-1655.9"/>
<polygon fill="black" stroke="black" points="284.3,-1659.4 293.99,-1655.12 283.75,-1652.42 284.3,-1659.4"/>
</g>
<!-- registration_token -->
<g id="node10" class="node">
<title>registration_token</title>
<polygon fill="none" stroke="black" points="70.5,-2046 70.5,-2068 182.5,-2068 182.5,-2046 70.5,-2046"/>
<text text-anchor="start" x="73.25" y="-2052.7" font-family="Times,serif" font-weight="bold" font-size="14.00">registration_token</text>
<polygon fill="none" stroke="black" points="70.5,-2022 70.5,-2046 103.5,-2046 103.5,-2022 70.5,-2022"/>
<text text-anchor="start" x="79.88" y="-2029.7" font-family="Times,serif" font-size="14.00">🔑</text>
<polygon fill="none" stroke="black" points="103.5,-2022 103.5,-2046 182.5,-2046 182.5,-2022 103.5,-2022"/>
<text text-anchor="start" x="137.75" y="-2028.95" font-family="Times,serif" font-size="14.00">id</text>
<polygon fill="none" stroke="black" points="70.5,-2000 70.5,-2022 103.5,-2022 103.5,-2000 70.5,-2000"/>
<text text-anchor="start" x="85.12" y="-2005.7" font-family="Times,serif" font-size="14.00"> </text>
<polygon fill="none" stroke="black" points="103.5,-2000 103.5,-2022 182.5,-2022 182.5,-2000 103.5,-2000"/>
<text text-anchor="start" x="128" y="-2005.7" font-family="Times,serif" font-size="14.00">token</text>
<polygon fill="none" stroke="black" points="70.5,-1978 70.5,-2000 103.5,-2000 103.5,-1978 70.5,-1978"/>
<text text-anchor="start" x="85.12" y="-1983.7" font-family="Times,serif" font-size="14.00"> </text>
<polygon fill="none" stroke="black" points="103.5,-1978 103.5,-2000 182.5,-2000 182.5,-1978 103.5,-1978"/>
<text text-anchor="start" x="115.25" y="-1983.7" font-family="Times,serif" font-size="14.00">created_at</text>
<polygon fill="none" stroke="black" points="70.5,-1956 70.5,-1978 103.5,-1978 103.5,-1956 70.5,-1956"/>
<text text-anchor="start" x="85.12" y="-1961.7" font-family="Times,serif" font-size="14.00"> </text>
<polygon fill="none" stroke="black" points="103.5,-1956 103.5,-1978 182.5,-1978 182.5,-1956 103.5,-1956"/>
<text text-anchor="start" x="113.38" y="-1961.7" font-family="Times,serif" font-size="14.00">updated_at</text>
</g>
<!-- repositories -->
<g id="node11" class="node">
<title>repositories</title>
<polygon fill="none" stroke="black" points="90,-2162 90,-2184 163,-2184 163,-2162 90,-2162"/>
<text text-anchor="start" x="92.75" y="-2168.7" font-family="Times,serif" font-weight="bold" font-size="14.00">repositories</text>
<polygon fill="none" stroke="black" points="90,-2138 90,-2162 115,-2162 115,-2138 90,-2138"/>
<text text-anchor="start" x="95.38" y="-2145.7" font-family="Times,serif" font-size="14.00">🔑</text>
<polygon fill="none" stroke="black" points="115,-2138 115,-2162 163,-2162 163,-2138 115,-2138"/>
<text text-anchor="start" x="133.75" y="-2144.95" font-family="Times,serif" font-size="14.00">id</text>
<polygon fill="none" stroke="black" points="90,-2116 90,-2138 115,-2138 115,-2116 90,-2116"/>
<text text-anchor="start" x="100.62" y="-2121.7" font-family="Times,serif" font-size="14.00"> </text>
<polygon fill="none" stroke="black" points="115,-2116 115,-2138 163,-2138 163,-2116 115,-2116"/>
<text text-anchor="start" x="124" y="-2121.7" font-family="Times,serif" font-size="14.00">name</text>
<polygon fill="none" stroke="black" points="90,-2094 90,-2116 115,-2116 115,-2094 90,-2094"/>
<text text-anchor="start" x="100.62" y="-2099.7" font-family="Times,serif" font-size="14.00"> </text>
<polygon fill="none" stroke="black" points="115,-2094 115,-2116 163,-2116 163,-2094 115,-2094"/>
<text text-anchor="start" x="121" y="-2099.7" font-family="Times,serif" font-size="14.00">git_url</text>
</g>
<!-- server_setting -->
<g id="node12" class="node">
<title>server_setting</title>
<polygon fill="none" stroke="black" points="8,-2322 8,-2344 245,-2344 245,-2322 8,-2322"/>
<text text-anchor="start" x="86" y="-2328.7" font-family="Times,serif" font-weight="bold" font-size="14.00">server_setting</text>
<polygon fill="none" stroke="black" points="8,-2298 8,-2322 28,-2322 28,-2298 8,-2298"/>
<text text-anchor="start" x="10.88" y="-2305.7" font-family="Times,serif" font-size="14.00">🔑</text>
<polygon fill="none" stroke="black" points="28,-2298 28,-2322 245,-2322 245,-2298 28,-2298"/>
<text text-anchor="start" x="131.25" y="-2304.95" font-family="Times,serif" font-size="14.00">id</text>
<polygon fill="none" stroke="black" points="8,-2276 8,-2298 28,-2298 28,-2276 8,-2276"/>
<text text-anchor="start" x="16.12" y="-2281.7" font-family="Times,serif" font-size="14.00"> </text>
<polygon fill="none" stroke="black" points="28,-2276 28,-2298 245,-2298 245,-2276 28,-2276"/>
<text text-anchor="start" x="31.12" y="-2281.7" font-family="Times,serif" font-size="14.00">security_allowed_register_domain_list</text>
<polygon fill="none" stroke="black" points="8,-2254 8,-2276 28,-2276 28,-2254 8,-2254"/>
<text text-anchor="start" x="16.12" y="-2259.7" font-family="Times,serif" font-size="14.00"> </text>
<polygon fill="none" stroke="black" points="28,-2254 28,-2276 245,-2276 245,-2254 28,-2254"/>
<text text-anchor="start" x="30.75" y="-2259.7" font-family="Times,serif" font-size="14.00">security_disable_client_side_telemetry</text>
<polygon fill="none" stroke="black" points="8,-2232 8,-2254 28,-2254 28,-2232 8,-2232"/>
<text text-anchor="start" x="16.12" y="-2237.7" font-family="Times,serif" font-size="14.00"> </text>
<polygon fill="none" stroke="black" points="28,-2232 28,-2254 245,-2254 245,-2232 28,-2232"/>
<text text-anchor="start" x="78.38" y="-2237.7" font-family="Times,serif" font-size="14.00">network_external_url</text>
<polygon fill="none" stroke="black" points="8,-2210 8,-2232 28,-2232 28,-2210 8,-2210"/>
<text text-anchor="start" x="16.12" y="-2215.7" font-family="Times,serif" font-size="14.00"> </text>
<polygon fill="none" stroke="black" points="28,-2210 28,-2232 245,-2232 245,-2210 28,-2210"/>
<text text-anchor="start" x="66.75" y="-2215.7" font-family="Times,serif" font-size="14.00">billing_enterprise_license</text>
</g>
<!-- user_completions -->
<g id="node13" class="node">
<title>user_completions</title>
<polygon fill="none" stroke="black" points="73,-1610 73,-1632 180,-1632 180,-1610 73,-1610"/>
<text text-anchor="start" x="75.88" y="-1616.7" font-family="Times,serif" font-weight="bold" font-size="14.00">user_completions</text>
<polygon fill="none" stroke="black" points="73,-1586 73,-1610 94,-1610 94,-1586 73,-1586"/>
<text text-anchor="start" x="76.38" y="-1593.7" font-family="Times,serif" font-size="14.00">🔑</text>
<polygon fill="none" stroke="black" points="94,-1586 94,-1610 180,-1610 180,-1586 94,-1586"/>
<text text-anchor="start" x="131.75" y="-1592.95" font-family="Times,serif" font-size="14.00">id</text>
<polygon fill="none" stroke="black" points="73,-1564 73,-1586 94,-1586 94,-1564 73,-1564"/>
<text text-anchor="start" x="81.62" y="-1569.7" font-family="Times,serif" font-size="14.00"> </text>
<polygon fill="none" stroke="black" points="94,-1564 94,-1586 180,-1586 180,-1564 94,-1564"/>
<text text-anchor="start" x="117.12" y="-1569.7" font-family="Times,serif" font-size="14.00">user_id</text>
<polygon fill="none" stroke="black" points="73,-1542 73,-1564 94,-1564 94,-1542 73,-1542"/>
<text text-anchor="start" x="81.62" y="-1547.7" font-family="Times,serif" font-size="14.00"> </text>
<polygon fill="none" stroke="black" points="94,-1542 94,-1564 180,-1564 180,-1542 94,-1542"/>
<text text-anchor="start" x="97.62" y="-1547.7" font-family="Times,serif" font-size="14.00">completion_id</text>
<polygon fill="none" stroke="black" points="73,-1520 73,-1542 94,-1542 94,-1520 73,-1520"/>
<text text-anchor="start" x="81.62" y="-1525.7" font-family="Times,serif" font-size="14.00"> </text>
<polygon fill="none" stroke="black" points="94,-1520 94,-1542 180,-1542 180,-1520 94,-1520"/>
<text text-anchor="start" x="112.62" y="-1525.7" font-family="Times,serif" font-size="14.00">language</text>
<polygon fill="none" stroke="black" points="73,-1498 73,-1520 94,-1520 94,-1498 73,-1498"/>
<text text-anchor="start" x="81.62" y="-1503.7" font-family="Times,serif" font-size="14.00"> </text>
<polygon fill="none" stroke="black" points="94,-1498 94,-1520 180,-1520 180,-1498 94,-1498"/>
<text text-anchor="start" x="121.25" y="-1503.7" font-family="Times,serif" font-size="14.00">views</text>
<polygon fill="none" stroke="black" points="73,-1476 73,-1498 94,-1498 94,-1476 73,-1476"/>
<text text-anchor="start" x="81.62" y="-1481.7" font-family="Times,serif" font-size="14.00"> </text>
<polygon fill="none" stroke="black" points="94,-1476 94,-1498 180,-1498 180,-1476 94,-1476"/>
<text text-anchor="start" x="119" y="-1481.7" font-family="Times,serif" font-size="14.00">selects</text>
<polygon fill="none" stroke="black" points="73,-1454 73,-1476 94,-1476 94,-1454 73,-1454"/>
<text text-anchor="start" x="81.62" y="-1459.7" font-family="Times,serif" font-size="14.00"> </text>
<polygon fill="none" stroke="black" points="94,-1454 94,-1476 180,-1476 180,-1454 94,-1454"/>
<text text-anchor="start" x="110.75" y="-1459.7" font-family="Times,serif" font-size="14.00">dismisses</text>
<polygon fill="none" stroke="black" points="73,-1432 73,-1454 94,-1454 94,-1432 73,-1432"/>
<text text-anchor="start" x="81.62" y="-1437.7" font-family="Times,serif" font-size="14.00"> </text>
<polygon fill="none" stroke="black" points="94,-1432 94,-1454 180,-1454 180,-1432 94,-1432"/>
<text text-anchor="start" x="109.25" y="-1437.7" font-family="Times,serif" font-size="14.00">created_at</text>
<polygon fill="none" stroke="black" points="73,-1410 73,-1432 94,-1432 94,-1410 73,-1410"/>
<text text-anchor="start" x="81.62" y="-1415.7" font-family="Times,serif" font-size="14.00"> </text>
<polygon fill="none" stroke="black" points="94,-1410 94,-1432 180,-1432 180,-1410 94,-1410"/>
<text text-anchor="start" x="107.38" y="-1415.7" font-family="Times,serif" font-size="14.00">updated_at</text>
</g>
<!-- user_completions&#45;&gt;users -->
<g id="edge3" class="edge">
<title>user_completions:e&#45;&gt;users:w</title>
<path fill="none" stroke="black" d="M181.5,-1575C239.29,-1575 234.59,-1644.73 284.08,-1653.99"/>
<polygon fill="black" stroke="black" points="283.72,-1657.47 293.99,-1654.87 284.34,-1650.5 283.72,-1657.47"/>
</g>
<!-- user_events -->
<g id="node14" class="node">
<title>user_events</title>
<polygon fill="none" stroke="black" points="86,-1362 86,-1384 167,-1384 167,-1362 86,-1362"/>
<text text-anchor="start" x="92.75" y="-1368.7" font-family="Times,serif" font-weight="bold" font-size="14.00">user_events</text>
<polygon fill="none" stroke="black" points="86,-1338 86,-1362 106,-1362 106,-1338 86,-1338"/>
<text text-anchor="start" x="88.88" y="-1345.7" font-family="Times,serif" font-size="14.00">🔑</text>
<polygon fill="none" stroke="black" points="106,-1338 106,-1362 167,-1362 167,-1338 106,-1338"/>
<text text-anchor="start" x="131.25" y="-1344.95" font-family="Times,serif" font-size="14.00">id</text>
<polygon fill="none" stroke="black" points="86,-1316 86,-1338 106,-1338 106,-1316 86,-1316"/>
<text text-anchor="start" x="94.12" y="-1321.7" font-family="Times,serif" font-size="14.00"> </text>
<polygon fill="none" stroke="black" points="106,-1316 106,-1338 167,-1338 167,-1316 106,-1316"/>
<text text-anchor="start" x="116.62" y="-1321.7" font-family="Times,serif" font-size="14.00">user_id</text>
<polygon fill="none" stroke="black" points="86,-1294 86,-1316 106,-1316 106,-1294 86,-1294"/>
<text text-anchor="start" x="94.12" y="-1299.7" font-family="Times,serif" font-size="14.00"> </text>
<polygon fill="none" stroke="black" points="106,-1294 106,-1316 167,-1316 167,-1294 106,-1294"/>
<text text-anchor="start" x="124.5" y="-1299.7" font-family="Times,serif" font-size="14.00">kind</text>
<polygon fill="none" stroke="black" points="86,-1272 86,-1294 106,-1294 106,-1272 86,-1272"/>
<text text-anchor="start" x="94.12" y="-1277.7" font-family="Times,serif" font-size="14.00"> </text>
<polygon fill="none" stroke="black" points="106,-1272 106,-1294 167,-1294 167,-1272 106,-1272"/>
<text text-anchor="start" x="108.75" y="-1277.7" font-family="Times,serif" font-size="14.00">created_at</text>
<polygon fill="none" stroke="black" points="86,-1250 86,-1272 106,-1272 106,-1250 86,-1250"/>
<text text-anchor="start" x="94.12" y="-1255.7" font-family="Times,serif" font-size="14.00"> </text>
<polygon fill="none" stroke="black" points="106,-1250 106,-1272 167,-1272 167,-1250 106,-1250"/>
<text text-anchor="start" x="115.12" y="-1255.7" font-family="Times,serif" font-size="14.00">payload</text>
</g>
<!-- user_events&#45;&gt;users -->
<g id="edge2" class="edge">
<title>user_events:e&#45;&gt;users:w</title>
<path fill="none" stroke="black" d="M168.5,-1327C217.27,-1327 228.72,-1354.71 253,-1397 279.84,-1443.75 243.45,-1625.82 284.44,-1651.89"/>
<polygon fill="black" stroke="black" points="283.47,-1655.25 294.04,-1654.59 285.37,-1648.51 283.47,-1655.25"/>
</g>
<!-- web_crawler_urls -->
<g id="node16" class="node">
<title>web_crawler_urls</title>
<polygon fill="none" stroke="black" points="72,-2438 72,-2460 181,-2460 181,-2438 72,-2438"/>
<text text-anchor="start" x="74.75" y="-2444.7" font-family="Times,serif" font-weight="bold" font-size="14.00">web_crawler_urls</text>
<polygon fill="none" stroke="black" points="72,-2414 72,-2438 106,-2438 106,-2414 72,-2414"/>
<text text-anchor="start" x="81.88" y="-2421.7" font-family="Times,serif" font-size="14.00">🔑</text>
<polygon fill="none" stroke="black" points="106,-2414 106,-2438 181,-2438 181,-2414 106,-2414"/>
<text text-anchor="start" x="138.25" y="-2420.95" font-family="Times,serif" font-size="14.00">id</text>
<polygon fill="none" stroke="black" points="72,-2392 72,-2414 106,-2414 106,-2392 72,-2392"/>
<text text-anchor="start" x="87.12" y="-2397.7" font-family="Times,serif" font-size="14.00"> </text>
<polygon fill="none" stroke="black" points="106,-2392 106,-2414 181,-2414 181,-2392 106,-2392"/>
<text text-anchor="start" x="136" y="-2397.7" font-family="Times,serif" font-size="14.00">url</text>
<polygon fill="none" stroke="black" points="72,-2370 72,-2392 106,-2392 106,-2370 72,-2370"/>
<text text-anchor="start" x="87.12" y="-2375.7" font-family="Times,serif" font-size="14.00"> </text>
<polygon fill="none" stroke="black" points="106,-2370 106,-2392 181,-2392 181,-2370 106,-2370"/>
<text text-anchor="start" x="115.75" y="-2375.7" font-family="Times,serif" font-size="14.00">created_at</text>
</g>
</g>
</svg>
