<?xml version="1.0" encoding="UTF-8" standalone="no"?>
<!DOCTYPE svg PUBLIC "-//W3C//DTD SVG 1.1//EN"
 "http://www.w3.org/Graphics/SVG/1.1/DTD/svg11.dtd">
<!-- Generated by graphviz version 2.43.0 (0)
 -->
<!-- Title: structs Pages: 1 -->
<svg width="600pt" height="2180pt"
 viewBox="0.00 0.00 600.00 2179.50" xmlns="http://www.w3.org/2000/svg" xmlns:xlink="http://www.w3.org/1999/xlink">
<g id="graph0" class="graph" transform="scale(1 1) rotate(0) translate(4 2175.5)">
<title>structs</title>
<polygon fill="white" stroke="transparent" points="-4,4 -4,-2175.5 596,-2175.5 596,4 -4,4"/>
<!-- _sqlx_migrations -->
<g id="node1" class="node">
<title>_sqlx_migrations</title>
<polygon fill="none" stroke="black" points="91.5,-129.5 91.5,-150.5 230.5,-150.5 230.5,-129.5 91.5,-129.5"/>
<text text-anchor="start" x="95" y="-137.3" font-family="Times,serif" font-weight="bold" font-size="14.00">_sqlx_migrations</text>
<polygon fill="none" stroke="black" points="91.5,-108.5 91.5,-129.5 115.5,-129.5 115.5,-108.5 91.5,-108.5"/>
<text text-anchor="start" x="94.5" y="-115.3" font-family="Times,serif" font-size="14.00">🔑</text>
<polygon fill="none" stroke="black" points="115.5,-108.5 115.5,-129.5 230.5,-129.5 230.5,-108.5 115.5,-108.5"/>
<text text-anchor="start" x="146.5" y="-115.3" font-family="Times,serif" font-size="14.00">version</text>
<polygon fill="none" stroke="black" points="91.5,-87.5 91.5,-108.5 115.5,-108.5 115.5,-87.5 91.5,-87.5"/>
<text text-anchor="start" x="101" y="-94.3" font-family="Times,serif" font-size="14.00"> </text>
<polygon fill="none" stroke="black" points="115.5,-87.5 115.5,-108.5 230.5,-108.5 230.5,-87.5 115.5,-87.5"/>
<text text-anchor="start" x="132.5" y="-94.3" font-family="Times,serif" font-size="14.00">description</text>
<polygon fill="none" stroke="black" points="91.5,-66.5 91.5,-87.5 115.5,-87.5 115.5,-66.5 91.5,-66.5"/>
<text text-anchor="start" x="101" y="-73.3" font-family="Times,serif" font-size="14.00"> </text>
<polygon fill="none" stroke="black" points="115.5,-66.5 115.5,-87.5 230.5,-87.5 230.5,-66.5 115.5,-66.5"/>
<text text-anchor="start" x="130" y="-73.3" font-family="Times,serif" font-size="14.00">installed_on</text>
<polygon fill="none" stroke="black" points="91.5,-45.5 91.5,-66.5 115.5,-66.5 115.5,-45.5 91.5,-45.5"/>
<text text-anchor="start" x="101" y="-52.3" font-family="Times,serif" font-size="14.00"> </text>
<polygon fill="none" stroke="black" points="115.5,-45.5 115.5,-66.5 230.5,-66.5 230.5,-45.5 115.5,-45.5"/>
<text text-anchor="start" x="145.5" y="-52.3" font-family="Times,serif" font-size="14.00">success</text>
<polygon fill="none" stroke="black" points="91.5,-24.5 91.5,-45.5 115.5,-45.5 115.5,-24.5 91.5,-24.5"/>
<text text-anchor="start" x="101" y="-31.3" font-family="Times,serif" font-size="14.00"> </text>
<polygon fill="none" stroke="black" points="115.5,-24.5 115.5,-45.5 230.5,-45.5 230.5,-24.5 115.5,-24.5"/>
<text text-anchor="start" x="137.5" y="-31.3" font-family="Times,serif" font-size="14.00">checksum</text>
<polygon fill="none" stroke="black" points="91.5,-3.5 91.5,-24.5 115.5,-24.5 115.5,-3.5 91.5,-3.5"/>
<text text-anchor="start" x="101" y="-10.3" font-family="Times,serif" font-size="14.00"> </text>
<polygon fill="none" stroke="black" points="115.5,-3.5 115.5,-24.5 230.5,-24.5 230.5,-3.5 115.5,-3.5"/>
<text text-anchor="start" x="118.5" y="-10.3" font-family="Times,serif" font-size="14.00">execution_time</text>
</g>
<!-- email_setting -->
<g id="node2" class="node">
<title>email_setting</title>
<polygon fill="none" stroke="black" points="88.5,-344.5 88.5,-365.5 232.5,-365.5 232.5,-344.5 88.5,-344.5"/>
<text text-anchor="start" x="107" y="-352.3" font-family="Times,serif" font-weight="bold" font-size="14.00">email_setting</text>
<polygon fill="none" stroke="black" points="88.5,-323.5 88.5,-344.5 112.5,-344.5 112.5,-323.5 88.5,-323.5"/>
<text text-anchor="start" x="91.5" y="-330.3" font-family="Times,serif" font-size="14.00">🔑</text>
<polygon fill="none" stroke="black" points="112.5,-323.5 112.5,-344.5 232.5,-344.5 232.5,-323.5 112.5,-323.5"/>
<text text-anchor="start" x="165.5" y="-330.3" font-family="Times,serif" font-size="14.00">id</text>
<polygon fill="none" stroke="black" points="88.5,-302.5 88.5,-323.5 112.5,-323.5 112.5,-302.5 88.5,-302.5"/>
<text text-anchor="start" x="98" y="-309.3" font-family="Times,serif" font-size="14.00"> </text>
<polygon fill="none" stroke="black" points="112.5,-302.5 112.5,-323.5 232.5,-323.5 232.5,-302.5 112.5,-302.5"/>
<text text-anchor="start" x="115.5" y="-309.3" font-family="Times,serif" font-size="14.00">smtp_username</text>
<polygon fill="none" stroke="black" points="88.5,-281.5 88.5,-302.5 112.5,-302.5 112.5,-281.5 88.5,-281.5"/>
<text text-anchor="start" x="98" y="-288.3" font-family="Times,serif" font-size="14.00"> </text>
<polygon fill="none" stroke="black" points="112.5,-281.5 112.5,-302.5 232.5,-302.5 232.5,-281.5 112.5,-281.5"/>
<text text-anchor="start" x="116.5" y="-288.3" font-family="Times,serif" font-size="14.00">smtp_password</text>
<polygon fill="none" stroke="black" points="88.5,-260.5 88.5,-281.5 112.5,-281.5 112.5,-260.5 88.5,-260.5"/>
<text text-anchor="start" x="98" y="-267.3" font-family="Times,serif" font-size="14.00"> </text>
<polygon fill="none" stroke="black" points="112.5,-260.5 112.5,-281.5 232.5,-281.5 232.5,-260.5 112.5,-260.5"/>
<text text-anchor="start" x="128" y="-267.3" font-family="Times,serif" font-size="14.00">smtp_server</text>
<polygon fill="none" stroke="black" points="88.5,-239.5 88.5,-260.5 112.5,-260.5 112.5,-239.5 88.5,-239.5"/>
<text text-anchor="start" x="98" y="-246.3" font-family="Times,serif" font-size="14.00"> </text>
<polygon fill="none" stroke="black" points="112.5,-239.5 112.5,-260.5 232.5,-260.5 232.5,-239.5 112.5,-239.5"/>
<text text-anchor="start" x="124" y="-246.3" font-family="Times,serif" font-size="14.00">from_address</text>
<polygon fill="none" stroke="black" points="88.5,-218.5 88.5,-239.5 112.5,-239.5 112.5,-218.5 88.5,-218.5"/>
<text text-anchor="start" x="98" y="-225.3" font-family="Times,serif" font-size="14.00"> </text>
<polygon fill="none" stroke="black" points="112.5,-218.5 112.5,-239.5 232.5,-239.5 232.5,-218.5 112.5,-218.5"/>
<text text-anchor="start" x="134" y="-225.3" font-family="Times,serif" font-size="14.00">encryption</text>
<polygon fill="none" stroke="black" points="88.5,-197.5 88.5,-218.5 112.5,-218.5 112.5,-197.5 88.5,-197.5"/>
<text text-anchor="start" x="98" y="-204.3" font-family="Times,serif" font-size="14.00"> </text>
<polygon fill="none" stroke="black" points="112.5,-197.5 112.5,-218.5 232.5,-218.5 232.5,-197.5 112.5,-197.5"/>
<text text-anchor="start" x="125.5" y="-204.3" font-family="Times,serif" font-size="14.00">auth_method</text>
<polygon fill="none" stroke="black" points="88.5,-176.5 88.5,-197.5 112.5,-197.5 112.5,-176.5 88.5,-176.5"/>
<text text-anchor="start" x="98" y="-183.3" font-family="Times,serif" font-size="14.00"> </text>
<polygon fill="none" stroke="black" points="112.5,-176.5 112.5,-197.5 232.5,-197.5 232.5,-176.5 112.5,-176.5"/>
<text text-anchor="start" x="136" y="-183.3" font-family="Times,serif" font-size="14.00">smtp_port</text>
</g>
<!-- github_provided_repositories -->
<g id="node3" class="node">
<title>github_provided_repositories</title>
<polygon fill="none" stroke="black" points="38.5,-539.5 38.5,-560.5 283.5,-560.5 283.5,-539.5 38.5,-539.5"/>
<text text-anchor="start" x="46.5" y="-547.3" font-family="Times,serif" font-weight="bold" font-size="14.00">github_provided_repositories</text>
<polygon fill="none" stroke="black" points="38.5,-518.5 38.5,-539.5 62.5,-539.5 62.5,-518.5 38.5,-518.5"/>
<text text-anchor="start" x="41.5" y="-525.3" font-family="Times,serif" font-size="14.00">🔑</text>
<polygon fill="none" stroke="black" points="62.5,-518.5 62.5,-539.5 283.5,-539.5 283.5,-518.5 62.5,-518.5"/>
<text text-anchor="start" x="166" y="-525.3" font-family="Times,serif" font-size="14.00">id</text>
<polygon fill="none" stroke="black" points="38.5,-497.5 38.5,-518.5 62.5,-518.5 62.5,-497.5 38.5,-497.5"/>
<text text-anchor="start" x="48" y="-504.3" font-family="Times,serif" font-size="14.00"> </text>
<polygon fill="none" stroke="black" points="62.5,-497.5 62.5,-518.5 283.5,-518.5 283.5,-497.5 62.5,-497.5"/>
<text text-anchor="start" x="65.5" y="-504.3" font-family="Times,serif" font-size="14.00">github_repository_provider_id</text>
<polygon fill="none" stroke="black" points="38.5,-476.5 38.5,-497.5 62.5,-497.5 62.5,-476.5 38.5,-476.5"/>
<text text-anchor="start" x="48" y="-483.3" font-family="Times,serif" font-size="14.00"> </text>
<polygon fill="none" stroke="black" points="62.5,-476.5 62.5,-497.5 283.5,-497.5 283.5,-476.5 62.5,-476.5"/>
<text text-anchor="start" x="138" y="-483.3" font-family="Times,serif" font-size="14.00">vendor_id</text>
<polygon fill="none" stroke="black" points="38.5,-455.5 38.5,-476.5 62.5,-476.5 62.5,-455.5 38.5,-455.5"/>
<text text-anchor="start" x="48" y="-462.3" font-family="Times,serif" font-size="14.00"> </text>
<polygon fill="none" stroke="black" points="62.5,-455.5 62.5,-476.5 283.5,-476.5 283.5,-455.5 62.5,-455.5"/>
<text text-anchor="start" x="153" y="-462.3" font-family="Times,serif" font-size="14.00">name</text>
<polygon fill="none" stroke="black" points="38.5,-434.5 38.5,-455.5 62.5,-455.5 62.5,-434.5 38.5,-434.5"/>
<text text-anchor="start" x="48" y="-441.3" font-family="Times,serif" font-size="14.00"> </text>
<polygon fill="none" stroke="black" points="62.5,-434.5 62.5,-455.5 283.5,-455.5 283.5,-434.5 62.5,-434.5"/>
<text text-anchor="start" x="149.5" y="-441.3" font-family="Times,serif" font-size="14.00">git_url</text>
<polygon fill="none" stroke="black" points="38.5,-413.5 38.5,-434.5 62.5,-434.5 62.5,-413.5 38.5,-413.5"/>
<text text-anchor="start" x="48" y="-420.3" font-family="Times,serif" font-size="14.00"> </text>
<polygon fill="none" stroke="black" points="62.5,-413.5 62.5,-434.5 283.5,-434.5 283.5,-413.5 62.5,-413.5"/>
<text text-anchor="start" x="151.5" y="-420.3" font-family="Times,serif" font-size="14.00">active</text>
<polygon fill="none" stroke="black" points="38.5,-392.5 38.5,-413.5 62.5,-413.5 62.5,-392.5 38.5,-392.5"/>
<text text-anchor="start" x="48" y="-399.3" font-family="Times,serif" font-size="14.00"> </text>
<polygon fill="none" stroke="black" points="62.5,-392.5 62.5,-413.5 283.5,-413.5 283.5,-392.5 62.5,-392.5"/>
<text text-anchor="start" x="133" y="-399.3" font-family="Times,serif" font-size="14.00">updated_at</text>
</g>
<!-- github_repository_provider -->
<g id="node4" class="node">
<title>github_repository_provider</title>
<polygon fill="none" stroke="black" points="365.5,-518.5 365.5,-539.5 584.5,-539.5 584.5,-518.5 365.5,-518.5"/>
<text text-anchor="start" x="368.5" y="-526.3" font-family="Times,serif" font-weight="bold" font-size="14.00">github_repository_provider</text>
<polygon fill="none" stroke="black" points="365.5,-497.5 365.5,-518.5 433.5,-518.5 433.5,-497.5 365.5,-497.5"/>
<text text-anchor="start" x="390.5" y="-504.3" font-family="Times,serif" font-size="14.00">🔑</text>
<polygon fill="none" stroke="black" points="433.5,-497.5 433.5,-518.5 584.5,-518.5 584.5,-497.5 433.5,-497.5"/>
<text text-anchor="start" x="502" y="-504.3" font-family="Times,serif" font-size="14.00">id</text>
<polygon fill="none" stroke="black" points="365.5,-476.5 365.5,-497.5 433.5,-497.5 433.5,-476.5 365.5,-476.5"/>
<text text-anchor="start" x="397" y="-483.3" font-family="Times,serif" font-size="14.00"> </text>
<polygon fill="none" stroke="black" points="433.5,-476.5 433.5,-497.5 584.5,-497.5 584.5,-476.5 433.5,-476.5"/>
<text text-anchor="start" x="460.5" y="-483.3" font-family="Times,serif" font-size="14.00">display_name</text>
<polygon fill="none" stroke="black" points="365.5,-455.5 365.5,-476.5 433.5,-476.5 433.5,-455.5 365.5,-455.5"/>
<text text-anchor="start" x="397" y="-462.3" font-family="Times,serif" font-size="14.00"> </text>
<polygon fill="none" stroke="black" points="433.5,-455.5 433.5,-476.5 584.5,-476.5 584.5,-455.5 433.5,-455.5"/>
<text text-anchor="start" x="459" y="-462.3" font-family="Times,serif" font-size="14.00">application_id</text>
<polygon fill="none" stroke="black" points="365.5,-434.5 365.5,-455.5 433.5,-455.5 433.5,-434.5 365.5,-434.5"/>
<text text-anchor="start" x="397" y="-441.3" font-family="Times,serif" font-size="14.00"> </text>
<polygon fill="none" stroke="black" points="433.5,-434.5 433.5,-455.5 584.5,-455.5 584.5,-434.5 433.5,-434.5"/>
<text text-anchor="start" x="486.5" y="-441.3" font-family="Times,serif" font-size="14.00">secret</text>
<polygon fill="none" stroke="black" points="365.5,-413.5 365.5,-434.5 433.5,-434.5 433.5,-413.5 365.5,-413.5"/>
<text text-anchor="start" x="397" y="-420.3" font-family="Times,serif" font-size="14.00"> </text>
<polygon fill="none" stroke="black" points="433.5,-413.5 433.5,-434.5 584.5,-434.5 584.5,-413.5 433.5,-413.5"/>
<text text-anchor="start" x="462" y="-420.3" font-family="Times,serif" font-size="14.00">access_token</text>
</g>
<!-- github_provided_repositories&#45;&gt;github_repository_provider -->
<g id="edge3" class="edge">
<title>github_provided_repositories:e&#45;&gt;github_repository_provider:w</title>
<path fill="none" stroke="black" d="M284.5,-508.5C316.44,-508.5 326.86,-508.5 354.44,-508.5"/>
<polygon fill="black" stroke="black" points="354.5,-512 364.5,-508.5 354.5,-505 354.5,-512"/>
</g>
<!-- invitations -->
<g id="node5" class="node">
<title>invitations</title>
<polygon fill="none" stroke="black" points="107.5,-670.5 107.5,-691.5 213.5,-691.5 213.5,-670.5 107.5,-670.5"/>
<text text-anchor="start" x="118" y="-678.3" font-family="Times,serif" font-weight="bold" font-size="14.00">invitations</text>
<polygon fill="none" stroke="black" points="107.5,-649.5 107.5,-670.5 131.5,-670.5 131.5,-649.5 107.5,-649.5"/>
<text text-anchor="start" x="110.5" y="-656.3" font-family="Times,serif" font-size="14.00">🔑</text>
<polygon fill="none" stroke="black" points="131.5,-649.5 131.5,-670.5 213.5,-670.5 213.5,-649.5 131.5,-649.5"/>
<text text-anchor="start" x="165.5" y="-656.3" font-family="Times,serif" font-size="14.00">id</text>
<polygon fill="none" stroke="black" points="107.5,-628.5 107.5,-649.5 131.5,-649.5 131.5,-628.5 107.5,-628.5"/>
<text text-anchor="start" x="117" y="-635.3" font-family="Times,serif" font-size="14.00"> </text>
<polygon fill="none" stroke="black" points="131.5,-628.5 131.5,-649.5 213.5,-649.5 213.5,-628.5 131.5,-628.5"/>
<text text-anchor="start" x="152.5" y="-635.3" font-family="Times,serif" font-size="14.00">email</text>
<polygon fill="none" stroke="black" points="107.5,-607.5 107.5,-628.5 131.5,-628.5 131.5,-607.5 107.5,-607.5"/>
<text text-anchor="start" x="117" y="-614.3" font-family="Times,serif" font-size="14.00"> </text>
<polygon fill="none" stroke="black" points="131.5,-607.5 131.5,-628.5 213.5,-628.5 213.5,-607.5 131.5,-607.5"/>
<text text-anchor="start" x="155.5" y="-614.3" font-family="Times,serif" font-size="14.00">code</text>
<polygon fill="none" stroke="black" points="107.5,-586.5 107.5,-607.5 131.5,-607.5 131.5,-586.5 107.5,-586.5"/>
<text text-anchor="start" x="117" y="-593.3" font-family="Times,serif" font-size="14.00"> </text>
<polygon fill="none" stroke="black" points="131.5,-586.5 131.5,-607.5 213.5,-607.5 213.5,-586.5 131.5,-586.5"/>
<text text-anchor="start" x="134.5" y="-593.3" font-family="Times,serif" font-size="14.00">created_at</text>
</g>
<!-- job_runs -->
<g id="node6" class="node">
<title>job_runs</title>
<polygon fill="none" stroke="black" points="105.5,-907.5 105.5,-928.5 215.5,-928.5 215.5,-907.5 105.5,-907.5"/>
<text text-anchor="start" x="126.5" y="-915.3" font-family="Times,serif" font-weight="bold" font-size="14.00">job_runs</text>
<polygon fill="none" stroke="black" points="105.5,-886.5 105.5,-907.5 129.5,-907.5 129.5,-886.5 105.5,-886.5"/>
<text text-anchor="start" x="108.5" y="-893.3" font-family="Times,serif" font-size="14.00">🔑</text>
<polygon fill="none" stroke="black" points="129.5,-886.5 129.5,-907.5 215.5,-907.5 215.5,-886.5 129.5,-886.5"/>
<text text-anchor="start" x="165.5" y="-893.3" font-family="Times,serif" font-size="14.00">id</text>
<polygon fill="none" stroke="black" points="105.5,-865.5 105.5,-886.5 129.5,-886.5 129.5,-865.5 105.5,-865.5"/>
<text text-anchor="start" x="115" y="-872.3" font-family="Times,serif" font-size="14.00"> </text>
<polygon fill="none" stroke="black" points="129.5,-865.5 129.5,-886.5 215.5,-886.5 215.5,-865.5 129.5,-865.5"/>
<text text-anchor="start" x="161.5" y="-872.3" font-family="Times,serif" font-size="14.00">job</text>
<polygon fill="none" stroke="black" points="105.5,-844.5 105.5,-865.5 129.5,-865.5 129.5,-844.5 105.5,-844.5"/>
<text text-anchor="start" x="115" y="-851.3" font-family="Times,serif" font-size="14.00"> </text>
<polygon fill="none" stroke="black" points="129.5,-844.5 129.5,-865.5 215.5,-865.5 215.5,-844.5 129.5,-844.5"/>
<text text-anchor="start" x="145" y="-851.3" font-family="Times,serif" font-size="14.00">start_ts</text>
<polygon fill="none" stroke="black" points="105.5,-823.5 105.5,-844.5 129.5,-844.5 129.5,-823.5 105.5,-823.5"/>
<text text-anchor="start" x="115" y="-830.3" font-family="Times,serif" font-size="14.00"> </text>
<polygon fill="none" stroke="black" points="129.5,-823.5 129.5,-844.5 215.5,-844.5 215.5,-823.5 129.5,-823.5"/>
<text text-anchor="start" x="149" y="-830.3" font-family="Times,serif" font-size="14.00">end_ts</text>
<polygon fill="none" stroke="black" points="105.5,-802.5 105.5,-823.5 129.5,-823.5 129.5,-802.5 105.5,-802.5"/>
<text text-anchor="start" x="115" y="-809.3" font-family="Times,serif" font-size="14.00"> </text>
<polygon fill="none" stroke="black" points="129.5,-802.5 129.5,-823.5 215.5,-823.5 215.5,-802.5 129.5,-802.5"/>
<text text-anchor="start" x="139" y="-809.3" font-family="Times,serif" font-size="14.00">exit_code</text>
<polygon fill="none" stroke="black" points="105.5,-781.5 105.5,-802.5 129.5,-802.5 129.5,-781.5 105.5,-781.5"/>
<text text-anchor="start" x="115" y="-788.3" font-family="Times,serif" font-size="14.00"> </text>
<polygon fill="none" stroke="black" points="129.5,-781.5 129.5,-802.5 215.5,-802.5 215.5,-781.5 129.5,-781.5"/>
<text text-anchor="start" x="149.5" y="-788.3" font-family="Times,serif" font-size="14.00">stdout</text>
<polygon fill="none" stroke="black" points="105.5,-760.5 105.5,-781.5 129.5,-781.5 129.5,-760.5 105.5,-760.5"/>
<text text-anchor="start" x="115" y="-767.3" font-family="Times,serif" font-size="14.00"> </text>
<polygon fill="none" stroke="black" points="129.5,-760.5 129.5,-781.5 215.5,-781.5 215.5,-760.5 129.5,-760.5"/>
<text text-anchor="start" x="150" y="-767.3" font-family="Times,serif" font-size="14.00">stderr</text>
<polygon fill="none" stroke="black" points="105.5,-739.5 105.5,-760.5 129.5,-760.5 129.5,-739.5 105.5,-739.5"/>
<text text-anchor="start" x="115" y="-746.3" font-family="Times,serif" font-size="14.00"> </text>
<polygon fill="none" stroke="black" points="129.5,-739.5 129.5,-760.5 215.5,-760.5 215.5,-739.5 129.5,-739.5"/>
<text text-anchor="start" x="134.5" y="-746.3" font-family="Times,serif" font-size="14.00">created_at</text>
<polygon fill="none" stroke="black" points="105.5,-718.5 105.5,-739.5 129.5,-739.5 129.5,-718.5 105.5,-718.5"/>
<text text-anchor="start" x="115" y="-725.3" font-family="Times,serif" font-size="14.00"> </text>
<polygon fill="none" stroke="black" points="129.5,-718.5 129.5,-739.5 215.5,-739.5 215.5,-718.5 129.5,-718.5"/>
<text text-anchor="start" x="132.5" y="-725.3" font-family="Times,serif" font-size="14.00">updated_at</text>
</g>
<!-- oauth_credential -->
<g id="node7" class="node">
<title>oauth_credential</title>
<polygon fill="none" stroke="black" points="91.5,-1080.5 91.5,-1101.5 230.5,-1101.5 230.5,-1080.5 91.5,-1080.5"/>
<text text-anchor="start" x="94.5" y="-1088.3" font-family="Times,serif" font-weight="bold" font-size="14.00">oauth_credential</text>
<polygon fill="none" stroke="black" points="91.5,-1059.5 91.5,-1080.5 124.5,-1080.5 124.5,-1059.5 91.5,-1059.5"/>
<text text-anchor="start" x="99" y="-1066.3" font-family="Times,serif" font-size="14.00">🔑</text>
<polygon fill="none" stroke="black" points="124.5,-1059.5 124.5,-1080.5 230.5,-1080.5 230.5,-1059.5 124.5,-1059.5"/>
<text text-anchor="start" x="170.5" y="-1066.3" font-family="Times,serif" font-size="14.00">id</text>
<polygon fill="none" stroke="black" points="91.5,-1038.5 91.5,-1059.5 124.5,-1059.5 124.5,-1038.5 91.5,-1038.5"/>
<text text-anchor="start" x="105.5" y="-1045.3" font-family="Times,serif" font-size="14.00"> </text>
<polygon fill="none" stroke="black" points="124.5,-1038.5 124.5,-1059.5 230.5,-1059.5 230.5,-1038.5 124.5,-1038.5"/>
<text text-anchor="start" x="147" y="-1045.3" font-family="Times,serif" font-size="14.00">provider</text>
<polygon fill="none" stroke="black" points="91.5,-1017.5 91.5,-1038.5 124.5,-1038.5 124.5,-1017.5 91.5,-1017.5"/>
<text text-anchor="start" x="105.5" y="-1024.3" font-family="Times,serif" font-size="14.00"> </text>
<polygon fill="none" stroke="black" points="124.5,-1017.5 124.5,-1038.5 230.5,-1038.5 230.5,-1017.5 124.5,-1017.5"/>
<text text-anchor="start" x="147" y="-1024.3" font-family="Times,serif" font-size="14.00">client_id</text>
<polygon fill="none" stroke="black" points="91.5,-996.5 91.5,-1017.5 124.5,-1017.5 124.5,-996.5 91.5,-996.5"/>
<text text-anchor="start" x="105.5" y="-1003.3" font-family="Times,serif" font-size="14.00"> </text>
<polygon fill="none" stroke="black" points="124.5,-996.5 124.5,-1017.5 230.5,-1017.5 230.5,-996.5 124.5,-996.5"/>
<text text-anchor="start" x="132" y="-1003.3" font-family="Times,serif" font-size="14.00">client_secret</text>
<polygon fill="none" stroke="black" points="91.5,-975.5 91.5,-996.5 124.5,-996.5 124.5,-975.5 91.5,-975.5"/>
<text text-anchor="start" x="105.5" y="-982.3" font-family="Times,serif" font-size="14.00"> </text>
<polygon fill="none" stroke="black" points="124.5,-975.5 124.5,-996.5 230.5,-996.5 230.5,-975.5 124.5,-975.5"/>
<text text-anchor="start" x="139.5" y="-982.3" font-family="Times,serif" font-size="14.00">created_at</text>
<polygon fill="none" stroke="black" points="91.5,-954.5 91.5,-975.5 124.5,-975.5 124.5,-954.5 91.5,-954.5"/>
<text text-anchor="start" x="105.5" y="-961.3" font-family="Times,serif" font-size="14.00"> </text>
<polygon fill="none" stroke="black" points="124.5,-954.5 124.5,-975.5 230.5,-975.5 230.5,-954.5 124.5,-954.5"/>
<text text-anchor="start" x="137.5" y="-961.3" font-family="Times,serif" font-size="14.00">updated_at</text>
</g>
<!-- password_reset -->
<g id="node8" class="node">
<title>password_reset</title>
<polygon fill="none" stroke="black" points="97.5,-1752.5 97.5,-1773.5 224.5,-1773.5 224.5,-1752.5 97.5,-1752.5"/>
<text text-anchor="start" x="100.5" y="-1760.3" font-family="Times,serif" font-weight="bold" font-size="14.00">password_reset</text>
<polygon fill="none" stroke="black" points="97.5,-1731.5 97.5,-1752.5 131.5,-1752.5 131.5,-1731.5 97.5,-1731.5"/>
<text text-anchor="start" x="105.5" y="-1738.3" font-family="Times,serif" font-size="14.00">🔑</text>
<polygon fill="none" stroke="black" points="131.5,-1731.5 131.5,-1752.5 224.5,-1752.5 224.5,-1731.5 131.5,-1731.5"/>
<text text-anchor="start" x="171" y="-1738.3" font-family="Times,serif" font-size="14.00">id</text>
<polygon fill="none" stroke="black" points="97.5,-1710.5 97.5,-1731.5 131.5,-1731.5 131.5,-1710.5 97.5,-1710.5"/>
<text text-anchor="start" x="112" y="-1717.3" font-family="Times,serif" font-size="14.00"> </text>
<polygon fill="none" stroke="black" points="131.5,-1710.5 131.5,-1731.5 224.5,-1731.5 224.5,-1710.5 131.5,-1710.5"/>
<text text-anchor="start" x="152" y="-1717.3" font-family="Times,serif" font-size="14.00">user_id</text>
<polygon fill="none" stroke="black" points="97.5,-1689.5 97.5,-1710.5 131.5,-1710.5 131.5,-1689.5 97.5,-1689.5"/>
<text text-anchor="start" x="112" y="-1696.3" font-family="Times,serif" font-size="14.00"> </text>
<polygon fill="none" stroke="black" points="131.5,-1689.5 131.5,-1710.5 224.5,-1710.5 224.5,-1689.5 131.5,-1689.5"/>
<text text-anchor="start" x="161" y="-1696.3" font-family="Times,serif" font-size="14.00">code</text>
<polygon fill="none" stroke="black" points="97.5,-1668.5 97.5,-1689.5 131.5,-1689.5 131.5,-1668.5 97.5,-1668.5"/>
<text text-anchor="start" x="112" y="-1675.3" font-family="Times,serif" font-size="14.00"> </text>
<polygon fill="none" stroke="black" points="131.5,-1668.5 131.5,-1689.5 224.5,-1689.5 224.5,-1668.5 131.5,-1668.5"/>
<text text-anchor="start" x="140" y="-1675.3" font-family="Times,serif" font-size="14.00">created_at</text>
</g>
<!-- users -->
<g id="node15" class="node">
<title>users</title>
<polygon fill="none" stroke="black" points="385.5,-1524.5 385.5,-1545.5 563.5,-1545.5 563.5,-1524.5 385.5,-1524.5"/>
<text text-anchor="start" x="452.5" y="-1532.3" font-family="Times,serif" font-weight="bold" font-size="14.00">users</text>
<polygon fill="none" stroke="black" points="385.5,-1503.5 385.5,-1524.5 409.5,-1524.5 409.5,-1503.5 385.5,-1503.5"/>
<text text-anchor="start" x="388.5" y="-1510.3" font-family="Times,serif" font-size="14.00">🔑</text>
<polygon fill="none" stroke="black" points="409.5,-1503.5 409.5,-1524.5 563.5,-1524.5 563.5,-1503.5 409.5,-1503.5"/>
<text text-anchor="start" x="479.5" y="-1510.3" font-family="Times,serif" font-size="14.00">id</text>
<polygon fill="none" stroke="black" points="385.5,-1482.5 385.5,-1503.5 409.5,-1503.5 409.5,-1482.5 385.5,-1482.5"/>
<text text-anchor="start" x="395" y="-1489.3" font-family="Times,serif" font-size="14.00"> </text>
<polygon fill="none" stroke="black" points="409.5,-1482.5 409.5,-1503.5 563.5,-1503.5 563.5,-1482.5 409.5,-1482.5"/>
<text text-anchor="start" x="466.5" y="-1489.3" font-family="Times,serif" font-size="14.00">email</text>
<polygon fill="none" stroke="black" points="385.5,-1461.5 385.5,-1482.5 409.5,-1482.5 409.5,-1461.5 385.5,-1461.5"/>
<text text-anchor="start" x="395" y="-1468.3" font-family="Times,serif" font-size="14.00"> </text>
<polygon fill="none" stroke="black" points="409.5,-1461.5 409.5,-1482.5 563.5,-1482.5 563.5,-1461.5 409.5,-1461.5"/>
<text text-anchor="start" x="454.5" y="-1468.3" font-family="Times,serif" font-size="14.00">is_admin</text>
<polygon fill="none" stroke="black" points="385.5,-1440.5 385.5,-1461.5 409.5,-1461.5 409.5,-1440.5 385.5,-1440.5"/>
<text text-anchor="start" x="395" y="-1447.3" font-family="Times,serif" font-size="14.00"> </text>
<polygon fill="none" stroke="black" points="409.5,-1440.5 409.5,-1461.5 563.5,-1461.5 563.5,-1440.5 409.5,-1440.5"/>
<text text-anchor="start" x="448.5" y="-1447.3" font-family="Times,serif" font-size="14.00">created_at</text>
<polygon fill="none" stroke="black" points="385.5,-1419.5 385.5,-1440.5 409.5,-1440.5 409.5,-1419.5 385.5,-1419.5"/>
<text text-anchor="start" x="395" y="-1426.3" font-family="Times,serif" font-size="14.00"> </text>
<polygon fill="none" stroke="black" points="409.5,-1419.5 409.5,-1440.5 563.5,-1440.5 563.5,-1419.5 409.5,-1419.5"/>
<text text-anchor="start" x="446.5" y="-1426.3" font-family="Times,serif" font-size="14.00">updated_at</text>
<polygon fill="none" stroke="black" points="385.5,-1398.5 385.5,-1419.5 409.5,-1419.5 409.5,-1398.5 385.5,-1398.5"/>
<text text-anchor="start" x="395" y="-1405.3" font-family="Times,serif" font-size="14.00"> </text>
<polygon fill="none" stroke="black" points="409.5,-1398.5 409.5,-1419.5 563.5,-1419.5 563.5,-1398.5 409.5,-1398.5"/>
<text text-anchor="start" x="447" y="-1405.3" font-family="Times,serif" font-size="14.00">auth_token</text>
<polygon fill="none" stroke="black" points="385.5,-1377.5 385.5,-1398.5 409.5,-1398.5 409.5,-1377.5 385.5,-1377.5"/>
<text text-anchor="start" x="395" y="-1384.3" font-family="Times,serif" font-size="14.00"> </text>
<polygon fill="none" stroke="black" points="409.5,-1377.5 409.5,-1398.5 563.5,-1398.5 563.5,-1377.5 409.5,-1377.5"/>
<text text-anchor="start" x="465" y="-1384.3" font-family="Times,serif" font-size="14.00">active</text>
<polygon fill="none" stroke="black" points="385.5,-1356.5 385.5,-1377.5 409.5,-1377.5 409.5,-1356.5 385.5,-1356.5"/>
<text text-anchor="start" x="395" y="-1363.3" font-family="Times,serif" font-size="14.00"> </text>
<polygon fill="none" stroke="black" points="409.5,-1356.5 409.5,-1377.5 563.5,-1377.5 563.5,-1356.5 409.5,-1356.5"/>
<text text-anchor="start" x="412.5" y="-1363.3" font-family="Times,serif" font-size="14.00">password_encrypted</text>
<polygon fill="none" stroke="black" points="385.5,-1335.5 385.5,-1356.5 409.5,-1356.5 409.5,-1335.5 385.5,-1335.5"/>
<text text-anchor="start" x="395" y="-1342.3" font-family="Times,serif" font-size="14.00"> </text>
<polygon fill="none" stroke="black" points="409.5,-1335.5 409.5,-1356.5 563.5,-1356.5 563.5,-1335.5 409.5,-1335.5"/>
<text text-anchor="start" x="463.5" y="-1342.3" font-family="Times,serif" font-size="14.00">avatar</text>
</g>
<!-- password_reset&#45;&gt;users -->
<g id="edge5" class="edge">
<title>password_reset:e&#45;&gt;users:w</title>
<path fill="none" stroke="black" d="M225.5,-1720.5C276.84,-1720.5 288,-1694.83 321,-1655.5 362.76,-1605.73 320.9,-1524.06 374.25,-1515.27"/>
<polygon fill="black" stroke="black" points="374.79,-1518.74 384.5,-1514.5 374.27,-1511.76 374.79,-1518.74"/>
</g>
<!-- refresh_tokens -->
<g id="node9" class="node">
<title>refresh_tokens</title>
<polygon fill="none" stroke="black" points="98.5,-1621.5 98.5,-1642.5 222.5,-1642.5 222.5,-1621.5 98.5,-1621.5"/>
<text text-anchor="start" x="101.5" y="-1629.3" font-family="Times,serif" font-weight="bold" font-size="14.00">refresh_tokens</text>
<polygon fill="none" stroke="black" points="98.5,-1600.5 98.5,-1621.5 131.5,-1621.5 131.5,-1600.5 98.5,-1600.5"/>
<text text-anchor="start" x="106" y="-1607.3" font-family="Times,serif" font-size="14.00">🔑</text>
<polygon fill="none" stroke="black" points="131.5,-1600.5 131.5,-1621.5 222.5,-1621.5 222.5,-1600.5 131.5,-1600.5"/>
<text text-anchor="start" x="170" y="-1607.3" font-family="Times,serif" font-size="14.00">id</text>
<polygon fill="none" stroke="black" points="98.5,-1579.5 98.5,-1600.5 131.5,-1600.5 131.5,-1579.5 98.5,-1579.5"/>
<text text-anchor="start" x="112.5" y="-1586.3" font-family="Times,serif" font-size="14.00"> </text>
<polygon fill="none" stroke="black" points="131.5,-1579.5 131.5,-1600.5 222.5,-1600.5 222.5,-1579.5 131.5,-1579.5"/>
<text text-anchor="start" x="151" y="-1586.3" font-family="Times,serif" font-size="14.00">user_id</text>
<polygon fill="none" stroke="black" points="98.5,-1558.5 98.5,-1579.5 131.5,-1579.5 131.5,-1558.5 98.5,-1558.5"/>
<text text-anchor="start" x="112.5" y="-1565.3" font-family="Times,serif" font-size="14.00"> </text>
<polygon fill="none" stroke="black" points="131.5,-1558.5 131.5,-1579.5 222.5,-1579.5 222.5,-1558.5 131.5,-1558.5"/>
<text text-anchor="start" x="157" y="-1565.3" font-family="Times,serif" font-size="14.00">token</text>
<polygon fill="none" stroke="black" points="98.5,-1537.5 98.5,-1558.5 131.5,-1558.5 131.5,-1537.5 98.5,-1537.5"/>
<text text-anchor="start" x="112.5" y="-1544.3" font-family="Times,serif" font-size="14.00"> </text>
<polygon fill="none" stroke="black" points="131.5,-1537.5 131.5,-1558.5 222.5,-1558.5 222.5,-1537.5 131.5,-1537.5"/>
<text text-anchor="start" x="140" y="-1544.3" font-family="Times,serif" font-size="14.00">expires_at</text>
<polygon fill="none" stroke="black" points="98.5,-1516.5 98.5,-1537.5 131.5,-1537.5 131.5,-1516.5 98.5,-1516.5"/>
<text text-anchor="start" x="112.5" y="-1523.3" font-family="Times,serif" font-size="14.00"> </text>
<polygon fill="none" stroke="black" points="131.5,-1516.5 131.5,-1537.5 222.5,-1537.5 222.5,-1516.5 131.5,-1516.5"/>
<text text-anchor="start" x="139" y="-1523.3" font-family="Times,serif" font-size="14.00">created_at</text>
</g>
<!-- refresh_tokens&#45;&gt;users -->
<g id="edge2" class="edge">
<title>refresh_tokens:e&#45;&gt;users:w</title>
<path fill="none" stroke="black" d="M223.5,-1590.5C299.07,-1590.5 304.97,-1521.17 374.28,-1514.95"/>
<polygon fill="black" stroke="black" points="374.66,-1518.43 384.5,-1514.5 374.36,-1511.44 374.66,-1518.43"/>
</g>
<!-- registration_token -->
<g id="node10" class="node">
<title>registration_token</title>
<polygon fill="none" stroke="black" points="84.5,-1883.5 84.5,-1904.5 237.5,-1904.5 237.5,-1883.5 84.5,-1883.5"/>
<text text-anchor="start" x="87.5" y="-1891.3" font-family="Times,serif" font-weight="bold" font-size="14.00">registration_token</text>
<polygon fill="none" stroke="black" points="84.5,-1862.5 84.5,-1883.5 129.5,-1883.5 129.5,-1862.5 84.5,-1862.5"/>
<text text-anchor="start" x="98" y="-1869.3" font-family="Times,serif" font-size="14.00">🔑</text>
<polygon fill="none" stroke="black" points="129.5,-1862.5 129.5,-1883.5 237.5,-1883.5 237.5,-1862.5 129.5,-1862.5"/>
<text text-anchor="start" x="176.5" y="-1869.3" font-family="Times,serif" font-size="14.00">id</text>
<polygon fill="none" stroke="black" points="84.5,-1841.5 84.5,-1862.5 129.5,-1862.5 129.5,-1841.5 84.5,-1841.5"/>
<text text-anchor="start" x="104.5" y="-1848.3" font-family="Times,serif" font-size="14.00"> </text>
<polygon fill="none" stroke="black" points="129.5,-1841.5 129.5,-1862.5 237.5,-1862.5 237.5,-1841.5 129.5,-1841.5"/>
<text text-anchor="start" x="163.5" y="-1848.3" font-family="Times,serif" font-size="14.00">token</text>
<polygon fill="none" stroke="black" points="84.5,-1820.5 84.5,-1841.5 129.5,-1841.5 129.5,-1820.5 84.5,-1820.5"/>
<text text-anchor="start" x="104.5" y="-1827.3" font-family="Times,serif" font-size="14.00"> </text>
<polygon fill="none" stroke="black" points="129.5,-1820.5 129.5,-1841.5 237.5,-1841.5 237.5,-1820.5 129.5,-1820.5"/>
<text text-anchor="start" x="145.5" y="-1827.3" font-family="Times,serif" font-size="14.00">created_at</text>
<polygon fill="none" stroke="black" points="84.5,-1799.5 84.5,-1820.5 129.5,-1820.5 129.5,-1799.5 84.5,-1799.5"/>
<text text-anchor="start" x="104.5" y="-1806.3" font-family="Times,serif" font-size="14.00"> </text>
<polygon fill="none" stroke="black" points="129.5,-1799.5 129.5,-1820.5 237.5,-1820.5 237.5,-1799.5 129.5,-1799.5"/>
<text text-anchor="start" x="143.5" y="-1806.3" font-family="Times,serif" font-size="14.00">updated_at</text>
</g>
<!-- repositories -->
<g id="node11" class="node">
<title>repositories</title>
<polygon fill="none" stroke="black" points="110.5,-1994.5 110.5,-2015.5 211.5,-2015.5 211.5,-1994.5 110.5,-1994.5"/>
<text text-anchor="start" x="113.5" y="-2002.3" font-family="Times,serif" font-weight="bold" font-size="14.00">repositories</text>
<polygon fill="none" stroke="black" points="110.5,-1973.5 110.5,-1994.5 146.5,-1994.5 146.5,-1973.5 110.5,-1973.5"/>
<text text-anchor="start" x="119.5" y="-1980.3" font-family="Times,serif" font-size="14.00">🔑</text>
<polygon fill="none" stroke="black" points="146.5,-1973.5 146.5,-1994.5 211.5,-1994.5 211.5,-1973.5 146.5,-1973.5"/>
<text text-anchor="start" x="172" y="-1980.3" font-family="Times,serif" font-size="14.00">id</text>
<polygon fill="none" stroke="black" points="110.5,-1952.5 110.5,-1973.5 146.5,-1973.5 146.5,-1952.5 110.5,-1952.5"/>
<text text-anchor="start" x="126" y="-1959.3" font-family="Times,serif" font-size="14.00"> </text>
<polygon fill="none" stroke="black" points="146.5,-1952.5 146.5,-1973.5 211.5,-1973.5 211.5,-1952.5 146.5,-1952.5"/>
<text text-anchor="start" x="159" y="-1959.3" font-family="Times,serif" font-size="14.00">name</text>
<polygon fill="none" stroke="black" points="110.5,-1931.5 110.5,-1952.5 146.5,-1952.5 146.5,-1931.5 110.5,-1931.5"/>
<text text-anchor="start" x="126" y="-1938.3" font-family="Times,serif" font-size="14.00"> </text>
<polygon fill="none" stroke="black" points="146.5,-1931.5 146.5,-1952.5 211.5,-1952.5 211.5,-1931.5 146.5,-1931.5"/>
<text text-anchor="start" x="155.5" y="-1938.3" font-family="Times,serif" font-size="14.00">git_url</text>
</g>
<!-- server_setting -->
<g id="node12" class="node">
<title>server_setting</title>
<polygon fill="none" stroke="black" points="8.5,-2146.5 8.5,-2167.5 313.5,-2167.5 313.5,-2146.5 8.5,-2146.5"/>
<text text-anchor="start" x="104.5" y="-2154.3" font-family="Times,serif" font-weight="bold" font-size="14.00">server_setting</text>
<polygon fill="none" stroke="black" points="8.5,-2125.5 8.5,-2146.5 32.5,-2146.5 32.5,-2125.5 8.5,-2125.5"/>
<text text-anchor="start" x="11.5" y="-2132.3" font-family="Times,serif" font-size="14.00">🔑</text>
<polygon fill="none" stroke="black" points="32.5,-2125.5 32.5,-2146.5 313.5,-2146.5 313.5,-2125.5 32.5,-2125.5"/>
<text text-anchor="start" x="166" y="-2132.3" font-family="Times,serif" font-size="14.00">id</text>
<polygon fill="none" stroke="black" points="8.5,-2104.5 8.5,-2125.5 32.5,-2125.5 32.5,-2104.5 8.5,-2104.5"/>
<text text-anchor="start" x="18" y="-2111.3" font-family="Times,serif" font-size="14.00"> </text>
<polygon fill="none" stroke="black" points="32.5,-2104.5 32.5,-2125.5 313.5,-2125.5 313.5,-2104.5 32.5,-2104.5"/>
<text text-anchor="start" x="37" y="-2111.3" font-family="Times,serif" font-size="14.00">security_allowed_register_domain_list</text>
<polygon fill="none" stroke="black" points="8.5,-2083.5 8.5,-2104.5 32.5,-2104.5 32.5,-2083.5 8.5,-2083.5"/>
<text text-anchor="start" x="18" y="-2090.3" font-family="Times,serif" font-size="14.00"> </text>
<polygon fill="none" stroke="black" points="32.5,-2083.5 32.5,-2104.5 313.5,-2104.5 313.5,-2083.5 32.5,-2083.5"/>
<text text-anchor="start" x="35.5" y="-2090.3" font-family="Times,serif" font-size="14.00">security_disable_client_side_telemetry</text>
<polygon fill="none" stroke="black" points="8.5,-2062.5 8.5,-2083.5 32.5,-2083.5 32.5,-2062.5 8.5,-2062.5"/>
<text text-anchor="start" x="18" y="-2069.3" font-family="Times,serif" font-size="14.00"> </text>
<polygon fill="none" stroke="black" points="32.5,-2062.5 32.5,-2083.5 313.5,-2083.5 313.5,-2062.5 32.5,-2062.5"/>
<text text-anchor="start" x="97" y="-2069.3" font-family="Times,serif" font-size="14.00">network_external_url</text>
<polygon fill="none" stroke="black" points="8.5,-2041.5 8.5,-2062.5 32.5,-2062.5 32.5,-2041.5 8.5,-2041.5"/>
<text text-anchor="start" x="18" y="-2048.3" font-family="Times,serif" font-size="14.00"> </text>
<polygon fill="none" stroke="black" points="32.5,-2041.5 32.5,-2062.5 313.5,-2062.5 313.5,-2041.5 32.5,-2041.5"/>
<text text-anchor="start" x="81.5" y="-2048.3" font-family="Times,serif" font-size="14.00">billing_enterprise_license</text>
</g>
<!-- user_completions -->
<g id="node13" class="node">
<title>user_completions</title>
<polygon fill="none" stroke="black" points="88.5,-1469.5 88.5,-1490.5 233.5,-1490.5 233.5,-1469.5 88.5,-1469.5"/>
<text text-anchor="start" x="91.5" y="-1477.3" font-family="Times,serif" font-weight="bold" font-size="14.00">user_completions</text>
<polygon fill="none" stroke="black" points="88.5,-1448.5 88.5,-1469.5 119.5,-1469.5 119.5,-1448.5 88.5,-1448.5"/>
<text text-anchor="start" x="95" y="-1455.3" font-family="Times,serif" font-size="14.00">🔑</text>
<polygon fill="none" stroke="black" points="119.5,-1448.5 119.5,-1469.5 233.5,-1469.5 233.5,-1448.5 119.5,-1448.5"/>
<text text-anchor="start" x="169.5" y="-1455.3" font-family="Times,serif" font-size="14.00">id</text>
<polygon fill="none" stroke="black" points="88.5,-1427.5 88.5,-1448.5 119.5,-1448.5 119.5,-1427.5 88.5,-1427.5"/>
<text text-anchor="start" x="101.5" y="-1434.3" font-family="Times,serif" font-size="14.00"> </text>
<polygon fill="none" stroke="black" points="119.5,-1427.5 119.5,-1448.5 233.5,-1448.5 233.5,-1427.5 119.5,-1427.5"/>
<text text-anchor="start" x="150.5" y="-1434.3" font-family="Times,serif" font-size="14.00">user_id</text>
<polygon fill="none" stroke="black" points="88.5,-1406.5 88.5,-1427.5 119.5,-1427.5 119.5,-1406.5 88.5,-1406.5"/>
<text text-anchor="start" x="101.5" y="-1413.3" font-family="Times,serif" font-size="14.00"> </text>
<polygon fill="none" stroke="black" points="119.5,-1406.5 119.5,-1427.5 233.5,-1427.5 233.5,-1406.5 119.5,-1406.5"/>
<text text-anchor="start" x="126.5" y="-1413.3" font-family="Times,serif" font-size="14.00">completion_id</text>
<polygon fill="none" stroke="black" points="88.5,-1385.5 88.5,-1406.5 119.5,-1406.5 119.5,-1385.5 88.5,-1385.5"/>
<text text-anchor="start" x="101.5" y="-1392.3" font-family="Times,serif" font-size="14.00"> </text>
<polygon fill="none" stroke="black" points="119.5,-1385.5 119.5,-1406.5 233.5,-1406.5 233.5,-1385.5 119.5,-1385.5"/>
<text text-anchor="start" x="143.5" y="-1392.3" font-family="Times,serif" font-size="14.00">language</text>
<polygon fill="none" stroke="black" points="88.5,-1364.5 88.5,-1385.5 119.5,-1385.5 119.5,-1364.5 88.5,-1364.5"/>
<text text-anchor="start" x="101.5" y="-1371.3" font-family="Times,serif" font-size="14.00"> </text>
<polygon fill="none" stroke="black" points="119.5,-1364.5 119.5,-1385.5 233.5,-1385.5 233.5,-1364.5 119.5,-1364.5"/>
<text text-anchor="start" x="156" y="-1371.3" font-family="Times,serif" font-size="14.00">views</text>
<polygon fill="none" stroke="black" points="88.5,-1343.5 88.5,-1364.5 119.5,-1364.5 119.5,-1343.5 88.5,-1343.5"/>
<text text-anchor="start" x="101.5" y="-1350.3" font-family="Times,serif" font-size="14.00"> </text>
<polygon fill="none" stroke="black" points="119.5,-1343.5 119.5,-1364.5 233.5,-1364.5 233.5,-1343.5 119.5,-1343.5"/>
<text text-anchor="start" x="151.5" y="-1350.3" font-family="Times,serif" font-size="14.00">selects</text>
<polygon fill="none" stroke="black" points="88.5,-1322.5 88.5,-1343.5 119.5,-1343.5 119.5,-1322.5 88.5,-1322.5"/>
<text text-anchor="start" x="101.5" y="-1329.3" font-family="Times,serif" font-size="14.00"> </text>
<polygon fill="none" stroke="black" points="119.5,-1322.5 119.5,-1343.5 233.5,-1343.5 233.5,-1322.5 119.5,-1322.5"/>
<text text-anchor="start" x="141.5" y="-1329.3" font-family="Times,serif" font-size="14.00">dismisses</text>
<polygon fill="none" stroke="black" points="88.5,-1301.5 88.5,-1322.5 119.5,-1322.5 119.5,-1301.5 88.5,-1301.5"/>
<text text-anchor="start" x="101.5" y="-1308.3" font-family="Times,serif" font-size="14.00"> </text>
<polygon fill="none" stroke="black" points="119.5,-1301.5 119.5,-1322.5 233.5,-1322.5 233.5,-1301.5 119.5,-1301.5"/>
<text text-anchor="start" x="138.5" y="-1308.3" font-family="Times,serif" font-size="14.00">created_at</text>
<polygon fill="none" stroke="black" points="88.5,-1280.5 88.5,-1301.5 119.5,-1301.5 119.5,-1280.5 88.5,-1280.5"/>
<text text-anchor="start" x="101.5" y="-1287.3" font-family="Times,serif" font-size="14.00"> </text>
<polygon fill="none" stroke="black" points="119.5,-1280.5 119.5,-1301.5 233.5,-1301.5 233.5,-1280.5 119.5,-1280.5"/>
<text text-anchor="start" x="136.5" y="-1287.3" font-family="Times,serif" font-size="14.00">updated_at</text>
</g>
<!-- user_completions&#45;&gt;users -->
<g id="edge4" class="edge">
<title>user_completions:e&#45;&gt;users:w</title>
<path fill="none" stroke="black" d="M234.5,-1438.5C305.73,-1438.5 309.55,-1507.54 374.46,-1514.01"/>
<polygon fill="black" stroke="black" points="374.34,-1517.51 384.5,-1514.5 374.68,-1510.52 374.34,-1517.51"/>
</g>
<!-- user_events -->
<g id="node14" class="node">
<title>user_events</title>
<polygon fill="none" stroke="black" points="107.5,-1233.5 107.5,-1254.5 213.5,-1254.5 213.5,-1233.5 107.5,-1233.5"/>
<text text-anchor="start" x="113.5" y="-1241.3" font-family="Times,serif" font-weight="bold" font-size="14.00">user_events</text>
<polygon fill="none" stroke="black" points="107.5,-1212.5 107.5,-1233.5 131.5,-1233.5 131.5,-1212.5 107.5,-1212.5"/>
<text text-anchor="start" x="110.5" y="-1219.3" font-family="Times,serif" font-size="14.00">🔑</text>
<polygon fill="none" stroke="black" points="131.5,-1212.5 131.5,-1233.5 213.5,-1233.5 213.5,-1212.5 131.5,-1212.5"/>
<text text-anchor="start" x="165.5" y="-1219.3" font-family="Times,serif" font-size="14.00">id</text>
<polygon fill="none" stroke="black" points="107.5,-1191.5 107.5,-1212.5 131.5,-1212.5 131.5,-1191.5 107.5,-1191.5"/>
<text text-anchor="start" x="117" y="-1198.3" font-family="Times,serif" font-size="14.00"> </text>
<polygon fill="none" stroke="black" points="131.5,-1191.5 131.5,-1212.5 213.5,-1212.5 213.5,-1191.5 131.5,-1191.5"/>
<text text-anchor="start" x="146.5" y="-1198.3" font-family="Times,serif" font-size="14.00">user_id</text>
<polygon fill="none" stroke="black" points="107.5,-1170.5 107.5,-1191.5 131.5,-1191.5 131.5,-1170.5 107.5,-1170.5"/>
<text text-anchor="start" x="117" y="-1177.3" font-family="Times,serif" font-size="14.00"> </text>
<polygon fill="none" stroke="black" points="131.5,-1170.5 131.5,-1191.5 213.5,-1191.5 213.5,-1170.5 131.5,-1170.5"/>
<text text-anchor="start" x="157" y="-1177.3" font-family="Times,serif" font-size="14.00">kind</text>
<polygon fill="none" stroke="black" points="107.5,-1149.5 107.5,-1170.5 131.5,-1170.5 131.5,-1149.5 107.5,-1149.5"/>
<text text-anchor="start" x="117" y="-1156.3" font-family="Times,serif" font-size="14.00"> </text>
<polygon fill="none" stroke="black" points="131.5,-1149.5 131.5,-1170.5 213.5,-1170.5 213.5,-1149.5 131.5,-1149.5"/>
<text text-anchor="start" x="134.5" y="-1156.3" font-family="Times,serif" font-size="14.00">created_at</text>
<polygon fill="none" stroke="black" points="107.5,-1128.5 107.5,-1149.5 131.5,-1149.5 131.5,-1128.5 107.5,-1128.5"/>
<text text-anchor="start" x="117" y="-1135.3" font-family="Times,serif" font-size="14.00"> </text>
<polygon fill="none" stroke="black" points="131.5,-1128.5 131.5,-1149.5 213.5,-1149.5 213.5,-1128.5 131.5,-1128.5"/>
<text text-anchor="start" x="144.5" y="-1135.3" font-family="Times,serif" font-size="14.00">payload</text>
</g>
<!-- user_events&#45;&gt;users -->
<g id="edge1" class="edge">
<title>user_events:e&#45;&gt;users:w</title>
<path fill="none" stroke="black" d="M214.5,-1202.5C269.95,-1202.5 288.01,-1222.93 321,-1267.5 386.26,-1355.67 278.52,-1504.52 374.25,-1514.02"/>
<polygon fill="black" stroke="black" points="374.35,-1517.53 384.5,-1514.5 374.67,-1510.54 374.35,-1517.53"/>
</g>
</g>
</svg>
