<?xml version="1.0" encoding="UTF-8" standalone="no"?>
<!DOCTYPE svg PUBLIC "-//W3C//DTD SVG 1.1//EN"
 "http://www.w3.org/Graphics/SVG/1.1/DTD/svg11.dtd">
<!-- Generated by graphviz version 10.0.1 (20240210.2158)
 -->
<!-- Title: structs Pages: 1 -->
<svg width="479pt" height="2290pt"
 viewBox="0.00 0.00 479.00 2290.00" xmlns="http://www.w3.org/2000/svg" xmlns:xlink="http://www.w3.org/1999/xlink">
<g id="graph0" class="graph" transform="scale(1 1) rotate(0) translate(4 2286)">
<title>structs</title>
<polygon fill="white" stroke="none" points="-4,4 -4,-2286 475,-2286 475,4 -4,4"/>
<!-- _sqlx_migrations -->
<g id="node1" class="node">
<title>_sqlx_migrations</title>
<polygon fill="none" stroke="black" points="71.5,-138 71.5,-160 181.5,-160 181.5,-138 71.5,-138"/>
<text text-anchor="start" x="76.62" y="-144.7" font-family="Times,serif" font-weight="bold" font-size="14.00">_sqlx_migrations</text>
<polygon fill="none" stroke="black" points="71.5,-114 71.5,-138 91.5,-138 91.5,-114 71.5,-114"/>
<text text-anchor="start" x="74.38" y="-121.7" font-family="Times,serif" font-size="14.00">🔑</text>
<polygon fill="none" stroke="black" points="91.5,-114 91.5,-138 181.5,-138 181.5,-114 91.5,-114"/>
<text text-anchor="start" x="116.62" y="-120.95" font-family="Times,serif" font-size="14.00">version</text>
<polygon fill="none" stroke="black" points="71.5,-92 71.5,-114 91.5,-114 91.5,-92 71.5,-92"/>
<text text-anchor="start" x="79.62" y="-97.7" font-family="Times,serif" font-size="14.00"> </text>
<polygon fill="none" stroke="black" points="91.5,-92 91.5,-114 181.5,-114 181.5,-92 91.5,-92"/>
<text text-anchor="start" x="106.5" y="-97.7" font-family="Times,serif" font-size="14.00">description</text>
<polygon fill="none" stroke="black" points="71.5,-70 71.5,-92 91.5,-92 91.5,-70 71.5,-70"/>
<text text-anchor="start" x="79.62" y="-75.7" font-family="Times,serif" font-size="14.00"> </text>
<polygon fill="none" stroke="black" points="91.5,-70 91.5,-92 181.5,-92 181.5,-70 91.5,-70"/>
<text text-anchor="start" x="103.5" y="-75.7" font-family="Times,serif" font-size="14.00">installed_on</text>
<polygon fill="none" stroke="black" points="71.5,-48 71.5,-70 91.5,-70 91.5,-48 71.5,-48"/>
<text text-anchor="start" x="79.62" y="-53.7" font-family="Times,serif" font-size="14.00"> </text>
<polygon fill="none" stroke="black" points="91.5,-48 91.5,-70 181.5,-70 181.5,-48 91.5,-48"/>
<text text-anchor="start" x="116.25" y="-53.7" font-family="Times,serif" font-size="14.00">success</text>
<polygon fill="none" stroke="black" points="71.5,-26 71.5,-48 91.5,-48 91.5,-26 71.5,-26"/>
<text text-anchor="start" x="79.62" y="-31.7" font-family="Times,serif" font-size="14.00"> </text>
<polygon fill="none" stroke="black" points="91.5,-26 91.5,-48 181.5,-48 181.5,-26 91.5,-26"/>
<text text-anchor="start" x="109.12" y="-31.7" font-family="Times,serif" font-size="14.00">checksum</text>
<polygon fill="none" stroke="black" points="71.5,-4 71.5,-26 91.5,-26 91.5,-4 71.5,-4"/>
<text text-anchor="start" x="79.62" y="-9.7" font-family="Times,serif" font-size="14.00"> </text>
<polygon fill="none" stroke="black" points="91.5,-4 91.5,-26 181.5,-26 181.5,-4 91.5,-4"/>
<text text-anchor="start" x="94.5" y="-9.7" font-family="Times,serif" font-size="14.00">execution_time</text>
</g>
<!-- email_setting -->
<g id="node2" class="node">
<title>email_setting</title>
<polygon fill="none" stroke="black" points="70.5,-364 70.5,-386 182.5,-386 182.5,-364 70.5,-364"/>
<text text-anchor="start" x="87.88" y="-370.7" font-family="Times,serif" font-weight="bold" font-size="14.00">email_setting</text>
<polygon fill="none" stroke="black" points="70.5,-340 70.5,-364 90.5,-364 90.5,-340 70.5,-340"/>
<text text-anchor="start" x="73.38" y="-347.7" font-family="Times,serif" font-size="14.00">🔑</text>
<polygon fill="none" stroke="black" points="90.5,-340 90.5,-364 182.5,-364 182.5,-340 90.5,-340"/>
<text text-anchor="start" x="131.25" y="-346.95" font-family="Times,serif" font-size="14.00">id</text>
<polygon fill="none" stroke="black" points="70.5,-318 70.5,-340 90.5,-340 90.5,-318 70.5,-318"/>
<text text-anchor="start" x="78.62" y="-323.7" font-family="Times,serif" font-size="14.00"> </text>
<polygon fill="none" stroke="black" points="90.5,-318 90.5,-340 182.5,-340 182.5,-318 90.5,-318"/>
<text text-anchor="start" x="93.38" y="-323.7" font-family="Times,serif" font-size="14.00">smtp_username</text>
<polygon fill="none" stroke="black" points="70.5,-296 70.5,-318 90.5,-318 90.5,-296 70.5,-296"/>
<text text-anchor="start" x="78.62" y="-301.7" font-family="Times,serif" font-size="14.00"> </text>
<polygon fill="none" stroke="black" points="90.5,-296 90.5,-318 182.5,-318 182.5,-296 90.5,-296"/>
<text text-anchor="start" x="94.12" y="-301.7" font-family="Times,serif" font-size="14.00">smtp_password</text>
<polygon fill="none" stroke="black" points="70.5,-274 70.5,-296 90.5,-296 90.5,-274 70.5,-274"/>
<text text-anchor="start" x="78.62" y="-279.7" font-family="Times,serif" font-size="14.00"> </text>
<polygon fill="none" stroke="black" points="90.5,-274 90.5,-296 182.5,-296 182.5,-274 90.5,-274"/>
<text text-anchor="start" x="103.12" y="-279.7" font-family="Times,serif" font-size="14.00">smtp_server</text>
<polygon fill="none" stroke="black" points="70.5,-252 70.5,-274 90.5,-274 90.5,-252 70.5,-252"/>
<text text-anchor="start" x="78.62" y="-257.7" font-family="Times,serif" font-size="14.00"> </text>
<polygon fill="none" stroke="black" points="90.5,-252 90.5,-274 182.5,-274 182.5,-252 90.5,-252"/>
<text text-anchor="start" x="99.38" y="-257.7" font-family="Times,serif" font-size="14.00">from_address</text>
<polygon fill="none" stroke="black" points="70.5,-230 70.5,-252 90.5,-252 90.5,-230 70.5,-230"/>
<text text-anchor="start" x="78.62" y="-235.7" font-family="Times,serif" font-size="14.00"> </text>
<polygon fill="none" stroke="black" points="90.5,-230 90.5,-252 182.5,-252 182.5,-230 90.5,-230"/>
<text text-anchor="start" x="107.62" y="-235.7" font-family="Times,serif" font-size="14.00">encryption</text>
<polygon fill="none" stroke="black" points="70.5,-208 70.5,-230 90.5,-230 90.5,-208 70.5,-208"/>
<text text-anchor="start" x="78.62" y="-213.7" font-family="Times,serif" font-size="14.00"> </text>
<polygon fill="none" stroke="black" points="90.5,-208 90.5,-230 182.5,-230 182.5,-208 90.5,-208"/>
<text text-anchor="start" x="100.88" y="-213.7" font-family="Times,serif" font-size="14.00">auth_method</text>
<polygon fill="none" stroke="black" points="70.5,-186 70.5,-208 90.5,-208 90.5,-186 70.5,-186"/>
<text text-anchor="start" x="78.62" y="-191.7" font-family="Times,serif" font-size="14.00"> </text>
<polygon fill="none" stroke="black" points="90.5,-186 90.5,-208 182.5,-208 182.5,-186 90.5,-186"/>
<text text-anchor="start" x="108.75" y="-191.7" font-family="Times,serif" font-size="14.00">smtp_port</text>
</g>
<!-- github_provided_repositories -->
<g id="node3" class="node">
<title>github_provided_repositories</title>
<polygon fill="none" stroke="black" points="31,-568 31,-590 222,-590 222,-568 31,-568"/>
<text text-anchor="start" x="41.38" y="-574.7" font-family="Times,serif" font-weight="bold" font-size="14.00">github_provided_repositories</text>
<polygon fill="none" stroke="black" points="31,-544 31,-568 51,-568 51,-544 31,-544"/>
<text text-anchor="start" x="33.88" y="-551.7" font-family="Times,serif" font-size="14.00">🔑</text>
<polygon fill="none" stroke="black" points="51,-544 51,-568 222,-568 222,-544 51,-544"/>
<text text-anchor="start" x="131.25" y="-550.95" font-family="Times,serif" font-size="14.00">id</text>
<polygon fill="none" stroke="black" points="31,-522 31,-544 51,-544 51,-522 31,-522"/>
<text text-anchor="start" x="39.12" y="-527.7" font-family="Times,serif" font-size="14.00"> </text>
<polygon fill="none" stroke="black" points="51,-522 51,-544 222,-544 222,-522 51,-522"/>
<text text-anchor="start" x="53.62" y="-527.7" font-family="Times,serif" font-size="14.00">github_repository_provider_id</text>
<polygon fill="none" stroke="black" points="31,-500 31,-522 51,-522 51,-500 31,-500"/>
<text text-anchor="start" x="39.12" y="-505.7" font-family="Times,serif" font-size="14.00"> </text>
<polygon fill="none" stroke="black" points="51,-500 51,-522 222,-522 222,-500 51,-500"/>
<text text-anchor="start" x="109.12" y="-505.7" font-family="Times,serif" font-size="14.00">vendor_id</text>
<polygon fill="none" stroke="black" points="31,-478 31,-500 51,-500 51,-478 31,-478"/>
<text text-anchor="start" x="39.12" y="-483.7" font-family="Times,serif" font-size="14.00"> </text>
<polygon fill="none" stroke="black" points="51,-478 51,-500 222,-500 222,-478 51,-478"/>
<text text-anchor="start" x="121.5" y="-483.7" font-family="Times,serif" font-size="14.00">name</text>
<polygon fill="none" stroke="black" points="31,-456 31,-478 51,-478 51,-456 31,-456"/>
<text text-anchor="start" x="39.12" y="-461.7" font-family="Times,serif" font-size="14.00"> </text>
<polygon fill="none" stroke="black" points="51,-456 51,-478 222,-478 222,-456 51,-456"/>
<text text-anchor="start" x="118.5" y="-461.7" font-family="Times,serif" font-size="14.00">git_url</text>
<polygon fill="none" stroke="black" points="31,-434 31,-456 51,-456 51,-434 31,-434"/>
<text text-anchor="start" x="39.12" y="-439.7" font-family="Times,serif" font-size="14.00"> </text>
<polygon fill="none" stroke="black" points="51,-434 51,-456 222,-456 222,-434 51,-434"/>
<text text-anchor="start" x="120.38" y="-439.7" font-family="Times,serif" font-size="14.00">active</text>
<polygon fill="none" stroke="black" points="31,-412 31,-434 51,-434 51,-412 31,-412"/>
<text text-anchor="start" x="39.12" y="-417.7" font-family="Times,serif" font-size="14.00"> </text>
<polygon fill="none" stroke="black" points="51,-412 51,-434 222,-434 222,-412 51,-412"/>
<text text-anchor="start" x="106.88" y="-417.7" font-family="Times,serif" font-size="14.00">updated_at</text>
</g>
<!-- github_repository_provider -->
<g id="node4" class="node">
<title>github_repository_provider</title>
<polygon fill="none" stroke="black" points="297,-545 297,-567 463,-567 463,-545 297,-545"/>
<text text-anchor="start" x="299.75" y="-551.7" font-family="Times,serif" font-weight="bold" font-size="14.00">github_repository_provider</text>
<polygon fill="none" stroke="black" points="297,-521 297,-545 349,-545 349,-521 297,-521"/>
<text text-anchor="start" x="315.88" y="-528.7" font-family="Times,serif" font-size="14.00">🔑</text>
<polygon fill="none" stroke="black" points="349,-521 349,-545 463,-545 463,-521 349,-521"/>
<text text-anchor="start" x="400.75" y="-527.95" font-family="Times,serif" font-size="14.00">id</text>
<polygon fill="none" stroke="black" points="297,-499 297,-521 349,-521 349,-499 297,-499"/>
<text text-anchor="start" x="321.12" y="-504.7" font-family="Times,serif" font-size="14.00"> </text>
<polygon fill="none" stroke="black" points="349,-499 349,-521 463,-521 463,-499 349,-499"/>
<text text-anchor="start" x="368.12" y="-504.7" font-family="Times,serif" font-size="14.00">display_name</text>
<polygon fill="none" stroke="black" points="297,-477 297,-499 349,-499 349,-477 297,-477"/>
<text text-anchor="start" x="321.12" y="-482.7" font-family="Times,serif" font-size="14.00"> </text>
<polygon fill="none" stroke="black" points="349,-477 349,-499 463,-499 463,-477 349,-477"/>
<text text-anchor="start" x="370.38" y="-482.7" font-family="Times,serif" font-size="14.00">access_token</text>
</g>
<!-- github_provided_repositories&#45;&gt;github_repository_provider -->
<g id="edge3" class="edge">
<title>github_provided_repositories:e&#45;&gt;github_repository_provider:w</title>
<path fill="none" stroke="black" d="M223.5,-533C251.57,-533 261.3,-533 284.64,-533"/>
<polygon fill="black" stroke="black" points="284.49,-536.5 294.49,-533 284.49,-529.5 284.49,-536.5"/>
</g>
<!-- invitations -->
<g id="node5" class="node">
<title>invitations</title>
<polygon fill="none" stroke="black" points="86,-706 86,-728 167,-728 167,-706 86,-706"/>
<text text-anchor="start" x="96.12" y="-712.7" font-family="Times,serif" font-weight="bold" font-size="14.00">invitations</text>
<polygon fill="none" stroke="black" points="86,-682 86,-706 106,-706 106,-682 86,-682"/>
<text text-anchor="start" x="88.88" y="-689.7" font-family="Times,serif" font-size="14.00">🔑</text>
<polygon fill="none" stroke="black" points="106,-682 106,-706 167,-706 167,-682 106,-682"/>
<text text-anchor="start" x="131.25" y="-688.95" font-family="Times,serif" font-size="14.00">id</text>
<polygon fill="none" stroke="black" points="86,-660 86,-682 106,-682 106,-660 86,-660"/>
<text text-anchor="start" x="94.12" y="-665.7" font-family="Times,serif" font-size="14.00"> </text>
<polygon fill="none" stroke="black" points="106,-660 106,-682 167,-682 167,-660 106,-660"/>
<text text-anchor="start" x="121.12" y="-665.7" font-family="Times,serif" font-size="14.00">email</text>
<polygon fill="none" stroke="black" points="86,-638 86,-660 106,-660 106,-638 86,-638"/>
<text text-anchor="start" x="94.12" y="-643.7" font-family="Times,serif" font-size="14.00"> </text>
<polygon fill="none" stroke="black" points="106,-638 106,-660 167,-660 167,-638 106,-638"/>
<text text-anchor="start" x="123.75" y="-643.7" font-family="Times,serif" font-size="14.00">code</text>
<polygon fill="none" stroke="black" points="86,-616 86,-638 106,-638 106,-616 86,-616"/>
<text text-anchor="start" x="94.12" y="-621.7" font-family="Times,serif" font-size="14.00"> </text>
<polygon fill="none" stroke="black" points="106,-616 106,-638 167,-638 167,-616 106,-616"/>
<text text-anchor="start" x="108.75" y="-621.7" font-family="Times,serif" font-size="14.00">created_at</text>
</g>
<!-- job_runs -->
<g id="node6" class="node">
<title>job_runs</title>
<polygon fill="none" stroke="black" points="84,-954 84,-976 169,-976 169,-954 84,-954"/>
<text text-anchor="start" x="100.62" y="-960.7" font-family="Times,serif" font-weight="bold" font-size="14.00">job_runs</text>
<polygon fill="none" stroke="black" points="84,-930 84,-954 104,-954 104,-930 84,-930"/>
<text text-anchor="start" x="86.88" y="-937.7" font-family="Times,serif" font-size="14.00">🔑</text>
<polygon fill="none" stroke="black" points="104,-930 104,-954 169,-954 169,-930 104,-930"/>
<text text-anchor="start" x="131.25" y="-936.95" font-family="Times,serif" font-size="14.00">id</text>
<polygon fill="none" stroke="black" points="84,-908 84,-930 104,-930 104,-908 84,-908"/>
<text text-anchor="start" x="92.12" y="-913.7" font-family="Times,serif" font-size="14.00"> </text>
<polygon fill="none" stroke="black" points="104,-908 104,-930 169,-930 169,-908 104,-908"/>
<text text-anchor="start" x="127.88" y="-913.7" font-family="Times,serif" font-size="14.00">job</text>
<polygon fill="none" stroke="black" points="84,-886 84,-908 104,-908 104,-886 84,-886"/>
<text text-anchor="start" x="92.12" y="-891.7" font-family="Times,serif" font-size="14.00"> </text>
<polygon fill="none" stroke="black" points="104,-886 104,-908 169,-908 169,-886 104,-886"/>
<text text-anchor="start" x="117" y="-891.7" font-family="Times,serif" font-size="14.00">start_ts</text>
<polygon fill="none" stroke="black" points="84,-864 84,-886 104,-886 104,-864 84,-864"/>
<text text-anchor="start" x="92.12" y="-869.7" font-family="Times,serif" font-size="14.00"> </text>
<polygon fill="none" stroke="black" points="104,-864 104,-886 169,-886 169,-864 104,-864"/>
<text text-anchor="start" x="118.88" y="-869.7" font-family="Times,serif" font-size="14.00">end_ts</text>
<polygon fill="none" stroke="black" points="84,-842 84,-864 104,-864 104,-842 84,-842"/>
<text text-anchor="start" x="92.12" y="-847.7" font-family="Times,serif" font-size="14.00"> </text>
<polygon fill="none" stroke="black" points="104,-842 104,-864 169,-864 169,-842 104,-842"/>
<text text-anchor="start" x="110.25" y="-847.7" font-family="Times,serif" font-size="14.00">exit_code</text>
<polygon fill="none" stroke="black" points="84,-820 84,-842 104,-842 104,-820 84,-820"/>
<text text-anchor="start" x="92.12" y="-825.7" font-family="Times,serif" font-size="14.00"> </text>
<polygon fill="none" stroke="black" points="104,-820 104,-842 169,-842 169,-820 104,-820"/>
<text text-anchor="start" x="120" y="-825.7" font-family="Times,serif" font-size="14.00">stdout</text>
<polygon fill="none" stroke="black" points="84,-798 84,-820 104,-820 104,-798 84,-798"/>
<text text-anchor="start" x="92.12" y="-803.7" font-family="Times,serif" font-size="14.00"> </text>
<polygon fill="none" stroke="black" points="104,-798 104,-820 169,-820 169,-798 104,-798"/>
<text text-anchor="start" x="121.12" y="-803.7" font-family="Times,serif" font-size="14.00">stderr</text>
<polygon fill="none" stroke="black" points="84,-776 84,-798 104,-798 104,-776 84,-776"/>
<text text-anchor="start" x="92.12" y="-781.7" font-family="Times,serif" font-size="14.00"> </text>
<polygon fill="none" stroke="black" points="104,-776 104,-798 169,-798 169,-776 104,-776"/>
<text text-anchor="start" x="108.75" y="-781.7" font-family="Times,serif" font-size="14.00">created_at</text>
<polygon fill="none" stroke="black" points="84,-754 84,-776 104,-776 104,-754 84,-754"/>
<text text-anchor="start" x="92.12" y="-759.7" font-family="Times,serif" font-size="14.00"> </text>
<polygon fill="none" stroke="black" points="104,-754 104,-776 169,-776 169,-754 104,-754"/>
<text text-anchor="start" x="106.88" y="-759.7" font-family="Times,serif" font-size="14.00">updated_at</text>
</g>
<!-- oauth_credential -->
<g id="node7" class="node">
<title>oauth_credential</title>
<polygon fill="none" stroke="black" points="75,-1136 75,-1158 178,-1158 178,-1136 75,-1136"/>
<text text-anchor="start" x="77.75" y="-1142.7" font-family="Times,serif" font-weight="bold" font-size="14.00">oauth_credential</text>
<polygon fill="none" stroke="black" points="75,-1112 75,-1136 99,-1136 99,-1112 75,-1112"/>
<text text-anchor="start" x="79.88" y="-1119.7" font-family="Times,serif" font-size="14.00">🔑</text>
<polygon fill="none" stroke="black" points="99,-1112 99,-1136 178,-1136 178,-1112 99,-1112"/>
<text text-anchor="start" x="133.25" y="-1118.95" font-family="Times,serif" font-size="14.00">id</text>
<polygon fill="none" stroke="black" points="75,-1090 75,-1112 99,-1112 99,-1090 75,-1090"/>
<text text-anchor="start" x="85.12" y="-1095.7" font-family="Times,serif" font-size="14.00"> </text>
<polygon fill="none" stroke="black" points="99,-1090 99,-1112 178,-1112 178,-1090 99,-1090"/>
<text text-anchor="start" x="115.62" y="-1095.7" font-family="Times,serif" font-size="14.00">provider</text>
<polygon fill="none" stroke="black" points="75,-1068 75,-1090 99,-1090 99,-1068 75,-1068"/>
<text text-anchor="start" x="85.12" y="-1073.7" font-family="Times,serif" font-size="14.00"> </text>
<polygon fill="none" stroke="black" points="99,-1068 99,-1090 178,-1090 178,-1068 99,-1068"/>
<text text-anchor="start" x="114.88" y="-1073.7" font-family="Times,serif" font-size="14.00">client_id</text>
<polygon fill="none" stroke="black" points="75,-1046 75,-1068 99,-1068 99,-1046 75,-1046"/>
<text text-anchor="start" x="85.12" y="-1051.7" font-family="Times,serif" font-size="14.00"> </text>
<polygon fill="none" stroke="black" points="99,-1046 99,-1068 178,-1068 178,-1046 99,-1046"/>
<text text-anchor="start" x="104.38" y="-1051.7" font-family="Times,serif" font-size="14.00">client_secret</text>
<polygon fill="none" stroke="black" points="75,-1024 75,-1046 99,-1046 99,-1024 75,-1024"/>
<text text-anchor="start" x="85.12" y="-1029.7" font-family="Times,serif" font-size="14.00"> </text>
<polygon fill="none" stroke="black" points="99,-1024 99,-1046 178,-1046 178,-1024 99,-1024"/>
<text text-anchor="start" x="110.75" y="-1029.7" font-family="Times,serif" font-size="14.00">created_at</text>
<polygon fill="none" stroke="black" points="75,-1002 75,-1024 99,-1024 99,-1002 75,-1002"/>
<text text-anchor="start" x="85.12" y="-1007.7" font-family="Times,serif" font-size="14.00"> </text>
<polygon fill="none" stroke="black" points="99,-1002 99,-1024 178,-1024 178,-1002 99,-1002"/>
<text text-anchor="start" x="108.88" y="-1007.7" font-family="Times,serif" font-size="14.00">updated_at</text>
</g>
<!-- password_reset -->
<g id="node8" class="node">
<title>password_reset</title>
<polygon fill="none" stroke="black" points="79,-1842 79,-1864 174,-1864 174,-1842 79,-1842"/>
<text text-anchor="start" x="81.88" y="-1848.7" font-family="Times,serif" font-weight="bold" font-size="14.00">password_reset</text>
<polygon fill="none" stroke="black" points="79,-1818 79,-1842 106,-1842 106,-1818 79,-1818"/>
<text text-anchor="start" x="85.38" y="-1825.7" font-family="Times,serif" font-size="14.00">🔑</text>
<polygon fill="none" stroke="black" points="106,-1818 106,-1842 174,-1842 174,-1818 106,-1818"/>
<text text-anchor="start" x="134.75" y="-1824.95" font-family="Times,serif" font-size="14.00">id</text>
<polygon fill="none" stroke="black" points="79,-1796 79,-1818 106,-1818 106,-1796 79,-1796"/>
<text text-anchor="start" x="90.62" y="-1801.7" font-family="Times,serif" font-size="14.00"> </text>
<polygon fill="none" stroke="black" points="106,-1796 106,-1818 174,-1818 174,-1796 106,-1796"/>
<text text-anchor="start" x="120.12" y="-1801.7" font-family="Times,serif" font-size="14.00">user_id</text>
<polygon fill="none" stroke="black" points="79,-1774 79,-1796 106,-1796 106,-1774 79,-1774"/>
<text text-anchor="start" x="90.62" y="-1779.7" font-family="Times,serif" font-size="14.00"> </text>
<polygon fill="none" stroke="black" points="106,-1774 106,-1796 174,-1796 174,-1774 106,-1774"/>
<text text-anchor="start" x="127.25" y="-1779.7" font-family="Times,serif" font-size="14.00">code</text>
<polygon fill="none" stroke="black" points="79,-1752 79,-1774 106,-1774 106,-1752 79,-1752"/>
<text text-anchor="start" x="90.62" y="-1757.7" font-family="Times,serif" font-size="14.00"> </text>
<polygon fill="none" stroke="black" points="106,-1752 106,-1774 174,-1774 174,-1752 106,-1752"/>
<text text-anchor="start" x="112.25" y="-1757.7" font-family="Times,serif" font-size="14.00">created_at</text>
</g>
<!-- users -->
<g id="node15" class="node">
<title>users</title>
<polygon fill="none" stroke="black" points="311.5,-1601 311.5,-1623 448.5,-1623 448.5,-1601 311.5,-1601"/>
<text text-anchor="start" x="365" y="-1607.7" font-family="Times,serif" font-weight="bold" font-size="14.00">users</text>
<polygon fill="none" stroke="black" points="311.5,-1577 311.5,-1601 331.5,-1601 331.5,-1577 311.5,-1577"/>
<text text-anchor="start" x="314.38" y="-1584.7" font-family="Times,serif" font-size="14.00">🔑</text>
<polygon fill="none" stroke="black" points="331.5,-1577 331.5,-1601 448.5,-1601 448.5,-1577 331.5,-1577"/>
<text text-anchor="start" x="384.75" y="-1583.95" font-family="Times,serif" font-size="14.00">id</text>
<polygon fill="none" stroke="black" points="311.5,-1555 311.5,-1577 331.5,-1577 331.5,-1555 311.5,-1555"/>
<text text-anchor="start" x="319.62" y="-1560.7" font-family="Times,serif" font-size="14.00"> </text>
<polygon fill="none" stroke="black" points="331.5,-1555 331.5,-1577 448.5,-1577 448.5,-1555 331.5,-1555"/>
<text text-anchor="start" x="374.62" y="-1560.7" font-family="Times,serif" font-size="14.00">email</text>
<polygon fill="none" stroke="black" points="311.5,-1533 311.5,-1555 331.5,-1555 331.5,-1533 311.5,-1533"/>
<text text-anchor="start" x="319.62" y="-1538.7" font-family="Times,serif" font-size="14.00"> </text>
<polygon fill="none" stroke="black" points="331.5,-1533 331.5,-1555 448.5,-1555 448.5,-1533 331.5,-1533"/>
<text text-anchor="start" x="364.88" y="-1538.7" font-family="Times,serif" font-size="14.00">is_admin</text>
<polygon fill="none" stroke="black" points="311.5,-1511 311.5,-1533 331.5,-1533 331.5,-1511 311.5,-1511"/>
<text text-anchor="start" x="319.62" y="-1516.7" font-family="Times,serif" font-size="14.00"> </text>
<polygon fill="none" stroke="black" points="331.5,-1511 331.5,-1533 448.5,-1533 448.5,-1511 331.5,-1511"/>
<text text-anchor="start" x="362.25" y="-1516.7" font-family="Times,serif" font-size="14.00">created_at</text>
<polygon fill="none" stroke="black" points="311.5,-1489 311.5,-1511 331.5,-1511 331.5,-1489 311.5,-1489"/>
<text text-anchor="start" x="319.62" y="-1494.7" font-family="Times,serif" font-size="14.00"> </text>
<polygon fill="none" stroke="black" points="331.5,-1489 331.5,-1511 448.5,-1511 448.5,-1489 331.5,-1489"/>
<text text-anchor="start" x="360.38" y="-1494.7" font-family="Times,serif" font-size="14.00">updated_at</text>
<polygon fill="none" stroke="black" points="311.5,-1467 311.5,-1489 331.5,-1489 331.5,-1467 311.5,-1467"/>
<text text-anchor="start" x="319.62" y="-1472.7" font-family="Times,serif" font-size="14.00"> </text>
<polygon fill="none" stroke="black" points="331.5,-1467 331.5,-1489 448.5,-1489 448.5,-1467 331.5,-1467"/>
<text text-anchor="start" x="360" y="-1472.7" font-family="Times,serif" font-size="14.00">auth_token</text>
<polygon fill="none" stroke="black" points="311.5,-1445 311.5,-1467 331.5,-1467 331.5,-1445 311.5,-1445"/>
<text text-anchor="start" x="319.62" y="-1450.7" font-family="Times,serif" font-size="14.00"> </text>
<polygon fill="none" stroke="black" points="331.5,-1445 331.5,-1467 448.5,-1467 448.5,-1445 331.5,-1445"/>
<text text-anchor="start" x="373.88" y="-1450.7" font-family="Times,serif" font-size="14.00">active</text>
<polygon fill="none" stroke="black" points="311.5,-1423 311.5,-1445 331.5,-1445 331.5,-1423 311.5,-1423"/>
<text text-anchor="start" x="319.62" y="-1428.7" font-family="Times,serif" font-size="14.00"> </text>
<polygon fill="none" stroke="black" points="331.5,-1423 331.5,-1445 448.5,-1445 448.5,-1423 331.5,-1423"/>
<text text-anchor="start" x="334.5" y="-1428.7" font-family="Times,serif" font-size="14.00">password_encrypted</text>
<polygon fill="none" stroke="black" points="311.5,-1401 311.5,-1423 331.5,-1423 331.5,-1401 311.5,-1401"/>
<text text-anchor="start" x="319.62" y="-1406.7" font-family="Times,serif" font-size="14.00"> </text>
<polygon fill="none" stroke="black" points="331.5,-1401 331.5,-1423 448.5,-1423 448.5,-1401 331.5,-1401"/>
<text text-anchor="start" x="373.5" y="-1406.7" font-family="Times,serif" font-size="14.00">avatar</text>
</g>
<!-- password_reset&#45;&gt;users -->
<g id="edge5" class="edge">
<title>password_reset:e&#45;&gt;users:w</title>
<path fill="none" stroke="black" d="M175.5,-1807C221.32,-1807 226.87,-1776.64 253,-1739 291.29,-1683.85 244.8,-1599.6 298.72,-1589.92"/>
<polygon fill="black" stroke="black" points="298.81,-1593.42 308.49,-1589.12 298.24,-1586.44 298.81,-1593.42"/>
</g>
<!-- refresh_tokens -->
<g id="node9" class="node">
<title>refresh_tokens</title>
<polygon fill="none" stroke="black" points="81,-1704 81,-1726 172,-1726 172,-1704 81,-1704"/>
<text text-anchor="start" x="83.75" y="-1710.7" font-family="Times,serif" font-weight="bold" font-size="14.00">refresh_tokens</text>
<polygon fill="none" stroke="black" points="81,-1680 81,-1704 106,-1704 106,-1680 81,-1680"/>
<text text-anchor="start" x="86.38" y="-1687.7" font-family="Times,serif" font-size="14.00">🔑</text>
<polygon fill="none" stroke="black" points="106,-1680 106,-1704 172,-1704 172,-1680 106,-1680"/>
<text text-anchor="start" x="133.75" y="-1686.95" font-family="Times,serif" font-size="14.00">id</text>
<polygon fill="none" stroke="black" points="81,-1658 81,-1680 106,-1680 106,-1658 81,-1658"/>
<text text-anchor="start" x="91.62" y="-1663.7" font-family="Times,serif" font-size="14.00"> </text>
<polygon fill="none" stroke="black" points="106,-1658 106,-1680 172,-1680 172,-1658 106,-1658"/>
<text text-anchor="start" x="119.12" y="-1663.7" font-family="Times,serif" font-size="14.00">user_id</text>
<polygon fill="none" stroke="black" points="81,-1636 81,-1658 106,-1658 106,-1636 81,-1636"/>
<text text-anchor="start" x="91.62" y="-1641.7" font-family="Times,serif" font-size="14.00"> </text>
<polygon fill="none" stroke="black" points="106,-1636 106,-1658 172,-1658 172,-1636 106,-1636"/>
<text text-anchor="start" x="124" y="-1641.7" font-family="Times,serif" font-size="14.00">token</text>
<polygon fill="none" stroke="black" points="81,-1614 81,-1636 106,-1636 106,-1614 81,-1614"/>
<text text-anchor="start" x="91.62" y="-1619.7" font-family="Times,serif" font-size="14.00"> </text>
<polygon fill="none" stroke="black" points="106,-1614 106,-1636 172,-1636 172,-1614 106,-1614"/>
<text text-anchor="start" x="111.25" y="-1619.7" font-family="Times,serif" font-size="14.00">expires_at</text>
<polygon fill="none" stroke="black" points="81,-1592 81,-1614 106,-1614 106,-1592 81,-1592"/>
<text text-anchor="start" x="91.62" y="-1597.7" font-family="Times,serif" font-size="14.00"> </text>
<polygon fill="none" stroke="black" points="106,-1592 106,-1614 172,-1614 172,-1592 106,-1592"/>
<text text-anchor="start" x="111.25" y="-1597.7" font-family="Times,serif" font-size="14.00">created_at</text>
</g>
<!-- refresh_tokens&#45;&gt;users -->
<g id="edge2" class="edge">
<title>refresh_tokens:e&#45;&gt;users:w</title>
<path fill="none" stroke="black" d="M173.5,-1669C239.84,-1669 239.91,-1597.81 298.74,-1589.74"/>
<polygon fill="black" stroke="black" points="298.74,-1593.25 308.49,-1589.1 298.28,-1586.26 298.74,-1593.25"/>
</g>
<!-- registration_token -->
<g id="node10" class="node">
<title>registration_token</title>
<polygon fill="none" stroke="black" points="70.5,-1980 70.5,-2002 182.5,-2002 182.5,-1980 70.5,-1980"/>
<text text-anchor="start" x="73.25" y="-1986.7" font-family="Times,serif" font-weight="bold" font-size="14.00">registration_token</text>
<polygon fill="none" stroke="black" points="70.5,-1956 70.5,-1980 103.5,-1980 103.5,-1956 70.5,-1956"/>
<text text-anchor="start" x="79.88" y="-1963.7" font-family="Times,serif" font-size="14.00">🔑</text>
<polygon fill="none" stroke="black" points="103.5,-1956 103.5,-1980 182.5,-1980 182.5,-1956 103.5,-1956"/>
<text text-anchor="start" x="137.75" y="-1962.95" font-family="Times,serif" font-size="14.00">id</text>
<polygon fill="none" stroke="black" points="70.5,-1934 70.5,-1956 103.5,-1956 103.5,-1934 70.5,-1934"/>
<text text-anchor="start" x="85.12" y="-1939.7" font-family="Times,serif" font-size="14.00"> </text>
<polygon fill="none" stroke="black" points="103.5,-1934 103.5,-1956 182.5,-1956 182.5,-1934 103.5,-1934"/>
<text text-anchor="start" x="128" y="-1939.7" font-family="Times,serif" font-size="14.00">token</text>
<polygon fill="none" stroke="black" points="70.5,-1912 70.5,-1934 103.5,-1934 103.5,-1912 70.5,-1912"/>
<text text-anchor="start" x="85.12" y="-1917.7" font-family="Times,serif" font-size="14.00"> </text>
<polygon fill="none" stroke="black" points="103.5,-1912 103.5,-1934 182.5,-1934 182.5,-1912 103.5,-1912"/>
<text text-anchor="start" x="115.25" y="-1917.7" font-family="Times,serif" font-size="14.00">created_at</text>
<polygon fill="none" stroke="black" points="70.5,-1890 70.5,-1912 103.5,-1912 103.5,-1890 70.5,-1890"/>
<text text-anchor="start" x="85.12" y="-1895.7" font-family="Times,serif" font-size="14.00"> </text>
<polygon fill="none" stroke="black" points="103.5,-1890 103.5,-1912 182.5,-1912 182.5,-1890 103.5,-1890"/>
<text text-anchor="start" x="113.38" y="-1895.7" font-family="Times,serif" font-size="14.00">updated_at</text>
</g>
<!-- repositories -->
<g id="node11" class="node">
<title>repositories</title>
<polygon fill="none" stroke="black" points="90,-2096 90,-2118 163,-2118 163,-2096 90,-2096"/>
<text text-anchor="start" x="92.75" y="-2102.7" font-family="Times,serif" font-weight="bold" font-size="14.00">repositories</text>
<polygon fill="none" stroke="black" points="90,-2072 90,-2096 115,-2096 115,-2072 90,-2072"/>
<text text-anchor="start" x="95.38" y="-2079.7" font-family="Times,serif" font-size="14.00">🔑</text>
<polygon fill="none" stroke="black" points="115,-2072 115,-2096 163,-2096 163,-2072 115,-2072"/>
<text text-anchor="start" x="133.75" y="-2078.95" font-family="Times,serif" font-size="14.00">id</text>
<polygon fill="none" stroke="black" points="90,-2050 90,-2072 115,-2072 115,-2050 90,-2050"/>
<text text-anchor="start" x="100.62" y="-2055.7" font-family="Times,serif" font-size="14.00"> </text>
<polygon fill="none" stroke="black" points="115,-2050 115,-2072 163,-2072 163,-2050 115,-2050"/>
<text text-anchor="start" x="124" y="-2055.7" font-family="Times,serif" font-size="14.00">name</text>
<polygon fill="none" stroke="black" points="90,-2028 90,-2050 115,-2050 115,-2028 90,-2028"/>
<text text-anchor="start" x="100.62" y="-2033.7" font-family="Times,serif" font-size="14.00"> </text>
<polygon fill="none" stroke="black" points="115,-2028 115,-2050 163,-2050 163,-2028 115,-2028"/>
<text text-anchor="start" x="121" y="-2033.7" font-family="Times,serif" font-size="14.00">git_url</text>
</g>
<!-- server_setting -->
<g id="node12" class="node">
<title>server_setting</title>
<polygon fill="none" stroke="black" points="8,-2256 8,-2278 245,-2278 245,-2256 8,-2256"/>
<text text-anchor="start" x="86" y="-2262.7" font-family="Times,serif" font-weight="bold" font-size="14.00">server_setting</text>
<polygon fill="none" stroke="black" points="8,-2232 8,-2256 28,-2256 28,-2232 8,-2232"/>
<text text-anchor="start" x="10.88" y="-2239.7" font-family="Times,serif" font-size="14.00">🔑</text>
<polygon fill="none" stroke="black" points="28,-2232 28,-2256 245,-2256 245,-2232 28,-2232"/>
<text text-anchor="start" x="131.25" y="-2238.95" font-family="Times,serif" font-size="14.00">id</text>
<polygon fill="none" stroke="black" points="8,-2210 8,-2232 28,-2232 28,-2210 8,-2210"/>
<text text-anchor="start" x="16.12" y="-2215.7" font-family="Times,serif" font-size="14.00"> </text>
<polygon fill="none" stroke="black" points="28,-2210 28,-2232 245,-2232 245,-2210 28,-2210"/>
<text text-anchor="start" x="31.12" y="-2215.7" font-family="Times,serif" font-size="14.00">security_allowed_register_domain_list</text>
<polygon fill="none" stroke="black" points="8,-2188 8,-2210 28,-2210 28,-2188 8,-2188"/>
<text text-anchor="start" x="16.12" y="-2193.7" font-family="Times,serif" font-size="14.00"> </text>
<polygon fill="none" stroke="black" points="28,-2188 28,-2210 245,-2210 245,-2188 28,-2188"/>
<text text-anchor="start" x="30.75" y="-2193.7" font-family="Times,serif" font-size="14.00">security_disable_client_side_telemetry</text>
<polygon fill="none" stroke="black" points="8,-2166 8,-2188 28,-2188 28,-2166 8,-2166"/>
<text text-anchor="start" x="16.12" y="-2171.7" font-family="Times,serif" font-size="14.00"> </text>
<polygon fill="none" stroke="black" points="28,-2166 28,-2188 245,-2188 245,-2166 28,-2166"/>
<text text-anchor="start" x="78.38" y="-2171.7" font-family="Times,serif" font-size="14.00">network_external_url</text>
<polygon fill="none" stroke="black" points="8,-2144 8,-2166 28,-2166 28,-2144 8,-2144"/>
<text text-anchor="start" x="16.12" y="-2149.7" font-family="Times,serif" font-size="14.00"> </text>
<polygon fill="none" stroke="black" points="28,-2144 28,-2166 245,-2166 245,-2144 28,-2144"/>
<text text-anchor="start" x="66.75" y="-2149.7" font-family="Times,serif" font-size="14.00">billing_enterprise_license</text>
</g>
<!-- user_completions -->
<g id="node13" class="node">
<title>user_completions</title>
<polygon fill="none" stroke="black" points="73,-1544 73,-1566 180,-1566 180,-1544 73,-1544"/>
<text text-anchor="start" x="75.88" y="-1550.7" font-family="Times,serif" font-weight="bold" font-size="14.00">user_completions</text>
<polygon fill="none" stroke="black" points="73,-1520 73,-1544 94,-1544 94,-1520 73,-1520"/>
<text text-anchor="start" x="76.38" y="-1527.7" font-family="Times,serif" font-size="14.00">🔑</text>
<polygon fill="none" stroke="black" points="94,-1520 94,-1544 180,-1544 180,-1520 94,-1520"/>
<text text-anchor="start" x="131.75" y="-1526.95" font-family="Times,serif" font-size="14.00">id</text>
<polygon fill="none" stroke="black" points="73,-1498 73,-1520 94,-1520 94,-1498 73,-1498"/>
<text text-anchor="start" x="81.62" y="-1503.7" font-family="Times,serif" font-size="14.00"> </text>
<polygon fill="none" stroke="black" points="94,-1498 94,-1520 180,-1520 180,-1498 94,-1498"/>
<text text-anchor="start" x="117.12" y="-1503.7" font-family="Times,serif" font-size="14.00">user_id</text>
<polygon fill="none" stroke="black" points="73,-1476 73,-1498 94,-1498 94,-1476 73,-1476"/>
<text text-anchor="start" x="81.62" y="-1481.7" font-family="Times,serif" font-size="14.00"> </text>
<polygon fill="none" stroke="black" points="94,-1476 94,-1498 180,-1498 180,-1476 94,-1476"/>
<text text-anchor="start" x="97.62" y="-1481.7" font-family="Times,serif" font-size="14.00">completion_id</text>
<polygon fill="none" stroke="black" points="73,-1454 73,-1476 94,-1476 94,-1454 73,-1454"/>
<text text-anchor="start" x="81.62" y="-1459.7" font-family="Times,serif" font-size="14.00"> </text>
<polygon fill="none" stroke="black" points="94,-1454 94,-1476 180,-1476 180,-1454 94,-1454"/>
<text text-anchor="start" x="112.62" y="-1459.7" font-family="Times,serif" font-size="14.00">language</text>
<polygon fill="none" stroke="black" points="73,-1432 73,-1454 94,-1454 94,-1432 73,-1432"/>
<text text-anchor="start" x="81.62" y="-1437.7" font-family="Times,serif" font-size="14.00"> </text>
<polygon fill="none" stroke="black" points="94,-1432 94,-1454 180,-1454 180,-1432 94,-1432"/>
<text text-anchor="start" x="121.25" y="-1437.7" font-family="Times,serif" font-size="14.00">views</text>
<polygon fill="none" stroke="black" points="73,-1410 73,-1432 94,-1432 94,-1410 73,-1410"/>
<text text-anchor="start" x="81.62" y="-1415.7" font-family="Times,serif" font-size="14.00"> </text>
<polygon fill="none" stroke="black" points="94,-1410 94,-1432 180,-1432 180,-1410 94,-1410"/>
<text text-anchor="start" x="119" y="-1415.7" font-family="Times,serif" font-size="14.00">selects</text>
<polygon fill="none" stroke="black" points="73,-1388 73,-1410 94,-1410 94,-1388 73,-1388"/>
<text text-anchor="start" x="81.62" y="-1393.7" font-family="Times,serif" font-size="14.00"> </text>
<polygon fill="none" stroke="black" points="94,-1388 94,-1410 180,-1410 180,-1388 94,-1388"/>
<text text-anchor="start" x="110.75" y="-1393.7" font-family="Times,serif" font-size="14.00">dismisses</text>
<polygon fill="none" stroke="black" points="73,-1366 73,-1388 94,-1388 94,-1366 73,-1366"/>
<text text-anchor="start" x="81.62" y="-1371.7" font-family="Times,serif" font-size="14.00"> </text>
<polygon fill="none" stroke="black" points="94,-1366 94,-1388 180,-1388 180,-1366 94,-1366"/>
<text text-anchor="start" x="109.25" y="-1371.7" font-family="Times,serif" font-size="14.00">created_at</text>
<polygon fill="none" stroke="black" points="73,-1344 73,-1366 94,-1366 94,-1344 73,-1344"/>
<text text-anchor="start" x="81.62" y="-1349.7" font-family="Times,serif" font-size="14.00"> </text>
<polygon fill="none" stroke="black" points="94,-1344 94,-1366 180,-1366 180,-1344 94,-1344"/>
<text text-anchor="start" x="107.38" y="-1349.7" font-family="Times,serif" font-size="14.00">updated_at</text>
</g>
<!-- user_completions&#45;&gt;users -->
<g id="edge4" class="edge">
<title>user_completions:e&#45;&gt;users:w</title>
<path fill="none" stroke="black" d="M181.5,-1509C244.7,-1509 243.19,-1579.61 298.55,-1588.16"/>
<polygon fill="black" stroke="black" points="298.26,-1591.64 308.49,-1588.89 298.78,-1584.66 298.26,-1591.64"/>
</g>
<!-- user_events -->
<g id="node14" class="node">
<title>user_events</title>
<polygon fill="none" stroke="black" points="86,-1296 86,-1318 167,-1318 167,-1296 86,-1296"/>
<text text-anchor="start" x="92.75" y="-1302.7" font-family="Times,serif" font-weight="bold" font-size="14.00">user_events</text>
<polygon fill="none" stroke="black" points="86,-1272 86,-1296 106,-1296 106,-1272 86,-1272"/>
<text text-anchor="start" x="88.88" y="-1279.7" font-family="Times,serif" font-size="14.00">🔑</text>
<polygon fill="none" stroke="black" points="106,-1272 106,-1296 167,-1296 167,-1272 106,-1272"/>
<text text-anchor="start" x="131.25" y="-1278.95" font-family="Times,serif" font-size="14.00">id</text>
<polygon fill="none" stroke="black" points="86,-1250 86,-1272 106,-1272 106,-1250 86,-1250"/>
<text text-anchor="start" x="94.12" y="-1255.7" font-family="Times,serif" font-size="14.00"> </text>
<polygon fill="none" stroke="black" points="106,-1250 106,-1272 167,-1272 167,-1250 106,-1250"/>
<text text-anchor="start" x="116.62" y="-1255.7" font-family="Times,serif" font-size="14.00">user_id</text>
<polygon fill="none" stroke="black" points="86,-1228 86,-1250 106,-1250 106,-1228 86,-1228"/>
<text text-anchor="start" x="94.12" y="-1233.7" font-family="Times,serif" font-size="14.00"> </text>
<polygon fill="none" stroke="black" points="106,-1228 106,-1250 167,-1250 167,-1228 106,-1228"/>
<text text-anchor="start" x="124.5" y="-1233.7" font-family="Times,serif" font-size="14.00">kind</text>
<polygon fill="none" stroke="black" points="86,-1206 86,-1228 106,-1228 106,-1206 86,-1206"/>
<text text-anchor="start" x="94.12" y="-1211.7" font-family="Times,serif" font-size="14.00"> </text>
<polygon fill="none" stroke="black" points="106,-1206 106,-1228 167,-1228 167,-1206 106,-1206"/>
<text text-anchor="start" x="108.75" y="-1211.7" font-family="Times,serif" font-size="14.00">created_at</text>
<polygon fill="none" stroke="black" points="86,-1184 86,-1206 106,-1206 106,-1184 86,-1184"/>
<text text-anchor="start" x="94.12" y="-1189.7" font-family="Times,serif" font-size="14.00"> </text>
<polygon fill="none" stroke="black" points="106,-1184 106,-1206 167,-1206 167,-1184 106,-1184"/>
<text text-anchor="start" x="115.12" y="-1189.7" font-family="Times,serif" font-size="14.00">payload</text>
</g>
<!-- user_events&#45;&gt;users -->
<g id="edge1" class="edge">
<title>user_events:e&#45;&gt;users:w</title>
<path fill="none" stroke="black" d="M168.5,-1261C217.27,-1261 227.58,-1289.38 253,-1331 312.11,-1427.8 200.67,-1578.28 298.78,-1588.46"/>
<polygon fill="black" stroke="black" points="298.33,-1591.94 308.49,-1588.93 298.67,-1584.95 298.33,-1591.94"/>
</g>
</g>
</svg>
