<?xml version="1.0" encoding="UTF-8" standalone="no"?>
<!DOCTYPE svg PUBLIC "-//W3C//DTD SVG 1.1//EN"
 "http://www.w3.org/Graphics/SVG/1.1/DTD/svg11.dtd">
<!-- Generated by graphviz version 10.0.1 (20240210.2158)
 -->
<!-- Title: structs Pages: 1 -->
<svg width="479pt" height="2610pt"
 viewBox="0.00 0.00 479.00 2610.00" xmlns="http://www.w3.org/2000/svg" xmlns:xlink="http://www.w3.org/1999/xlink">
<g id="graph0" class="graph" transform="scale(1 1) rotate(0) translate(4 2606)">
<title>structs</title>
<polygon fill="white" stroke="none" points="-4,4 -4,-2606 475,-2606 475,4 -4,4"/>
<!-- _sqlx_migrations -->
<g id="node1" class="node">
<title>_sqlx_migrations</title>
<polygon fill="none" stroke="black" points="71.5,-138 71.5,-160 181.5,-160 181.5,-138 71.5,-138"/>
<text text-anchor="start" x="76.62" y="-144.7" font-family="Times,serif" font-weight="bold" font-size="14.00">_sqlx_migrations</text>
<polygon fill="none" stroke="black" points="71.5,-114 71.5,-138 91.5,-138 91.5,-114 71.5,-114"/>
<text text-anchor="start" x="74.38" y="-121.7" font-family="Times,serif" font-size="14.00">🔑</text>
<polygon fill="none" stroke="black" points="91.5,-114 91.5,-138 181.5,-138 181.5,-114 91.5,-114"/>
<text text-anchor="start" x="116.62" y="-120.95" font-family="Times,serif" font-size="14.00">version</text>
<polygon fill="none" stroke="black" points="71.5,-92 71.5,-114 91.5,-114 91.5,-92 71.5,-92"/>
<text text-anchor="start" x="79.62" y="-97.7" font-family="Times,serif" font-size="14.00"> </text>
<polygon fill="none" stroke="black" points="91.5,-92 91.5,-114 181.5,-114 181.5,-92 91.5,-92"/>
<text text-anchor="start" x="106.5" y="-97.7" font-family="Times,serif" font-size="14.00">description</text>
<polygon fill="none" stroke="black" points="71.5,-70 71.5,-92 91.5,-92 91.5,-70 71.5,-70"/>
<text text-anchor="start" x="79.62" y="-75.7" font-family="Times,serif" font-size="14.00"> </text>
<polygon fill="none" stroke="black" points="91.5,-70 91.5,-92 181.5,-92 181.5,-70 91.5,-70"/>
<text text-anchor="start" x="103.5" y="-75.7" font-family="Times,serif" font-size="14.00">installed_on</text>
<polygon fill="none" stroke="black" points="71.5,-48 71.5,-70 91.5,-70 91.5,-48 71.5,-48"/>
<text text-anchor="start" x="79.62" y="-53.7" font-family="Times,serif" font-size="14.00"> </text>
<polygon fill="none" stroke="black" points="91.5,-48 91.5,-70 181.5,-70 181.5,-48 91.5,-48"/>
<text text-anchor="start" x="116.25" y="-53.7" font-family="Times,serif" font-size="14.00">success</text>
<polygon fill="none" stroke="black" points="71.5,-26 71.5,-48 91.5,-48 91.5,-26 71.5,-26"/>
<text text-anchor="start" x="79.62" y="-31.7" font-family="Times,serif" font-size="14.00"> </text>
<polygon fill="none" stroke="black" points="91.5,-26 91.5,-48 181.5,-48 181.5,-26 91.5,-26"/>
<text text-anchor="start" x="109.12" y="-31.7" font-family="Times,serif" font-size="14.00">checksum</text>
<polygon fill="none" stroke="black" points="71.5,-4 71.5,-26 91.5,-26 91.5,-4 71.5,-4"/>
<text text-anchor="start" x="79.62" y="-9.7" font-family="Times,serif" font-size="14.00"> </text>
<polygon fill="none" stroke="black" points="91.5,-4 91.5,-26 181.5,-26 181.5,-4 91.5,-4"/>
<text text-anchor="start" x="94.5" y="-9.7" font-family="Times,serif" font-size="14.00">execution_time</text>
</g>
<!-- email_setting -->
<g id="node2" class="node">
<title>email_setting</title>
<polygon fill="none" stroke="black" points="70.5,-364 70.5,-386 182.5,-386 182.5,-364 70.5,-364"/>
<text text-anchor="start" x="87.88" y="-370.7" font-family="Times,serif" font-weight="bold" font-size="14.00">email_setting</text>
<polygon fill="none" stroke="black" points="70.5,-340 70.5,-364 90.5,-364 90.5,-340 70.5,-340"/>
<text text-anchor="start" x="73.38" y="-347.7" font-family="Times,serif" font-size="14.00">🔑</text>
<polygon fill="none" stroke="black" points="90.5,-340 90.5,-364 182.5,-364 182.5,-340 90.5,-340"/>
<text text-anchor="start" x="131.25" y="-346.95" font-family="Times,serif" font-size="14.00">id</text>
<polygon fill="none" stroke="black" points="70.5,-318 70.5,-340 90.5,-340 90.5,-318 70.5,-318"/>
<text text-anchor="start" x="78.62" y="-323.7" font-family="Times,serif" font-size="14.00"> </text>
<polygon fill="none" stroke="black" points="90.5,-318 90.5,-340 182.5,-340 182.5,-318 90.5,-318"/>
<text text-anchor="start" x="93.38" y="-323.7" font-family="Times,serif" font-size="14.00">smtp_username</text>
<polygon fill="none" stroke="black" points="70.5,-296 70.5,-318 90.5,-318 90.5,-296 70.5,-296"/>
<text text-anchor="start" x="78.62" y="-301.7" font-family="Times,serif" font-size="14.00"> </text>
<polygon fill="none" stroke="black" points="90.5,-296 90.5,-318 182.5,-318 182.5,-296 90.5,-296"/>
<text text-anchor="start" x="94.12" y="-301.7" font-family="Times,serif" font-size="14.00">smtp_password</text>
<polygon fill="none" stroke="black" points="70.5,-274 70.5,-296 90.5,-296 90.5,-274 70.5,-274"/>
<text text-anchor="start" x="78.62" y="-279.7" font-family="Times,serif" font-size="14.00"> </text>
<polygon fill="none" stroke="black" points="90.5,-274 90.5,-296 182.5,-296 182.5,-274 90.5,-274"/>
<text text-anchor="start" x="103.12" y="-279.7" font-family="Times,serif" font-size="14.00">smtp_server</text>
<polygon fill="none" stroke="black" points="70.5,-252 70.5,-274 90.5,-274 90.5,-252 70.5,-252"/>
<text text-anchor="start" x="78.62" y="-257.7" font-family="Times,serif" font-size="14.00"> </text>
<polygon fill="none" stroke="black" points="90.5,-252 90.5,-274 182.5,-274 182.5,-252 90.5,-252"/>
<text text-anchor="start" x="99.38" y="-257.7" font-family="Times,serif" font-size="14.00">from_address</text>
<polygon fill="none" stroke="black" points="70.5,-230 70.5,-252 90.5,-252 90.5,-230 70.5,-230"/>
<text text-anchor="start" x="78.62" y="-235.7" font-family="Times,serif" font-size="14.00"> </text>
<polygon fill="none" stroke="black" points="90.5,-230 90.5,-252 182.5,-252 182.5,-230 90.5,-230"/>
<text text-anchor="start" x="107.62" y="-235.7" font-family="Times,serif" font-size="14.00">encryption</text>
<polygon fill="none" stroke="black" points="70.5,-208 70.5,-230 90.5,-230 90.5,-208 70.5,-208"/>
<text text-anchor="start" x="78.62" y="-213.7" font-family="Times,serif" font-size="14.00"> </text>
<polygon fill="none" stroke="black" points="90.5,-208 90.5,-230 182.5,-230 182.5,-208 90.5,-208"/>
<text text-anchor="start" x="100.88" y="-213.7" font-family="Times,serif" font-size="14.00">auth_method</text>
<polygon fill="none" stroke="black" points="70.5,-186 70.5,-208 90.5,-208 90.5,-186 70.5,-186"/>
<text text-anchor="start" x="78.62" y="-191.7" font-family="Times,serif" font-size="14.00"> </text>
<polygon fill="none" stroke="black" points="90.5,-186 90.5,-208 182.5,-208 182.5,-186 90.5,-186"/>
<text text-anchor="start" x="108.75" y="-191.7" font-family="Times,serif" font-size="14.00">smtp_port</text>
</g>
<!-- github_oauth_credential -->
<g id="node3" class="node">
<title>github_oauth_credential</title>
<polygon fill="none" stroke="black" points="53,-524 53,-546 200,-546 200,-524 53,-524"/>
<text text-anchor="start" x="55.62" y="-530.7" font-family="Times,serif" font-weight="bold" font-size="14.00">github_oauth_credential</text>
<polygon fill="none" stroke="black" points="53,-500 53,-524 99,-524 99,-500 53,-500"/>
<text text-anchor="start" x="68.88" y="-507.7" font-family="Times,serif" font-size="14.00">🔑</text>
<polygon fill="none" stroke="black" points="99,-500 99,-524 200,-524 200,-500 99,-500"/>
<text text-anchor="start" x="144.25" y="-506.95" font-family="Times,serif" font-size="14.00">id</text>
<polygon fill="none" stroke="black" points="53,-478 53,-500 99,-500 99,-478 53,-478"/>
<text text-anchor="start" x="74.12" y="-483.7" font-family="Times,serif" font-size="14.00"> </text>
<polygon fill="none" stroke="black" points="99,-478 99,-500 200,-500 200,-478 99,-478"/>
<text text-anchor="start" x="125.88" y="-483.7" font-family="Times,serif" font-size="14.00">client_id</text>
<polygon fill="none" stroke="black" points="53,-456 53,-478 99,-478 99,-456 53,-456"/>
<text text-anchor="start" x="74.12" y="-461.7" font-family="Times,serif" font-size="14.00"> </text>
<polygon fill="none" stroke="black" points="99,-456 99,-478 200,-478 200,-456 99,-456"/>
<text text-anchor="start" x="115.38" y="-461.7" font-family="Times,serif" font-size="14.00">client_secret</text>
<polygon fill="none" stroke="black" points="53,-434 53,-456 99,-456 99,-434 53,-434"/>
<text text-anchor="start" x="74.12" y="-439.7" font-family="Times,serif" font-size="14.00"> </text>
<polygon fill="none" stroke="black" points="99,-434 99,-456 200,-456 200,-434 99,-434"/>
<text text-anchor="start" x="121.75" y="-439.7" font-family="Times,serif" font-size="14.00">created_at</text>
<polygon fill="none" stroke="black" points="53,-412 53,-434 99,-434 99,-412 53,-412"/>
<text text-anchor="start" x="74.12" y="-417.7" font-family="Times,serif" font-size="14.00"> </text>
<polygon fill="none" stroke="black" points="99,-412 99,-434 200,-434 200,-412 99,-412"/>
<text text-anchor="start" x="119.88" y="-417.7" font-family="Times,serif" font-size="14.00">updated_at</text>
</g>
<!-- github_provided_repositories -->
<g id="node4" class="node">
<title>github_provided_repositories</title>
<polygon fill="none" stroke="black" points="31,-728 31,-750 222,-750 222,-728 31,-728"/>
<text text-anchor="start" x="41.38" y="-734.7" font-family="Times,serif" font-weight="bold" font-size="14.00">github_provided_repositories</text>
<polygon fill="none" stroke="black" points="31,-704 31,-728 51,-728 51,-704 31,-704"/>
<text text-anchor="start" x="33.88" y="-711.7" font-family="Times,serif" font-size="14.00">🔑</text>
<polygon fill="none" stroke="black" points="51,-704 51,-728 222,-728 222,-704 51,-704"/>
<text text-anchor="start" x="131.25" y="-710.95" font-family="Times,serif" font-size="14.00">id</text>
<polygon fill="none" stroke="black" points="31,-682 31,-704 51,-704 51,-682 31,-682"/>
<text text-anchor="start" x="39.12" y="-687.7" font-family="Times,serif" font-size="14.00"> </text>
<polygon fill="none" stroke="black" points="51,-682 51,-704 222,-704 222,-682 51,-682"/>
<text text-anchor="start" x="53.62" y="-687.7" font-family="Times,serif" font-size="14.00">github_repository_provider_id</text>
<polygon fill="none" stroke="black" points="31,-660 31,-682 51,-682 51,-660 31,-660"/>
<text text-anchor="start" x="39.12" y="-665.7" font-family="Times,serif" font-size="14.00"> </text>
<polygon fill="none" stroke="black" points="51,-660 51,-682 222,-682 222,-660 51,-660"/>
<text text-anchor="start" x="109.12" y="-665.7" font-family="Times,serif" font-size="14.00">vendor_id</text>
<polygon fill="none" stroke="black" points="31,-638 31,-660 51,-660 51,-638 31,-638"/>
<text text-anchor="start" x="39.12" y="-643.7" font-family="Times,serif" font-size="14.00"> </text>
<polygon fill="none" stroke="black" points="51,-638 51,-660 222,-660 222,-638 51,-638"/>
<text text-anchor="start" x="121.5" y="-643.7" font-family="Times,serif" font-size="14.00">name</text>
<polygon fill="none" stroke="black" points="31,-616 31,-638 51,-638 51,-616 31,-616"/>
<text text-anchor="start" x="39.12" y="-621.7" font-family="Times,serif" font-size="14.00"> </text>
<polygon fill="none" stroke="black" points="51,-616 51,-638 222,-638 222,-616 51,-616"/>
<text text-anchor="start" x="118.5" y="-621.7" font-family="Times,serif" font-size="14.00">git_url</text>
<polygon fill="none" stroke="black" points="31,-594 31,-616 51,-616 51,-594 31,-594"/>
<text text-anchor="start" x="39.12" y="-599.7" font-family="Times,serif" font-size="14.00"> </text>
<polygon fill="none" stroke="black" points="51,-594 51,-616 222,-616 222,-594 51,-594"/>
<text text-anchor="start" x="120.38" y="-599.7" font-family="Times,serif" font-size="14.00">active</text>
<polygon fill="none" stroke="black" points="31,-572 31,-594 51,-594 51,-572 31,-572"/>
<text text-anchor="start" x="39.12" y="-577.7" font-family="Times,serif" font-size="14.00"> </text>
<polygon fill="none" stroke="black" points="51,-572 51,-594 222,-594 222,-572 51,-572"/>
<text text-anchor="start" x="106.88" y="-577.7" font-family="Times,serif" font-size="14.00">updated_at</text>
</g>
<!-- github_repository_provider -->
<g id="node5" class="node">
<title>github_repository_provider</title>
<polygon fill="none" stroke="black" points="297,-705 297,-727 463,-727 463,-705 297,-705"/>
<text text-anchor="start" x="299.75" y="-711.7" font-family="Times,serif" font-weight="bold" font-size="14.00">github_repository_provider</text>
<polygon fill="none" stroke="black" points="297,-681 297,-705 348,-705 348,-681 297,-681"/>
<text text-anchor="start" x="315.38" y="-688.7" font-family="Times,serif" font-size="14.00">🔑</text>
<polygon fill="none" stroke="black" points="348,-681 348,-705 463,-705 463,-681 348,-681"/>
<text text-anchor="start" x="400.25" y="-687.95" font-family="Times,serif" font-size="14.00">id</text>
<polygon fill="none" stroke="black" points="297,-659 297,-681 348,-681 348,-659 297,-659"/>
<text text-anchor="start" x="320.62" y="-664.7" font-family="Times,serif" font-size="14.00"> </text>
<polygon fill="none" stroke="black" points="348,-659 348,-681 463,-681 463,-659 348,-659"/>
<text text-anchor="start" x="367.62" y="-664.7" font-family="Times,serif" font-size="14.00">display_name</text>
<polygon fill="none" stroke="black" points="297,-637 297,-659 348,-659 348,-637 297,-637"/>
<text text-anchor="start" x="320.62" y="-642.7" font-family="Times,serif" font-size="14.00"> </text>
<polygon fill="none" stroke="black" points="348,-637 348,-659 463,-659 463,-637 348,-637"/>
<text text-anchor="start" x="366.88" y="-642.7" font-family="Times,serif" font-size="14.00">application_id</text>
<polygon fill="none" stroke="black" points="297,-615 297,-637 348,-637 348,-615 297,-615"/>
<text text-anchor="start" x="320.62" y="-620.7" font-family="Times,serif" font-size="14.00"> </text>
<polygon fill="none" stroke="black" points="348,-615 348,-637 463,-637 463,-615 348,-615"/>
<text text-anchor="start" x="389.75" y="-620.7" font-family="Times,serif" font-size="14.00">secret</text>
<polygon fill="none" stroke="black" points="297,-593 297,-615 348,-615 348,-593 297,-593"/>
<text text-anchor="start" x="320.62" y="-598.7" font-family="Times,serif" font-size="14.00"> </text>
<polygon fill="none" stroke="black" points="348,-593 348,-615 463,-615 463,-593 348,-593"/>
<text text-anchor="start" x="369.88" y="-598.7" font-family="Times,serif" font-size="14.00">access_token</text>
</g>
<!-- github_provided_repositories&#45;&gt;github_repository_provider -->
<g id="edge3" class="edge">
<title>github_provided_repositories:e&#45;&gt;github_repository_provider:w</title>
<path fill="none" stroke="black" d="M223.5,-693C251.57,-693 261.3,-693 284.64,-693"/>
<polygon fill="black" stroke="black" points="284.49,-696.5 294.49,-693 284.49,-689.5 284.49,-696.5"/>
</g>
<!-- google_oauth_credential -->
<g id="node6" class="node">
<title>google_oauth_credential</title>
<polygon fill="none" stroke="black" points="53,-888 53,-910 200,-910 200,-888 53,-888"/>
<text text-anchor="start" x="56" y="-894.7" font-family="Times,serif" font-weight="bold" font-size="14.00">google_oauth_credential</text>
<polygon fill="none" stroke="black" points="53,-864 53,-888 99,-888 99,-864 53,-864"/>
<text text-anchor="start" x="68.88" y="-871.7" font-family="Times,serif" font-size="14.00">🔑</text>
<polygon fill="none" stroke="black" points="99,-864 99,-888 200,-888 200,-864 99,-864"/>
<text text-anchor="start" x="144.25" y="-870.95" font-family="Times,serif" font-size="14.00">id</text>
<polygon fill="none" stroke="black" points="53,-842 53,-864 99,-864 99,-842 53,-842"/>
<text text-anchor="start" x="74.12" y="-847.7" font-family="Times,serif" font-size="14.00"> </text>
<polygon fill="none" stroke="black" points="99,-842 99,-864 200,-864 200,-842 99,-842"/>
<text text-anchor="start" x="125.88" y="-847.7" font-family="Times,serif" font-size="14.00">client_id</text>
<polygon fill="none" stroke="black" points="53,-820 53,-842 99,-842 99,-820 53,-820"/>
<text text-anchor="start" x="74.12" y="-825.7" font-family="Times,serif" font-size="14.00"> </text>
<polygon fill="none" stroke="black" points="99,-820 99,-842 200,-842 200,-820 99,-820"/>
<text text-anchor="start" x="115.38" y="-825.7" font-family="Times,serif" font-size="14.00">client_secret</text>
<polygon fill="none" stroke="black" points="53,-798 53,-820 99,-820 99,-798 53,-798"/>
<text text-anchor="start" x="74.12" y="-803.7" font-family="Times,serif" font-size="14.00"> </text>
<polygon fill="none" stroke="black" points="99,-798 99,-820 200,-820 200,-798 99,-798"/>
<text text-anchor="start" x="121.75" y="-803.7" font-family="Times,serif" font-size="14.00">created_at</text>
<polygon fill="none" stroke="black" points="53,-776 53,-798 99,-798 99,-776 53,-776"/>
<text text-anchor="start" x="74.12" y="-781.7" font-family="Times,serif" font-size="14.00"> </text>
<polygon fill="none" stroke="black" points="99,-776 99,-798 200,-798 200,-776 99,-776"/>
<text text-anchor="start" x="119.88" y="-781.7" font-family="Times,serif" font-size="14.00">updated_at</text>
</g>
<!-- invitations -->
<g id="node7" class="node">
<title>invitations</title>
<polygon fill="none" stroke="black" points="86,-1026 86,-1048 167,-1048 167,-1026 86,-1026"/>
<text text-anchor="start" x="96.12" y="-1032.7" font-family="Times,serif" font-weight="bold" font-size="14.00">invitations</text>
<polygon fill="none" stroke="black" points="86,-1002 86,-1026 106,-1026 106,-1002 86,-1002"/>
<text text-anchor="start" x="88.88" y="-1009.7" font-family="Times,serif" font-size="14.00">🔑</text>
<polygon fill="none" stroke="black" points="106,-1002 106,-1026 167,-1026 167,-1002 106,-1002"/>
<text text-anchor="start" x="131.25" y="-1008.95" font-family="Times,serif" font-size="14.00">id</text>
<polygon fill="none" stroke="black" points="86,-980 86,-1002 106,-1002 106,-980 86,-980"/>
<text text-anchor="start" x="94.12" y="-985.7" font-family="Times,serif" font-size="14.00"> </text>
<polygon fill="none" stroke="black" points="106,-980 106,-1002 167,-1002 167,-980 106,-980"/>
<text text-anchor="start" x="121.12" y="-985.7" font-family="Times,serif" font-size="14.00">email</text>
<polygon fill="none" stroke="black" points="86,-958 86,-980 106,-980 106,-958 86,-958"/>
<text text-anchor="start" x="94.12" y="-963.7" font-family="Times,serif" font-size="14.00"> </text>
<polygon fill="none" stroke="black" points="106,-958 106,-980 167,-980 167,-958 106,-958"/>
<text text-anchor="start" x="123.75" y="-963.7" font-family="Times,serif" font-size="14.00">code</text>
<polygon fill="none" stroke="black" points="86,-936 86,-958 106,-958 106,-936 86,-936"/>
<text text-anchor="start" x="94.12" y="-941.7" font-family="Times,serif" font-size="14.00"> </text>
<polygon fill="none" stroke="black" points="106,-936 106,-958 167,-958 167,-936 106,-936"/>
<text text-anchor="start" x="108.75" y="-941.7" font-family="Times,serif" font-size="14.00">created_at</text>
</g>
<!-- job_runs -->
<g id="node8" class="node">
<title>job_runs</title>
<polygon fill="none" stroke="black" points="84,-1274 84,-1296 169,-1296 169,-1274 84,-1274"/>
<text text-anchor="start" x="100.62" y="-1280.7" font-family="Times,serif" font-weight="bold" font-size="14.00">job_runs</text>
<polygon fill="none" stroke="black" points="84,-1250 84,-1274 104,-1274 104,-1250 84,-1250"/>
<text text-anchor="start" x="86.88" y="-1257.7" font-family="Times,serif" font-size="14.00">🔑</text>
<polygon fill="none" stroke="black" points="104,-1250 104,-1274 169,-1274 169,-1250 104,-1250"/>
<text text-anchor="start" x="131.25" y="-1256.95" font-family="Times,serif" font-size="14.00">id</text>
<polygon fill="none" stroke="black" points="84,-1228 84,-1250 104,-1250 104,-1228 84,-1228"/>
<text text-anchor="start" x="92.12" y="-1233.7" font-family="Times,serif" font-size="14.00"> </text>
<polygon fill="none" stroke="black" points="104,-1228 104,-1250 169,-1250 169,-1228 104,-1228"/>
<text text-anchor="start" x="127.88" y="-1233.7" font-family="Times,serif" font-size="14.00">job</text>
<polygon fill="none" stroke="black" points="84,-1206 84,-1228 104,-1228 104,-1206 84,-1206"/>
<text text-anchor="start" x="92.12" y="-1211.7" font-family="Times,serif" font-size="14.00"> </text>
<polygon fill="none" stroke="black" points="104,-1206 104,-1228 169,-1228 169,-1206 104,-1206"/>
<text text-anchor="start" x="117" y="-1211.7" font-family="Times,serif" font-size="14.00">start_ts</text>
<polygon fill="none" stroke="black" points="84,-1184 84,-1206 104,-1206 104,-1184 84,-1184"/>
<text text-anchor="start" x="92.12" y="-1189.7" font-family="Times,serif" font-size="14.00"> </text>
<polygon fill="none" stroke="black" points="104,-1184 104,-1206 169,-1206 169,-1184 104,-1184"/>
<text text-anchor="start" x="118.88" y="-1189.7" font-family="Times,serif" font-size="14.00">end_ts</text>
<polygon fill="none" stroke="black" points="84,-1162 84,-1184 104,-1184 104,-1162 84,-1162"/>
<text text-anchor="start" x="92.12" y="-1167.7" font-family="Times,serif" font-size="14.00"> </text>
<polygon fill="none" stroke="black" points="104,-1162 104,-1184 169,-1184 169,-1162 104,-1162"/>
<text text-anchor="start" x="110.25" y="-1167.7" font-family="Times,serif" font-size="14.00">exit_code</text>
<polygon fill="none" stroke="black" points="84,-1140 84,-1162 104,-1162 104,-1140 84,-1140"/>
<text text-anchor="start" x="92.12" y="-1145.7" font-family="Times,serif" font-size="14.00"> </text>
<polygon fill="none" stroke="black" points="104,-1140 104,-1162 169,-1162 169,-1140 104,-1140"/>
<text text-anchor="start" x="120" y="-1145.7" font-family="Times,serif" font-size="14.00">stdout</text>
<polygon fill="none" stroke="black" points="84,-1118 84,-1140 104,-1140 104,-1118 84,-1118"/>
<text text-anchor="start" x="92.12" y="-1123.7" font-family="Times,serif" font-size="14.00"> </text>
<polygon fill="none" stroke="black" points="104,-1118 104,-1140 169,-1140 169,-1118 104,-1118"/>
<text text-anchor="start" x="121.12" y="-1123.7" font-family="Times,serif" font-size="14.00">stderr</text>
<polygon fill="none" stroke="black" points="84,-1096 84,-1118 104,-1118 104,-1096 84,-1096"/>
<text text-anchor="start" x="92.12" y="-1101.7" font-family="Times,serif" font-size="14.00"> </text>
<polygon fill="none" stroke="black" points="104,-1096 104,-1118 169,-1118 169,-1096 104,-1096"/>
<text text-anchor="start" x="108.75" y="-1101.7" font-family="Times,serif" font-size="14.00">created_at</text>
<polygon fill="none" stroke="black" points="84,-1074 84,-1096 104,-1096 104,-1074 84,-1074"/>
<text text-anchor="start" x="92.12" y="-1079.7" font-family="Times,serif" font-size="14.00"> </text>
<polygon fill="none" stroke="black" points="104,-1074 104,-1096 169,-1096 169,-1074 104,-1074"/>
<text text-anchor="start" x="106.88" y="-1079.7" font-family="Times,serif" font-size="14.00">updated_at</text>
</g>
<!-- oauth_credential -->
<g id="node9" class="node">
<title>oauth_credential</title>
<polygon fill="none" stroke="black" points="75,-1456 75,-1478 178,-1478 178,-1456 75,-1456"/>
<text text-anchor="start" x="77.75" y="-1462.7" font-family="Times,serif" font-weight="bold" font-size="14.00">oauth_credential</text>
<polygon fill="none" stroke="black" points="75,-1432 75,-1456 99,-1456 99,-1432 75,-1432"/>
<text text-anchor="start" x="79.88" y="-1439.7" font-family="Times,serif" font-size="14.00">🔑</text>
<polygon fill="none" stroke="black" points="99,-1432 99,-1456 178,-1456 178,-1432 99,-1432"/>
<text text-anchor="start" x="133.25" y="-1438.95" font-family="Times,serif" font-size="14.00">id</text>
<polygon fill="none" stroke="black" points="75,-1410 75,-1432 99,-1432 99,-1410 75,-1410"/>
<text text-anchor="start" x="85.12" y="-1415.7" font-family="Times,serif" font-size="14.00"> </text>
<polygon fill="none" stroke="black" points="99,-1410 99,-1432 178,-1432 178,-1410 99,-1410"/>
<text text-anchor="start" x="115.62" y="-1415.7" font-family="Times,serif" font-size="14.00">provider</text>
<polygon fill="none" stroke="black" points="75,-1388 75,-1410 99,-1410 99,-1388 75,-1388"/>
<text text-anchor="start" x="85.12" y="-1393.7" font-family="Times,serif" font-size="14.00"> </text>
<polygon fill="none" stroke="black" points="99,-1388 99,-1410 178,-1410 178,-1388 99,-1388"/>
<text text-anchor="start" x="114.88" y="-1393.7" font-family="Times,serif" font-size="14.00">client_id</text>
<polygon fill="none" stroke="black" points="75,-1366 75,-1388 99,-1388 99,-1366 75,-1366"/>
<text text-anchor="start" x="85.12" y="-1371.7" font-family="Times,serif" font-size="14.00"> </text>
<polygon fill="none" stroke="black" points="99,-1366 99,-1388 178,-1388 178,-1366 99,-1366"/>
<text text-anchor="start" x="104.38" y="-1371.7" font-family="Times,serif" font-size="14.00">client_secret</text>
<polygon fill="none" stroke="black" points="75,-1344 75,-1366 99,-1366 99,-1344 75,-1344"/>
<text text-anchor="start" x="85.12" y="-1349.7" font-family="Times,serif" font-size="14.00"> </text>
<polygon fill="none" stroke="black" points="99,-1344 99,-1366 178,-1366 178,-1344 99,-1344"/>
<text text-anchor="start" x="110.75" y="-1349.7" font-family="Times,serif" font-size="14.00">created_at</text>
<polygon fill="none" stroke="black" points="75,-1322 75,-1344 99,-1344 99,-1322 75,-1322"/>
<text text-anchor="start" x="85.12" y="-1327.7" font-family="Times,serif" font-size="14.00"> </text>
<polygon fill="none" stroke="black" points="99,-1322 99,-1344 178,-1344 178,-1322 99,-1322"/>
<text text-anchor="start" x="108.88" y="-1327.7" font-family="Times,serif" font-size="14.00">updated_at</text>
</g>
<!-- password_reset -->
<g id="node10" class="node">
<title>password_reset</title>
<polygon fill="none" stroke="black" points="79,-1594 79,-1616 174,-1616 174,-1594 79,-1594"/>
<text text-anchor="start" x="81.88" y="-1600.7" font-family="Times,serif" font-weight="bold" font-size="14.00">password_reset</text>
<polygon fill="none" stroke="black" points="79,-1570 79,-1594 106,-1594 106,-1570 79,-1570"/>
<text text-anchor="start" x="85.38" y="-1577.7" font-family="Times,serif" font-size="14.00">🔑</text>
<polygon fill="none" stroke="black" points="106,-1570 106,-1594 174,-1594 174,-1570 106,-1570"/>
<text text-anchor="start" x="134.75" y="-1576.95" font-family="Times,serif" font-size="14.00">id</text>
<polygon fill="none" stroke="black" points="79,-1548 79,-1570 106,-1570 106,-1548 79,-1548"/>
<text text-anchor="start" x="90.62" y="-1553.7" font-family="Times,serif" font-size="14.00"> </text>
<polygon fill="none" stroke="black" points="106,-1548 106,-1570 174,-1570 174,-1548 106,-1548"/>
<text text-anchor="start" x="120.12" y="-1553.7" font-family="Times,serif" font-size="14.00">user_id</text>
<polygon fill="none" stroke="black" points="79,-1526 79,-1548 106,-1548 106,-1526 79,-1526"/>
<text text-anchor="start" x="90.62" y="-1531.7" font-family="Times,serif" font-size="14.00"> </text>
<polygon fill="none" stroke="black" points="106,-1526 106,-1548 174,-1548 174,-1526 106,-1526"/>
<text text-anchor="start" x="127.25" y="-1531.7" font-family="Times,serif" font-size="14.00">code</text>
<polygon fill="none" stroke="black" points="79,-1504 79,-1526 106,-1526 106,-1504 79,-1504"/>
<text text-anchor="start" x="90.62" y="-1509.7" font-family="Times,serif" font-size="14.00"> </text>
<polygon fill="none" stroke="black" points="106,-1504 106,-1526 174,-1526 174,-1504 106,-1504"/>
<text text-anchor="start" x="112.25" y="-1509.7" font-family="Times,serif" font-size="14.00">created_at</text>
</g>
<!-- refresh_tokens -->
<g id="node11" class="node">
<title>refresh_tokens</title>
<polygon fill="none" stroke="black" points="81,-1754 81,-1776 172,-1776 172,-1754 81,-1754"/>
<text text-anchor="start" x="83.75" y="-1760.7" font-family="Times,serif" font-weight="bold" font-size="14.00">refresh_tokens</text>
<polygon fill="none" stroke="black" points="81,-1730 81,-1754 106,-1754 106,-1730 81,-1730"/>
<text text-anchor="start" x="86.38" y="-1737.7" font-family="Times,serif" font-size="14.00">🔑</text>
<polygon fill="none" stroke="black" points="106,-1730 106,-1754 172,-1754 172,-1730 106,-1730"/>
<text text-anchor="start" x="133.75" y="-1736.95" font-family="Times,serif" font-size="14.00">id</text>
<polygon fill="none" stroke="black" points="81,-1708 81,-1730 106,-1730 106,-1708 81,-1708"/>
<text text-anchor="start" x="91.62" y="-1713.7" font-family="Times,serif" font-size="14.00"> </text>
<polygon fill="none" stroke="black" points="106,-1708 106,-1730 172,-1730 172,-1708 106,-1708"/>
<text text-anchor="start" x="119.12" y="-1713.7" font-family="Times,serif" font-size="14.00">user_id</text>
<polygon fill="none" stroke="black" points="81,-1686 81,-1708 106,-1708 106,-1686 81,-1686"/>
<text text-anchor="start" x="91.62" y="-1691.7" font-family="Times,serif" font-size="14.00"> </text>
<polygon fill="none" stroke="black" points="106,-1686 106,-1708 172,-1708 172,-1686 106,-1686"/>
<text text-anchor="start" x="124" y="-1691.7" font-family="Times,serif" font-size="14.00">token</text>
<polygon fill="none" stroke="black" points="81,-1664 81,-1686 106,-1686 106,-1664 81,-1664"/>
<text text-anchor="start" x="91.62" y="-1669.7" font-family="Times,serif" font-size="14.00"> </text>
<polygon fill="none" stroke="black" points="106,-1664 106,-1686 172,-1686 172,-1664 106,-1664"/>
<text text-anchor="start" x="111.25" y="-1669.7" font-family="Times,serif" font-size="14.00">expires_at</text>
<polygon fill="none" stroke="black" points="81,-1642 81,-1664 106,-1664 106,-1642 81,-1642"/>
<text text-anchor="start" x="91.62" y="-1647.7" font-family="Times,serif" font-size="14.00"> </text>
<polygon fill="none" stroke="black" points="106,-1642 106,-1664 172,-1664 172,-1642 106,-1642"/>
<text text-anchor="start" x="111.25" y="-1647.7" font-family="Times,serif" font-size="14.00">created_at</text>
</g>
<!-- registration_token -->
<g id="node12" class="node">
<title>registration_token</title>
<polygon fill="none" stroke="black" points="70.5,-1892 70.5,-1914 182.5,-1914 182.5,-1892 70.5,-1892"/>
<text text-anchor="start" x="73.25" y="-1898.7" font-family="Times,serif" font-weight="bold" font-size="14.00">registration_token</text>
<polygon fill="none" stroke="black" points="70.5,-1868 70.5,-1892 103.5,-1892 103.5,-1868 70.5,-1868"/>
<text text-anchor="start" x="79.88" y="-1875.7" font-family="Times,serif" font-size="14.00">🔑</text>
<polygon fill="none" stroke="black" points="103.5,-1868 103.5,-1892 182.5,-1892 182.5,-1868 103.5,-1868"/>
<text text-anchor="start" x="137.75" y="-1874.95" font-family="Times,serif" font-size="14.00">id</text>
<polygon fill="none" stroke="black" points="70.5,-1846 70.5,-1868 103.5,-1868 103.5,-1846 70.5,-1846"/>
<text text-anchor="start" x="85.12" y="-1851.7" font-family="Times,serif" font-size="14.00"> </text>
<polygon fill="none" stroke="black" points="103.5,-1846 103.5,-1868 182.5,-1868 182.5,-1846 103.5,-1846"/>
<text text-anchor="start" x="128" y="-1851.7" font-family="Times,serif" font-size="14.00">token</text>
<polygon fill="none" stroke="black" points="70.5,-1824 70.5,-1846 103.5,-1846 103.5,-1824 70.5,-1824"/>
<text text-anchor="start" x="85.12" y="-1829.7" font-family="Times,serif" font-size="14.00"> </text>
<polygon fill="none" stroke="black" points="103.5,-1824 103.5,-1846 182.5,-1846 182.5,-1824 103.5,-1824"/>
<text text-anchor="start" x="115.25" y="-1829.7" font-family="Times,serif" font-size="14.00">created_at</text>
<polygon fill="none" stroke="black" points="70.5,-1802 70.5,-1824 103.5,-1824 103.5,-1802 70.5,-1802"/>
<text text-anchor="start" x="85.12" y="-1807.7" font-family="Times,serif" font-size="14.00"> </text>
<polygon fill="none" stroke="black" points="103.5,-1802 103.5,-1824 182.5,-1824 182.5,-1802 103.5,-1802"/>
<text text-anchor="start" x="113.38" y="-1807.7" font-family="Times,serif" font-size="14.00">updated_at</text>
</g>
<!-- repositories -->
<g id="node13" class="node">
<title>repositories</title>
<polygon fill="none" stroke="black" points="90,-2008 90,-2030 163,-2030 163,-2008 90,-2008"/>
<text text-anchor="start" x="92.75" y="-2014.7" font-family="Times,serif" font-weight="bold" font-size="14.00">repositories</text>
<polygon fill="none" stroke="black" points="90,-1984 90,-2008 115,-2008 115,-1984 90,-1984"/>
<text text-anchor="start" x="95.38" y="-1991.7" font-family="Times,serif" font-size="14.00">🔑</text>
<polygon fill="none" stroke="black" points="115,-1984 115,-2008 163,-2008 163,-1984 115,-1984"/>
<text text-anchor="start" x="133.75" y="-1990.95" font-family="Times,serif" font-size="14.00">id</text>
<polygon fill="none" stroke="black" points="90,-1962 90,-1984 115,-1984 115,-1962 90,-1962"/>
<text text-anchor="start" x="100.62" y="-1967.7" font-family="Times,serif" font-size="14.00"> </text>
<polygon fill="none" stroke="black" points="115,-1962 115,-1984 163,-1984 163,-1962 115,-1962"/>
<text text-anchor="start" x="124" y="-1967.7" font-family="Times,serif" font-size="14.00">name</text>
<polygon fill="none" stroke="black" points="90,-1940 90,-1962 115,-1962 115,-1940 90,-1940"/>
<text text-anchor="start" x="100.62" y="-1945.7" font-family="Times,serif" font-size="14.00"> </text>
<polygon fill="none" stroke="black" points="115,-1940 115,-1962 163,-1962 163,-1940 115,-1940"/>
<text text-anchor="start" x="121" y="-1945.7" font-family="Times,serif" font-size="14.00">git_url</text>
</g>
<!-- server_setting -->
<g id="node14" class="node">
<title>server_setting</title>
<polygon fill="none" stroke="black" points="8,-2168 8,-2190 245,-2190 245,-2168 8,-2168"/>
<text text-anchor="start" x="86" y="-2174.7" font-family="Times,serif" font-weight="bold" font-size="14.00">server_setting</text>
<polygon fill="none" stroke="black" points="8,-2144 8,-2168 28,-2168 28,-2144 8,-2144"/>
<text text-anchor="start" x="10.88" y="-2151.7" font-family="Times,serif" font-size="14.00">🔑</text>
<polygon fill="none" stroke="black" points="28,-2144 28,-2168 245,-2168 245,-2144 28,-2144"/>
<text text-anchor="start" x="131.25" y="-2150.95" font-family="Times,serif" font-size="14.00">id</text>
<polygon fill="none" stroke="black" points="8,-2122 8,-2144 28,-2144 28,-2122 8,-2122"/>
<text text-anchor="start" x="16.12" y="-2127.7" font-family="Times,serif" font-size="14.00"> </text>
<polygon fill="none" stroke="black" points="28,-2122 28,-2144 245,-2144 245,-2122 28,-2122"/>
<text text-anchor="start" x="31.12" y="-2127.7" font-family="Times,serif" font-size="14.00">security_allowed_register_domain_list</text>
<polygon fill="none" stroke="black" points="8,-2100 8,-2122 28,-2122 28,-2100 8,-2100"/>
<text text-anchor="start" x="16.12" y="-2105.7" font-family="Times,serif" font-size="14.00"> </text>
<polygon fill="none" stroke="black" points="28,-2100 28,-2122 245,-2122 245,-2100 28,-2100"/>
<text text-anchor="start" x="30.75" y="-2105.7" font-family="Times,serif" font-size="14.00">security_disable_client_side_telemetry</text>
<polygon fill="none" stroke="black" points="8,-2078 8,-2100 28,-2100 28,-2078 8,-2078"/>
<text text-anchor="start" x="16.12" y="-2083.7" font-family="Times,serif" font-size="14.00"> </text>
<polygon fill="none" stroke="black" points="28,-2078 28,-2100 245,-2100 245,-2078 28,-2078"/>
<text text-anchor="start" x="78.38" y="-2083.7" font-family="Times,serif" font-size="14.00">network_external_url</text>
<polygon fill="none" stroke="black" points="8,-2056 8,-2078 28,-2078 28,-2056 8,-2056"/>
<text text-anchor="start" x="16.12" y="-2061.7" font-family="Times,serif" font-size="14.00"> </text>
<polygon fill="none" stroke="black" points="28,-2056 28,-2078 245,-2078 245,-2056 28,-2056"/>
<text text-anchor="start" x="66.75" y="-2061.7" font-family="Times,serif" font-size="14.00">billing_enterprise_license</text>
</g>
<!-- user_completions -->
<g id="node15" class="node">
<title>user_completions</title>
<polygon fill="none" stroke="black" points="73,-2576 73,-2598 180,-2598 180,-2576 73,-2576"/>
<text text-anchor="start" x="75.88" y="-2582.7" font-family="Times,serif" font-weight="bold" font-size="14.00">user_completions</text>
<polygon fill="none" stroke="black" points="73,-2552 73,-2576 94,-2576 94,-2552 73,-2552"/>
<text text-anchor="start" x="76.38" y="-2559.7" font-family="Times,serif" font-size="14.00">🔑</text>
<polygon fill="none" stroke="black" points="94,-2552 94,-2576 180,-2576 180,-2552 94,-2552"/>
<text text-anchor="start" x="131.75" y="-2558.95" font-family="Times,serif" font-size="14.00">id</text>
<polygon fill="none" stroke="black" points="73,-2530 73,-2552 94,-2552 94,-2530 73,-2530"/>
<text text-anchor="start" x="81.62" y="-2535.7" font-family="Times,serif" font-size="14.00"> </text>
<polygon fill="none" stroke="black" points="94,-2530 94,-2552 180,-2552 180,-2530 94,-2530"/>
<text text-anchor="start" x="117.12" y="-2535.7" font-family="Times,serif" font-size="14.00">user_id</text>
<polygon fill="none" stroke="black" points="73,-2508 73,-2530 94,-2530 94,-2508 73,-2508"/>
<text text-anchor="start" x="81.62" y="-2513.7" font-family="Times,serif" font-size="14.00"> </text>
<polygon fill="none" stroke="black" points="94,-2508 94,-2530 180,-2530 180,-2508 94,-2508"/>
<text text-anchor="start" x="97.62" y="-2513.7" font-family="Times,serif" font-size="14.00">completion_id</text>
<polygon fill="none" stroke="black" points="73,-2486 73,-2508 94,-2508 94,-2486 73,-2486"/>
<text text-anchor="start" x="81.62" y="-2491.7" font-family="Times,serif" font-size="14.00"> </text>
<polygon fill="none" stroke="black" points="94,-2486 94,-2508 180,-2508 180,-2486 94,-2486"/>
<text text-anchor="start" x="112.62" y="-2491.7" font-family="Times,serif" font-size="14.00">language</text>
<polygon fill="none" stroke="black" points="73,-2464 73,-2486 94,-2486 94,-2464 73,-2464"/>
<text text-anchor="start" x="81.62" y="-2469.7" font-family="Times,serif" font-size="14.00"> </text>
<polygon fill="none" stroke="black" points="94,-2464 94,-2486 180,-2486 180,-2464 94,-2464"/>
<text text-anchor="start" x="121.25" y="-2469.7" font-family="Times,serif" font-size="14.00">views</text>
<polygon fill="none" stroke="black" points="73,-2442 73,-2464 94,-2464 94,-2442 73,-2442"/>
<text text-anchor="start" x="81.62" y="-2447.7" font-family="Times,serif" font-size="14.00"> </text>
<polygon fill="none" stroke="black" points="94,-2442 94,-2464 180,-2464 180,-2442 94,-2442"/>
<text text-anchor="start" x="119" y="-2447.7" font-family="Times,serif" font-size="14.00">selects</text>
<polygon fill="none" stroke="black" points="73,-2420 73,-2442 94,-2442 94,-2420 73,-2420"/>
<text text-anchor="start" x="81.62" y="-2425.7" font-family="Times,serif" font-size="14.00"> </text>
<polygon fill="none" stroke="black" points="94,-2420 94,-2442 180,-2442 180,-2420 94,-2420"/>
<text text-anchor="start" x="110.75" y="-2425.7" font-family="Times,serif" font-size="14.00">dismisses</text>
<polygon fill="none" stroke="black" points="73,-2398 73,-2420 94,-2420 94,-2398 73,-2398"/>
<text text-anchor="start" x="81.62" y="-2403.7" font-family="Times,serif" font-size="14.00"> </text>
<polygon fill="none" stroke="black" points="94,-2398 94,-2420 180,-2420 180,-2398 94,-2398"/>
<text text-anchor="start" x="109.25" y="-2403.7" font-family="Times,serif" font-size="14.00">created_at</text>
<polygon fill="none" stroke="black" points="73,-2376 73,-2398 94,-2398 94,-2376 73,-2376"/>
<text text-anchor="start" x="81.62" y="-2381.7" font-family="Times,serif" font-size="14.00"> </text>
<polygon fill="none" stroke="black" points="94,-2376 94,-2398 180,-2398 180,-2376 94,-2376"/>
<text text-anchor="start" x="107.38" y="-2381.7" font-family="Times,serif" font-size="14.00">updated_at</text>
</g>
<!-- users -->
<g id="node17" class="node">
<title>users</title>
<polygon fill="none" stroke="black" points="311.5,-2429 311.5,-2451 448.5,-2451 448.5,-2429 311.5,-2429"/>
<text text-anchor="start" x="365" y="-2435.7" font-family="Times,serif" font-weight="bold" font-size="14.00">users</text>
<polygon fill="none" stroke="black" points="311.5,-2405 311.5,-2429 331.5,-2429 331.5,-2405 311.5,-2405"/>
<text text-anchor="start" x="314.38" y="-2412.7" font-family="Times,serif" font-size="14.00">🔑</text>
<polygon fill="none" stroke="black" points="331.5,-2405 331.5,-2429 448.5,-2429 448.5,-2405 331.5,-2405"/>
<text text-anchor="start" x="384.75" y="-2411.95" font-family="Times,serif" font-size="14.00">id</text>
<polygon fill="none" stroke="black" points="311.5,-2383 311.5,-2405 331.5,-2405 331.5,-2383 311.5,-2383"/>
<text text-anchor="start" x="319.62" y="-2388.7" font-family="Times,serif" font-size="14.00"> </text>
<polygon fill="none" stroke="black" points="331.5,-2383 331.5,-2405 448.5,-2405 448.5,-2383 331.5,-2383"/>
<text text-anchor="start" x="374.62" y="-2388.7" font-family="Times,serif" font-size="14.00">email</text>
<polygon fill="none" stroke="black" points="311.5,-2361 311.5,-2383 331.5,-2383 331.5,-2361 311.5,-2361"/>
<text text-anchor="start" x="319.62" y="-2366.7" font-family="Times,serif" font-size="14.00"> </text>
<polygon fill="none" stroke="black" points="331.5,-2361 331.5,-2383 448.5,-2383 448.5,-2361 331.5,-2361"/>
<text text-anchor="start" x="364.88" y="-2366.7" font-family="Times,serif" font-size="14.00">is_admin</text>
<polygon fill="none" stroke="black" points="311.5,-2339 311.5,-2361 331.5,-2361 331.5,-2339 311.5,-2339"/>
<text text-anchor="start" x="319.62" y="-2344.7" font-family="Times,serif" font-size="14.00"> </text>
<polygon fill="none" stroke="black" points="331.5,-2339 331.5,-2361 448.5,-2361 448.5,-2339 331.5,-2339"/>
<text text-anchor="start" x="362.25" y="-2344.7" font-family="Times,serif" font-size="14.00">created_at</text>
<polygon fill="none" stroke="black" points="311.5,-2317 311.5,-2339 331.5,-2339 331.5,-2317 311.5,-2317"/>
<text text-anchor="start" x="319.62" y="-2322.7" font-family="Times,serif" font-size="14.00"> </text>
<polygon fill="none" stroke="black" points="331.5,-2317 331.5,-2339 448.5,-2339 448.5,-2317 331.5,-2317"/>
<text text-anchor="start" x="360.38" y="-2322.7" font-family="Times,serif" font-size="14.00">updated_at</text>
<polygon fill="none" stroke="black" points="311.5,-2295 311.5,-2317 331.5,-2317 331.5,-2295 311.5,-2295"/>
<text text-anchor="start" x="319.62" y="-2300.7" font-family="Times,serif" font-size="14.00"> </text>
<polygon fill="none" stroke="black" points="331.5,-2295 331.5,-2317 448.5,-2317 448.5,-2295 331.5,-2295"/>
<text text-anchor="start" x="360" y="-2300.7" font-family="Times,serif" font-size="14.00">auth_token</text>
<polygon fill="none" stroke="black" points="311.5,-2273 311.5,-2295 331.5,-2295 331.5,-2273 311.5,-2273"/>
<text text-anchor="start" x="319.62" y="-2278.7" font-family="Times,serif" font-size="14.00"> </text>
<polygon fill="none" stroke="black" points="331.5,-2273 331.5,-2295 448.5,-2295 448.5,-2273 331.5,-2273"/>
<text text-anchor="start" x="373.88" y="-2278.7" font-family="Times,serif" font-size="14.00">active</text>
<polygon fill="none" stroke="black" points="311.5,-2251 311.5,-2273 331.5,-2273 331.5,-2251 311.5,-2251"/>
<text text-anchor="start" x="319.62" y="-2256.7" font-family="Times,serif" font-size="14.00"> </text>
<polygon fill="none" stroke="black" points="331.5,-2251 331.5,-2273 448.5,-2273 448.5,-2251 331.5,-2251"/>
<text text-anchor="start" x="334.5" y="-2256.7" font-family="Times,serif" font-size="14.00">password_encrypted</text>
<polygon fill="none" stroke="black" points="311.5,-2229 311.5,-2251 331.5,-2251 331.5,-2229 311.5,-2229"/>
<text text-anchor="start" x="319.62" y="-2234.7" font-family="Times,serif" font-size="14.00"> </text>
<polygon fill="none" stroke="black" points="331.5,-2229 331.5,-2251 448.5,-2251 448.5,-2229 331.5,-2229"/>
<text text-anchor="start" x="373.5" y="-2234.7" font-family="Times,serif" font-size="14.00">avatar</text>
</g>
<!-- user_completions&#45;&gt;users -->
<g id="edge1" class="edge">
<title>user_completions:e&#45;&gt;users:w</title>
<path fill="none" stroke="black" d="M181.5,-2541C256.84,-2541 233.42,-2429.27 298.73,-2417.93"/>
<polygon fill="black" stroke="black" points="298.81,-2421.43 308.49,-2417.12 298.24,-2414.46 298.81,-2421.43"/>
</g>
<!-- user_events -->
<g id="node16" class="node">
<title>user_events</title>
<polygon fill="none" stroke="black" points="86,-2328 86,-2350 167,-2350 167,-2328 86,-2328"/>
<text text-anchor="start" x="92.75" y="-2334.7" font-family="Times,serif" font-weight="bold" font-size="14.00">user_events</text>
<polygon fill="none" stroke="black" points="86,-2304 86,-2328 106,-2328 106,-2304 86,-2304"/>
<text text-anchor="start" x="88.88" y="-2311.7" font-family="Times,serif" font-size="14.00">🔑</text>
<polygon fill="none" stroke="black" points="106,-2304 106,-2328 167,-2328 167,-2304 106,-2304"/>
<text text-anchor="start" x="131.25" y="-2310.95" font-family="Times,serif" font-size="14.00">id</text>
<polygon fill="none" stroke="black" points="86,-2282 86,-2304 106,-2304 106,-2282 86,-2282"/>
<text text-anchor="start" x="94.12" y="-2287.7" font-family="Times,serif" font-size="14.00"> </text>
<polygon fill="none" stroke="black" points="106,-2282 106,-2304 167,-2304 167,-2282 106,-2282"/>
<text text-anchor="start" x="116.62" y="-2287.7" font-family="Times,serif" font-size="14.00">user_id</text>
<polygon fill="none" stroke="black" points="86,-2260 86,-2282 106,-2282 106,-2260 86,-2260"/>
<text text-anchor="start" x="94.12" y="-2265.7" font-family="Times,serif" font-size="14.00"> </text>
<polygon fill="none" stroke="black" points="106,-2260 106,-2282 167,-2282 167,-2260 106,-2260"/>
<text text-anchor="start" x="124.5" y="-2265.7" font-family="Times,serif" font-size="14.00">kind</text>
<polygon fill="none" stroke="black" points="86,-2238 86,-2260 106,-2260 106,-2238 86,-2238"/>
<text text-anchor="start" x="94.12" y="-2243.7" font-family="Times,serif" font-size="14.00"> </text>
<polygon fill="none" stroke="black" points="106,-2238 106,-2260 167,-2260 167,-2238 106,-2238"/>
<text text-anchor="start" x="108.75" y="-2243.7" font-family="Times,serif" font-size="14.00">created_at</text>
<polygon fill="none" stroke="black" points="86,-2216 86,-2238 106,-2238 106,-2216 86,-2216"/>
<text text-anchor="start" x="94.12" y="-2221.7" font-family="Times,serif" font-size="14.00"> </text>
<polygon fill="none" stroke="black" points="106,-2216 106,-2238 167,-2238 167,-2216 106,-2216"/>
<text text-anchor="start" x="115.12" y="-2221.7" font-family="Times,serif" font-size="14.00">payload</text>
</g>
<!-- user_events&#45;&gt;users -->
<g id="edge2" class="edge">
<title>user_events:e&#45;&gt;users:w</title>
<path fill="none" stroke="black" d="M168.5,-2293C217.27,-2293 216.5,-2330.66 253,-2363 275.85,-2383.25 275.64,-2409.41 298.6,-2415.63"/>
<polygon fill="black" stroke="black" points="298.15,-2419.1 308.5,-2416.82 298.99,-2412.15 298.15,-2419.1"/>
</g>
</g>
</svg>
