<?xml version="1.0" encoding="UTF-8" standalone="no"?>
<!DOCTYPE svg PUBLIC "-//W3C//DTD SVG 1.1//EN"
 "http://www.w3.org/Graphics/SVG/1.1/DTD/svg11.dtd">
<!-- Generated by graphviz version 2.43.0 (0)
 -->
<!-- Title: structs Pages: 1 -->
<svg width="559pt" height="2288pt"
 viewBox="0.00 0.00 559.00 2287.50" xmlns="http://www.w3.org/2000/svg" xmlns:xlink="http://www.w3.org/1999/xlink">
<g id="graph0" class="graph" transform="scale(1 1) rotate(0) translate(4 2283.5)">
<title>structs</title>
<polygon fill="white" stroke="transparent" points="-4,4 -4,-2283.5 555,-2283.5 555,4 -4,4"/>
<!-- _sqlx_migrations -->
<g id="node1" class="node">
<title>_sqlx_migrations</title>
<polygon fill="none" stroke="black" points="91.5,-129.5 91.5,-150.5 230.5,-150.5 230.5,-129.5 91.5,-129.5"/>
<text text-anchor="start" x="95" y="-137.3" font-family="Times,serif" font-weight="bold" font-size="14.00">_sqlx_migrations</text>
<polygon fill="none" stroke="black" points="91.5,-108.5 91.5,-129.5 115.5,-129.5 115.5,-108.5 91.5,-108.5"/>
<text text-anchor="start" x="94.5" y="-115.3" font-family="Times,serif" font-size="14.00">🔑</text>
<polygon fill="none" stroke="black" points="115.5,-108.5 115.5,-129.5 230.5,-129.5 230.5,-108.5 115.5,-108.5"/>
<text text-anchor="start" x="146.5" y="-115.3" font-family="Times,serif" font-size="14.00">version</text>
<polygon fill="none" stroke="black" points="91.5,-87.5 91.5,-108.5 115.5,-108.5 115.5,-87.5 91.5,-87.5"/>
<text text-anchor="start" x="101" y="-94.3" font-family="Times,serif" font-size="14.00"> </text>
<polygon fill="none" stroke="black" points="115.5,-87.5 115.5,-108.5 230.5,-108.5 230.5,-87.5 115.5,-87.5"/>
<text text-anchor="start" x="132.5" y="-94.3" font-family="Times,serif" font-size="14.00">description</text>
<polygon fill="none" stroke="black" points="91.5,-66.5 91.5,-87.5 115.5,-87.5 115.5,-66.5 91.5,-66.5"/>
<text text-anchor="start" x="101" y="-73.3" font-family="Times,serif" font-size="14.00"> </text>
<polygon fill="none" stroke="black" points="115.5,-66.5 115.5,-87.5 230.5,-87.5 230.5,-66.5 115.5,-66.5"/>
<text text-anchor="start" x="130" y="-73.3" font-family="Times,serif" font-size="14.00">installed_on</text>
<polygon fill="none" stroke="black" points="91.5,-45.5 91.5,-66.5 115.5,-66.5 115.5,-45.5 91.5,-45.5"/>
<text text-anchor="start" x="101" y="-52.3" font-family="Times,serif" font-size="14.00"> </text>
<polygon fill="none" stroke="black" points="115.5,-45.5 115.5,-66.5 230.5,-66.5 230.5,-45.5 115.5,-45.5"/>
<text text-anchor="start" x="145.5" y="-52.3" font-family="Times,serif" font-size="14.00">success</text>
<polygon fill="none" stroke="black" points="91.5,-24.5 91.5,-45.5 115.5,-45.5 115.5,-24.5 91.5,-24.5"/>
<text text-anchor="start" x="101" y="-31.3" font-family="Times,serif" font-size="14.00"> </text>
<polygon fill="none" stroke="black" points="115.5,-24.5 115.5,-45.5 230.5,-45.5 230.5,-24.5 115.5,-24.5"/>
<text text-anchor="start" x="137.5" y="-31.3" font-family="Times,serif" font-size="14.00">checksum</text>
<polygon fill="none" stroke="black" points="91.5,-3.5 91.5,-24.5 115.5,-24.5 115.5,-3.5 91.5,-3.5"/>
<text text-anchor="start" x="101" y="-10.3" font-family="Times,serif" font-size="14.00"> </text>
<polygon fill="none" stroke="black" points="115.5,-3.5 115.5,-24.5 230.5,-24.5 230.5,-3.5 115.5,-3.5"/>
<text text-anchor="start" x="118.5" y="-10.3" font-family="Times,serif" font-size="14.00">execution_time</text>
</g>
<!-- email_setting -->
<g id="node2" class="node">
<title>email_setting</title>
<polygon fill="none" stroke="black" points="88.5,-344.5 88.5,-365.5 232.5,-365.5 232.5,-344.5 88.5,-344.5"/>
<text text-anchor="start" x="107" y="-352.3" font-family="Times,serif" font-weight="bold" font-size="14.00">email_setting</text>
<polygon fill="none" stroke="black" points="88.5,-323.5 88.5,-344.5 112.5,-344.5 112.5,-323.5 88.5,-323.5"/>
<text text-anchor="start" x="91.5" y="-330.3" font-family="Times,serif" font-size="14.00">🔑</text>
<polygon fill="none" stroke="black" points="112.5,-323.5 112.5,-344.5 232.5,-344.5 232.5,-323.5 112.5,-323.5"/>
<text text-anchor="start" x="165.5" y="-330.3" font-family="Times,serif" font-size="14.00">id</text>
<polygon fill="none" stroke="black" points="88.5,-302.5 88.5,-323.5 112.5,-323.5 112.5,-302.5 88.5,-302.5"/>
<text text-anchor="start" x="98" y="-309.3" font-family="Times,serif" font-size="14.00"> </text>
<polygon fill="none" stroke="black" points="112.5,-302.5 112.5,-323.5 232.5,-323.5 232.5,-302.5 112.5,-302.5"/>
<text text-anchor="start" x="115.5" y="-309.3" font-family="Times,serif" font-size="14.00">smtp_username</text>
<polygon fill="none" stroke="black" points="88.5,-281.5 88.5,-302.5 112.5,-302.5 112.5,-281.5 88.5,-281.5"/>
<text text-anchor="start" x="98" y="-288.3" font-family="Times,serif" font-size="14.00"> </text>
<polygon fill="none" stroke="black" points="112.5,-281.5 112.5,-302.5 232.5,-302.5 232.5,-281.5 112.5,-281.5"/>
<text text-anchor="start" x="116.5" y="-288.3" font-family="Times,serif" font-size="14.00">smtp_password</text>
<polygon fill="none" stroke="black" points="88.5,-260.5 88.5,-281.5 112.5,-281.5 112.5,-260.5 88.5,-260.5"/>
<text text-anchor="start" x="98" y="-267.3" font-family="Times,serif" font-size="14.00"> </text>
<polygon fill="none" stroke="black" points="112.5,-260.5 112.5,-281.5 232.5,-281.5 232.5,-260.5 112.5,-260.5"/>
<text text-anchor="start" x="128" y="-267.3" font-family="Times,serif" font-size="14.00">smtp_server</text>
<polygon fill="none" stroke="black" points="88.5,-239.5 88.5,-260.5 112.5,-260.5 112.5,-239.5 88.5,-239.5"/>
<text text-anchor="start" x="98" y="-246.3" font-family="Times,serif" font-size="14.00"> </text>
<polygon fill="none" stroke="black" points="112.5,-239.5 112.5,-260.5 232.5,-260.5 232.5,-239.5 112.5,-239.5"/>
<text text-anchor="start" x="124" y="-246.3" font-family="Times,serif" font-size="14.00">from_address</text>
<polygon fill="none" stroke="black" points="88.5,-218.5 88.5,-239.5 112.5,-239.5 112.5,-218.5 88.5,-218.5"/>
<text text-anchor="start" x="98" y="-225.3" font-family="Times,serif" font-size="14.00"> </text>
<polygon fill="none" stroke="black" points="112.5,-218.5 112.5,-239.5 232.5,-239.5 232.5,-218.5 112.5,-218.5"/>
<text text-anchor="start" x="134" y="-225.3" font-family="Times,serif" font-size="14.00">encryption</text>
<polygon fill="none" stroke="black" points="88.5,-197.5 88.5,-218.5 112.5,-218.5 112.5,-197.5 88.5,-197.5"/>
<text text-anchor="start" x="98" y="-204.3" font-family="Times,serif" font-size="14.00"> </text>
<polygon fill="none" stroke="black" points="112.5,-197.5 112.5,-218.5 232.5,-218.5 232.5,-197.5 112.5,-197.5"/>
<text text-anchor="start" x="125.5" y="-204.3" font-family="Times,serif" font-size="14.00">auth_method</text>
<polygon fill="none" stroke="black" points="88.5,-176.5 88.5,-197.5 112.5,-197.5 112.5,-176.5 88.5,-176.5"/>
<text text-anchor="start" x="98" y="-183.3" font-family="Times,serif" font-size="14.00"> </text>
<polygon fill="none" stroke="black" points="112.5,-176.5 112.5,-197.5 232.5,-197.5 232.5,-176.5 112.5,-176.5"/>
<text text-anchor="start" x="136" y="-183.3" font-family="Times,serif" font-size="14.00">smtp_port</text>
</g>
<!-- integrations -->
<g id="node3" class="node">
<title>integrations</title>
<polygon fill="none" stroke="black" points="391,-538.5 391,-559.5 518,-559.5 518,-538.5 391,-538.5"/>
<text text-anchor="start" x="405.5" y="-546.3" font-family="Times,serif" font-weight="bold" font-size="14.00">integrations</text>
<polygon fill="none" stroke="black" points="391,-517.5 391,-538.5 415,-538.5 415,-517.5 391,-517.5"/>
<text text-anchor="start" x="394" y="-524.3" font-family="Times,serif" font-size="14.00">🔑</text>
<polygon fill="none" stroke="black" points="415,-517.5 415,-538.5 518,-538.5 518,-517.5 415,-517.5"/>
<text text-anchor="start" x="459.5" y="-524.3" font-family="Times,serif" font-size="14.00">id</text>
<polygon fill="none" stroke="black" points="391,-496.5 391,-517.5 415,-517.5 415,-496.5 391,-496.5"/>
<text text-anchor="start" x="400.5" y="-503.3" font-family="Times,serif" font-size="14.00"> </text>
<polygon fill="none" stroke="black" points="415,-496.5 415,-517.5 518,-517.5 518,-496.5 415,-496.5"/>
<text text-anchor="start" x="451" y="-503.3" font-family="Times,serif" font-size="14.00">kind</text>
<polygon fill="none" stroke="black" points="391,-475.5 391,-496.5 415,-496.5 415,-475.5 391,-475.5"/>
<text text-anchor="start" x="400.5" y="-482.3" font-family="Times,serif" font-size="14.00"> </text>
<polygon fill="none" stroke="black" points="415,-475.5 415,-496.5 518,-496.5 518,-475.5 415,-475.5"/>
<text text-anchor="start" x="418" y="-482.3" font-family="Times,serif" font-size="14.00">display_name</text>
<polygon fill="none" stroke="black" points="391,-454.5 391,-475.5 415,-475.5 415,-454.5 391,-454.5"/>
<text text-anchor="start" x="400.5" y="-461.3" font-family="Times,serif" font-size="14.00"> </text>
<polygon fill="none" stroke="black" points="415,-454.5 415,-475.5 518,-475.5 518,-454.5 415,-454.5"/>
<text text-anchor="start" x="419.5" y="-461.3" font-family="Times,serif" font-size="14.00">access_token</text>
<polygon fill="none" stroke="black" points="391,-433.5 391,-454.5 415,-454.5 415,-433.5 391,-433.5"/>
<text text-anchor="start" x="400.5" y="-440.3" font-family="Times,serif" font-size="14.00"> </text>
<polygon fill="none" stroke="black" points="415,-433.5 415,-454.5 518,-454.5 518,-433.5 415,-433.5"/>
<text text-anchor="start" x="435.5" y="-440.3" font-family="Times,serif" font-size="14.00">api_base</text>
<polygon fill="none" stroke="black" points="391,-412.5 391,-433.5 415,-433.5 415,-412.5 391,-412.5"/>
<text text-anchor="start" x="400.5" y="-419.3" font-family="Times,serif" font-size="14.00"> </text>
<polygon fill="none" stroke="black" points="415,-412.5 415,-433.5 518,-433.5 518,-412.5 415,-412.5"/>
<text text-anchor="start" x="448" y="-419.3" font-family="Times,serif" font-size="14.00">error</text>
<polygon fill="none" stroke="black" points="391,-391.5 391,-412.5 415,-412.5 415,-391.5 391,-391.5"/>
<text text-anchor="start" x="400.5" y="-398.3" font-family="Times,serif" font-size="14.00"> </text>
<polygon fill="none" stroke="black" points="415,-391.5 415,-412.5 518,-412.5 518,-391.5 415,-391.5"/>
<text text-anchor="start" x="428.5" y="-398.3" font-family="Times,serif" font-size="14.00">created_at</text>
<polygon fill="none" stroke="black" points="391,-370.5 391,-391.5 415,-391.5 415,-370.5 391,-370.5"/>
<text text-anchor="start" x="400.5" y="-377.3" font-family="Times,serif" font-size="14.00"> </text>
<polygon fill="none" stroke="black" points="415,-370.5 415,-391.5 518,-391.5 518,-370.5 415,-370.5"/>
<text text-anchor="start" x="426.5" y="-377.3" font-family="Times,serif" font-size="14.00">updated_at</text>
<polygon fill="none" stroke="black" points="391,-349.5 391,-370.5 415,-370.5 415,-349.5 391,-349.5"/>
<text text-anchor="start" x="400.5" y="-356.3" font-family="Times,serif" font-size="14.00"> </text>
<polygon fill="none" stroke="black" points="415,-349.5 415,-370.5 518,-370.5 518,-349.5 415,-349.5"/>
<text text-anchor="start" x="441.5" y="-356.3" font-family="Times,serif" font-size="14.00">synced</text>
</g>
<!-- invitations -->
<g id="node4" class="node">
<title>invitations</title>
<polygon fill="none" stroke="black" points="107.5,-690.5 107.5,-711.5 213.5,-711.5 213.5,-690.5 107.5,-690.5"/>
<text text-anchor="start" x="118" y="-698.3" font-family="Times,serif" font-weight="bold" font-size="14.00">invitations</text>
<polygon fill="none" stroke="black" points="107.5,-669.5 107.5,-690.5 131.5,-690.5 131.5,-669.5 107.5,-669.5"/>
<text text-anchor="start" x="110.5" y="-676.3" font-family="Times,serif" font-size="14.00">🔑</text>
<polygon fill="none" stroke="black" points="131.5,-669.5 131.5,-690.5 213.5,-690.5 213.5,-669.5 131.5,-669.5"/>
<text text-anchor="start" x="165.5" y="-676.3" font-family="Times,serif" font-size="14.00">id</text>
<polygon fill="none" stroke="black" points="107.5,-648.5 107.5,-669.5 131.5,-669.5 131.5,-648.5 107.5,-648.5"/>
<text text-anchor="start" x="117" y="-655.3" font-family="Times,serif" font-size="14.00"> </text>
<polygon fill="none" stroke="black" points="131.5,-648.5 131.5,-669.5 213.5,-669.5 213.5,-648.5 131.5,-648.5"/>
<text text-anchor="start" x="152.5" y="-655.3" font-family="Times,serif" font-size="14.00">email</text>
<polygon fill="none" stroke="black" points="107.5,-627.5 107.5,-648.5 131.5,-648.5 131.5,-627.5 107.5,-627.5"/>
<text text-anchor="start" x="117" y="-634.3" font-family="Times,serif" font-size="14.00"> </text>
<polygon fill="none" stroke="black" points="131.5,-627.5 131.5,-648.5 213.5,-648.5 213.5,-627.5 131.5,-627.5"/>
<text text-anchor="start" x="155.5" y="-634.3" font-family="Times,serif" font-size="14.00">code</text>
<polygon fill="none" stroke="black" points="107.5,-606.5 107.5,-627.5 131.5,-627.5 131.5,-606.5 107.5,-606.5"/>
<text text-anchor="start" x="117" y="-613.3" font-family="Times,serif" font-size="14.00"> </text>
<polygon fill="none" stroke="black" points="131.5,-606.5 131.5,-627.5 213.5,-627.5 213.5,-606.5 131.5,-606.5"/>
<text text-anchor="start" x="134.5" y="-613.3" font-family="Times,serif" font-size="14.00">created_at</text>
</g>
<!-- job_runs -->
<g id="node5" class="node">
<title>job_runs</title>
<polygon fill="none" stroke="black" points="105.5,-905.5 105.5,-926.5 215.5,-926.5 215.5,-905.5 105.5,-905.5"/>
<text text-anchor="start" x="126.5" y="-913.3" font-family="Times,serif" font-weight="bold" font-size="14.00">job_runs</text>
<polygon fill="none" stroke="black" points="105.5,-884.5 105.5,-905.5 129.5,-905.5 129.5,-884.5 105.5,-884.5"/>
<text text-anchor="start" x="108.5" y="-891.3" font-family="Times,serif" font-size="14.00">🔑</text>
<polygon fill="none" stroke="black" points="129.5,-884.5 129.5,-905.5 215.5,-905.5 215.5,-884.5 129.5,-884.5"/>
<text text-anchor="start" x="165.5" y="-891.3" font-family="Times,serif" font-size="14.00">id</text>
<polygon fill="none" stroke="black" points="105.5,-863.5 105.5,-884.5 129.5,-884.5 129.5,-863.5 105.5,-863.5"/>
<text text-anchor="start" x="115" y="-870.3" font-family="Times,serif" font-size="14.00"> </text>
<polygon fill="none" stroke="black" points="129.5,-863.5 129.5,-884.5 215.5,-884.5 215.5,-863.5 129.5,-863.5"/>
<text text-anchor="start" x="161.5" y="-870.3" font-family="Times,serif" font-size="14.00">job</text>
<polygon fill="none" stroke="black" points="105.5,-842.5 105.5,-863.5 129.5,-863.5 129.5,-842.5 105.5,-842.5"/>
<text text-anchor="start" x="115" y="-849.3" font-family="Times,serif" font-size="14.00"> </text>
<polygon fill="none" stroke="black" points="129.5,-842.5 129.5,-863.5 215.5,-863.5 215.5,-842.5 129.5,-842.5"/>
<text text-anchor="start" x="145" y="-849.3" font-family="Times,serif" font-size="14.00">start_ts</text>
<polygon fill="none" stroke="black" points="105.5,-821.5 105.5,-842.5 129.5,-842.5 129.5,-821.5 105.5,-821.5"/>
<text text-anchor="start" x="115" y="-828.3" font-family="Times,serif" font-size="14.00"> </text>
<polygon fill="none" stroke="black" points="129.5,-821.5 129.5,-842.5 215.5,-842.5 215.5,-821.5 129.5,-821.5"/>
<text text-anchor="start" x="149" y="-828.3" font-family="Times,serif" font-size="14.00">end_ts</text>
<polygon fill="none" stroke="black" points="105.5,-800.5 105.5,-821.5 129.5,-821.5 129.5,-800.5 105.5,-800.5"/>
<text text-anchor="start" x="115" y="-807.3" font-family="Times,serif" font-size="14.00"> </text>
<polygon fill="none" stroke="black" points="129.5,-800.5 129.5,-821.5 215.5,-821.5 215.5,-800.5 129.5,-800.5"/>
<text text-anchor="start" x="139" y="-807.3" font-family="Times,serif" font-size="14.00">exit_code</text>
<polygon fill="none" stroke="black" points="105.5,-779.5 105.5,-800.5 129.5,-800.5 129.5,-779.5 105.5,-779.5"/>
<text text-anchor="start" x="115" y="-786.3" font-family="Times,serif" font-size="14.00"> </text>
<polygon fill="none" stroke="black" points="129.5,-779.5 129.5,-800.5 215.5,-800.5 215.5,-779.5 129.5,-779.5"/>
<text text-anchor="start" x="149.5" y="-786.3" font-family="Times,serif" font-size="14.00">stdout</text>
<polygon fill="none" stroke="black" points="105.5,-758.5 105.5,-779.5 129.5,-779.5 129.5,-758.5 105.5,-758.5"/>
<text text-anchor="start" x="115" y="-765.3" font-family="Times,serif" font-size="14.00"> </text>
<polygon fill="none" stroke="black" points="129.5,-758.5 129.5,-779.5 215.5,-779.5 215.5,-758.5 129.5,-758.5"/>
<text text-anchor="start" x="134.5" y="-765.3" font-family="Times,serif" font-size="14.00">created_at</text>
<polygon fill="none" stroke="black" points="105.5,-737.5 105.5,-758.5 129.5,-758.5 129.5,-737.5 105.5,-737.5"/>
<text text-anchor="start" x="115" y="-744.3" font-family="Times,serif" font-size="14.00"> </text>
<polygon fill="none" stroke="black" points="129.5,-737.5 129.5,-758.5 215.5,-758.5 215.5,-737.5 129.5,-737.5"/>
<text text-anchor="start" x="132.5" y="-744.3" font-family="Times,serif" font-size="14.00">updated_at</text>
</g>
<!-- oauth_credential -->
<g id="node6" class="node">
<title>oauth_credential</title>
<polygon fill="none" stroke="black" points="91.5,-1078.5 91.5,-1099.5 230.5,-1099.5 230.5,-1078.5 91.5,-1078.5"/>
<text text-anchor="start" x="94.5" y="-1086.3" font-family="Times,serif" font-weight="bold" font-size="14.00">oauth_credential</text>
<polygon fill="none" stroke="black" points="91.5,-1057.5 91.5,-1078.5 124.5,-1078.5 124.5,-1057.5 91.5,-1057.5"/>
<text text-anchor="start" x="99" y="-1064.3" font-family="Times,serif" font-size="14.00">🔑</text>
<polygon fill="none" stroke="black" points="124.5,-1057.5 124.5,-1078.5 230.5,-1078.5 230.5,-1057.5 124.5,-1057.5"/>
<text text-anchor="start" x="170.5" y="-1064.3" font-family="Times,serif" font-size="14.00">id</text>
<polygon fill="none" stroke="black" points="91.5,-1036.5 91.5,-1057.5 124.5,-1057.5 124.5,-1036.5 91.5,-1036.5"/>
<text text-anchor="start" x="105.5" y="-1043.3" font-family="Times,serif" font-size="14.00"> </text>
<polygon fill="none" stroke="black" points="124.5,-1036.5 124.5,-1057.5 230.5,-1057.5 230.5,-1036.5 124.5,-1036.5"/>
<text text-anchor="start" x="147" y="-1043.3" font-family="Times,serif" font-size="14.00">provider</text>
<polygon fill="none" stroke="black" points="91.5,-1015.5 91.5,-1036.5 124.5,-1036.5 124.5,-1015.5 91.5,-1015.5"/>
<text text-anchor="start" x="105.5" y="-1022.3" font-family="Times,serif" font-size="14.00"> </text>
<polygon fill="none" stroke="black" points="124.5,-1015.5 124.5,-1036.5 230.5,-1036.5 230.5,-1015.5 124.5,-1015.5"/>
<text text-anchor="start" x="147" y="-1022.3" font-family="Times,serif" font-size="14.00">client_id</text>
<polygon fill="none" stroke="black" points="91.5,-994.5 91.5,-1015.5 124.5,-1015.5 124.5,-994.5 91.5,-994.5"/>
<text text-anchor="start" x="105.5" y="-1001.3" font-family="Times,serif" font-size="14.00"> </text>
<polygon fill="none" stroke="black" points="124.5,-994.5 124.5,-1015.5 230.5,-1015.5 230.5,-994.5 124.5,-994.5"/>
<text text-anchor="start" x="132" y="-1001.3" font-family="Times,serif" font-size="14.00">client_secret</text>
<polygon fill="none" stroke="black" points="91.5,-973.5 91.5,-994.5 124.5,-994.5 124.5,-973.5 91.5,-973.5"/>
<text text-anchor="start" x="105.5" y="-980.3" font-family="Times,serif" font-size="14.00"> </text>
<polygon fill="none" stroke="black" points="124.5,-973.5 124.5,-994.5 230.5,-994.5 230.5,-973.5 124.5,-973.5"/>
<text text-anchor="start" x="139.5" y="-980.3" font-family="Times,serif" font-size="14.00">created_at</text>
<polygon fill="none" stroke="black" points="91.5,-952.5 91.5,-973.5 124.5,-973.5 124.5,-952.5 91.5,-952.5"/>
<text text-anchor="start" x="105.5" y="-959.3" font-family="Times,serif" font-size="14.00"> </text>
<polygon fill="none" stroke="black" points="124.5,-952.5 124.5,-973.5 230.5,-973.5 230.5,-952.5 124.5,-952.5"/>
<text text-anchor="start" x="137.5" y="-959.3" font-family="Times,serif" font-size="14.00">updated_at</text>
</g>
<!-- password_reset -->
<g id="node7" class="node">
<title>password_reset</title>
<polygon fill="none" stroke="black" points="97.5,-1750.5 97.5,-1771.5 224.5,-1771.5 224.5,-1750.5 97.5,-1750.5"/>
<text text-anchor="start" x="100.5" y="-1758.3" font-family="Times,serif" font-weight="bold" font-size="14.00">password_reset</text>
<polygon fill="none" stroke="black" points="97.5,-1729.5 97.5,-1750.5 131.5,-1750.5 131.5,-1729.5 97.5,-1729.5"/>
<text text-anchor="start" x="105.5" y="-1736.3" font-family="Times,serif" font-size="14.00">🔑</text>
<polygon fill="none" stroke="black" points="131.5,-1729.5 131.5,-1750.5 224.5,-1750.5 224.5,-1729.5 131.5,-1729.5"/>
<text text-anchor="start" x="171" y="-1736.3" font-family="Times,serif" font-size="14.00">id</text>
<polygon fill="none" stroke="black" points="97.5,-1708.5 97.5,-1729.5 131.5,-1729.5 131.5,-1708.5 97.5,-1708.5"/>
<text text-anchor="start" x="112" y="-1715.3" font-family="Times,serif" font-size="14.00"> </text>
<polygon fill="none" stroke="black" points="131.5,-1708.5 131.5,-1729.5 224.5,-1729.5 224.5,-1708.5 131.5,-1708.5"/>
<text text-anchor="start" x="152" y="-1715.3" font-family="Times,serif" font-size="14.00">user_id</text>
<polygon fill="none" stroke="black" points="97.5,-1687.5 97.5,-1708.5 131.5,-1708.5 131.5,-1687.5 97.5,-1687.5"/>
<text text-anchor="start" x="112" y="-1694.3" font-family="Times,serif" font-size="14.00"> </text>
<polygon fill="none" stroke="black" points="131.5,-1687.5 131.5,-1708.5 224.5,-1708.5 224.5,-1687.5 131.5,-1687.5"/>
<text text-anchor="start" x="161" y="-1694.3" font-family="Times,serif" font-size="14.00">code</text>
<polygon fill="none" stroke="black" points="97.5,-1666.5 97.5,-1687.5 131.5,-1687.5 131.5,-1666.5 97.5,-1666.5"/>
<text text-anchor="start" x="112" y="-1673.3" font-family="Times,serif" font-size="14.00"> </text>
<polygon fill="none" stroke="black" points="131.5,-1666.5 131.5,-1687.5 224.5,-1687.5 224.5,-1666.5 131.5,-1666.5"/>
<text text-anchor="start" x="140" y="-1673.3" font-family="Times,serif" font-size="14.00">created_at</text>
</g>
<!-- users -->
<g id="node15" class="node">
<title>users</title>
<polygon fill="none" stroke="black" points="365,-1522.5 365,-1543.5 543,-1543.5 543,-1522.5 365,-1522.5"/>
<text text-anchor="start" x="432" y="-1530.3" font-family="Times,serif" font-weight="bold" font-size="14.00">users</text>
<polygon fill="none" stroke="black" points="365,-1501.5 365,-1522.5 389,-1522.5 389,-1501.5 365,-1501.5"/>
<text text-anchor="start" x="368" y="-1508.3" font-family="Times,serif" font-size="14.00">🔑</text>
<polygon fill="none" stroke="black" points="389,-1501.5 389,-1522.5 543,-1522.5 543,-1501.5 389,-1501.5"/>
<text text-anchor="start" x="459" y="-1508.3" font-family="Times,serif" font-size="14.00">id</text>
<polygon fill="none" stroke="black" points="365,-1480.5 365,-1501.5 389,-1501.5 389,-1480.5 365,-1480.5"/>
<text text-anchor="start" x="374.5" y="-1487.3" font-family="Times,serif" font-size="14.00"> </text>
<polygon fill="none" stroke="black" points="389,-1480.5 389,-1501.5 543,-1501.5 543,-1480.5 389,-1480.5"/>
<text text-anchor="start" x="446" y="-1487.3" font-family="Times,serif" font-size="14.00">email</text>
<polygon fill="none" stroke="black" points="365,-1459.5 365,-1480.5 389,-1480.5 389,-1459.5 365,-1459.5"/>
<text text-anchor="start" x="374.5" y="-1466.3" font-family="Times,serif" font-size="14.00"> </text>
<polygon fill="none" stroke="black" points="389,-1459.5 389,-1480.5 543,-1480.5 543,-1459.5 389,-1459.5"/>
<text text-anchor="start" x="434" y="-1466.3" font-family="Times,serif" font-size="14.00">is_admin</text>
<polygon fill="none" stroke="black" points="365,-1438.5 365,-1459.5 389,-1459.5 389,-1438.5 365,-1438.5"/>
<text text-anchor="start" x="374.5" y="-1445.3" font-family="Times,serif" font-size="14.00"> </text>
<polygon fill="none" stroke="black" points="389,-1438.5 389,-1459.5 543,-1459.5 543,-1438.5 389,-1438.5"/>
<text text-anchor="start" x="428" y="-1445.3" font-family="Times,serif" font-size="14.00">created_at</text>
<polygon fill="none" stroke="black" points="365,-1417.5 365,-1438.5 389,-1438.5 389,-1417.5 365,-1417.5"/>
<text text-anchor="start" x="374.5" y="-1424.3" font-family="Times,serif" font-size="14.00"> </text>
<polygon fill="none" stroke="black" points="389,-1417.5 389,-1438.5 543,-1438.5 543,-1417.5 389,-1417.5"/>
<text text-anchor="start" x="426" y="-1424.3" font-family="Times,serif" font-size="14.00">updated_at</text>
<polygon fill="none" stroke="black" points="365,-1396.5 365,-1417.5 389,-1417.5 389,-1396.5 365,-1396.5"/>
<text text-anchor="start" x="374.5" y="-1403.3" font-family="Times,serif" font-size="14.00"> </text>
<polygon fill="none" stroke="black" points="389,-1396.5 389,-1417.5 543,-1417.5 543,-1396.5 389,-1396.5"/>
<text text-anchor="start" x="426.5" y="-1403.3" font-family="Times,serif" font-size="14.00">auth_token</text>
<polygon fill="none" stroke="black" points="365,-1375.5 365,-1396.5 389,-1396.5 389,-1375.5 365,-1375.5"/>
<text text-anchor="start" x="374.5" y="-1382.3" font-family="Times,serif" font-size="14.00"> </text>
<polygon fill="none" stroke="black" points="389,-1375.5 389,-1396.5 543,-1396.5 543,-1375.5 389,-1375.5"/>
<text text-anchor="start" x="444.5" y="-1382.3" font-family="Times,serif" font-size="14.00">active</text>
<polygon fill="none" stroke="black" points="365,-1354.5 365,-1375.5 389,-1375.5 389,-1354.5 365,-1354.5"/>
<text text-anchor="start" x="374.5" y="-1361.3" font-family="Times,serif" font-size="14.00"> </text>
<polygon fill="none" stroke="black" points="389,-1354.5 389,-1375.5 543,-1375.5 543,-1354.5 389,-1354.5"/>
<text text-anchor="start" x="392" y="-1361.3" font-family="Times,serif" font-size="14.00">password_encrypted</text>
<polygon fill="none" stroke="black" points="365,-1333.5 365,-1354.5 389,-1354.5 389,-1333.5 365,-1333.5"/>
<text text-anchor="start" x="374.5" y="-1340.3" font-family="Times,serif" font-size="14.00"> </text>
<polygon fill="none" stroke="black" points="389,-1333.5 389,-1354.5 543,-1354.5 543,-1333.5 389,-1333.5"/>
<text text-anchor="start" x="443" y="-1340.3" font-family="Times,serif" font-size="14.00">avatar</text>
<polygon fill="none" stroke="black" points="365,-1312.5 365,-1333.5 389,-1333.5 389,-1312.5 365,-1312.5"/>
<text text-anchor="start" x="374.5" y="-1319.3" font-family="Times,serif" font-size="14.00"> </text>
<polygon fill="none" stroke="black" points="389,-1312.5 389,-1333.5 543,-1333.5 543,-1312.5 389,-1312.5"/>
<text text-anchor="start" x="446" y="-1319.3" font-family="Times,serif" font-size="14.00">name</text>
</g>
<!-- password_reset&#45;&gt;users -->
<g id="edge4" class="edge">
<title>password_reset:e&#45;&gt;users:w</title>
<path fill="none" stroke="black" d="M225.5,-1718.5C276.84,-1718.5 290.56,-1694.85 321,-1653.5 357.57,-1603.83 305.33,-1522.72 353.74,-1513.38"/>
<polygon fill="black" stroke="black" points="354.34,-1516.85 364,-1512.5 353.74,-1509.87 354.34,-1516.85"/>
</g>
<!-- provided_repositories -->
<g id="node8" class="node">
<title>provided_repositories</title>
<polygon fill="none" stroke="black" points="72.5,-559.5 72.5,-580.5 248.5,-580.5 248.5,-559.5 72.5,-559.5"/>
<text text-anchor="start" x="75.5" y="-567.3" font-family="Times,serif" font-weight="bold" font-size="14.00">provided_repositories</text>
<polygon fill="none" stroke="black" points="72.5,-538.5 72.5,-559.5 119.5,-559.5 119.5,-538.5 72.5,-538.5"/>
<text text-anchor="start" x="87" y="-545.3" font-family="Times,serif" font-size="14.00">🔑</text>
<polygon fill="none" stroke="black" points="119.5,-538.5 119.5,-559.5 248.5,-559.5 248.5,-538.5 119.5,-538.5"/>
<text text-anchor="start" x="177" y="-545.3" font-family="Times,serif" font-size="14.00">id</text>
<polygon fill="none" stroke="black" points="72.5,-517.5 72.5,-538.5 119.5,-538.5 119.5,-517.5 72.5,-517.5"/>
<text text-anchor="start" x="93.5" y="-524.3" font-family="Times,serif" font-size="14.00"> </text>
<polygon fill="none" stroke="black" points="119.5,-517.5 119.5,-538.5 248.5,-538.5 248.5,-517.5 119.5,-517.5"/>
<text text-anchor="start" x="134" y="-524.3" font-family="Times,serif" font-size="14.00">integration_id</text>
<polygon fill="none" stroke="black" points="72.5,-496.5 72.5,-517.5 119.5,-517.5 119.5,-496.5 72.5,-496.5"/>
<text text-anchor="start" x="93.5" y="-503.3" font-family="Times,serif" font-size="14.00"> </text>
<polygon fill="none" stroke="black" points="119.5,-496.5 119.5,-517.5 248.5,-517.5 248.5,-496.5 119.5,-496.5"/>
<text text-anchor="start" x="149" y="-503.3" font-family="Times,serif" font-size="14.00">vendor_id</text>
<polygon fill="none" stroke="black" points="72.5,-475.5 72.5,-496.5 119.5,-496.5 119.5,-475.5 72.5,-475.5"/>
<text text-anchor="start" x="93.5" y="-482.3" font-family="Times,serif" font-size="14.00"> </text>
<polygon fill="none" stroke="black" points="119.5,-475.5 119.5,-496.5 248.5,-496.5 248.5,-475.5 119.5,-475.5"/>
<text text-anchor="start" x="164" y="-482.3" font-family="Times,serif" font-size="14.00">name</text>
<polygon fill="none" stroke="black" points="72.5,-454.5 72.5,-475.5 119.5,-475.5 119.5,-454.5 72.5,-454.5"/>
<text text-anchor="start" x="93.5" y="-461.3" font-family="Times,serif" font-size="14.00"> </text>
<polygon fill="none" stroke="black" points="119.5,-454.5 119.5,-475.5 248.5,-475.5 248.5,-454.5 119.5,-454.5"/>
<text text-anchor="start" x="160.5" y="-461.3" font-family="Times,serif" font-size="14.00">git_url</text>
<polygon fill="none" stroke="black" points="72.5,-433.5 72.5,-454.5 119.5,-454.5 119.5,-433.5 72.5,-433.5"/>
<text text-anchor="start" x="93.5" y="-440.3" font-family="Times,serif" font-size="14.00"> </text>
<polygon fill="none" stroke="black" points="119.5,-433.5 119.5,-454.5 248.5,-454.5 248.5,-433.5 119.5,-433.5"/>
<text text-anchor="start" x="162.5" y="-440.3" font-family="Times,serif" font-size="14.00">active</text>
<polygon fill="none" stroke="black" points="72.5,-412.5 72.5,-433.5 119.5,-433.5 119.5,-412.5 72.5,-412.5"/>
<text text-anchor="start" x="93.5" y="-419.3" font-family="Times,serif" font-size="14.00"> </text>
<polygon fill="none" stroke="black" points="119.5,-412.5 119.5,-433.5 248.5,-433.5 248.5,-412.5 119.5,-412.5"/>
<text text-anchor="start" x="146" y="-419.3" font-family="Times,serif" font-size="14.00">created_at</text>
<polygon fill="none" stroke="black" points="72.5,-391.5 72.5,-412.5 119.5,-412.5 119.5,-391.5 72.5,-391.5"/>
<text text-anchor="start" x="93.5" y="-398.3" font-family="Times,serif" font-size="14.00"> </text>
<polygon fill="none" stroke="black" points="119.5,-391.5 119.5,-412.5 248.5,-412.5 248.5,-391.5 119.5,-391.5"/>
<text text-anchor="start" x="144" y="-398.3" font-family="Times,serif" font-size="14.00">updated_at</text>
</g>
<!-- provided_repositories&#45;&gt;integrations -->
<g id="edge5" class="edge">
<title>provided_repositories:e&#45;&gt;integrations:w</title>
<path fill="none" stroke="black" d="M249.5,-528.5C308.41,-528.5 325.64,-528.5 379.82,-528.5"/>
<polygon fill="black" stroke="black" points="380,-532 390,-528.5 380,-525 380,-532"/>
</g>
<!-- refresh_tokens -->
<g id="node9" class="node">
<title>refresh_tokens</title>
<polygon fill="none" stroke="black" points="98.5,-1619.5 98.5,-1640.5 222.5,-1640.5 222.5,-1619.5 98.5,-1619.5"/>
<text text-anchor="start" x="101.5" y="-1627.3" font-family="Times,serif" font-weight="bold" font-size="14.00">refresh_tokens</text>
<polygon fill="none" stroke="black" points="98.5,-1598.5 98.5,-1619.5 131.5,-1619.5 131.5,-1598.5 98.5,-1598.5"/>
<text text-anchor="start" x="106" y="-1605.3" font-family="Times,serif" font-size="14.00">🔑</text>
<polygon fill="none" stroke="black" points="131.5,-1598.5 131.5,-1619.5 222.5,-1619.5 222.5,-1598.5 131.5,-1598.5"/>
<text text-anchor="start" x="170" y="-1605.3" font-family="Times,serif" font-size="14.00">id</text>
<polygon fill="none" stroke="black" points="98.5,-1577.5 98.5,-1598.5 131.5,-1598.5 131.5,-1577.5 98.5,-1577.5"/>
<text text-anchor="start" x="112.5" y="-1584.3" font-family="Times,serif" font-size="14.00"> </text>
<polygon fill="none" stroke="black" points="131.5,-1577.5 131.5,-1598.5 222.5,-1598.5 222.5,-1577.5 131.5,-1577.5"/>
<text text-anchor="start" x="151" y="-1584.3" font-family="Times,serif" font-size="14.00">user_id</text>
<polygon fill="none" stroke="black" points="98.5,-1556.5 98.5,-1577.5 131.5,-1577.5 131.5,-1556.5 98.5,-1556.5"/>
<text text-anchor="start" x="112.5" y="-1563.3" font-family="Times,serif" font-size="14.00"> </text>
<polygon fill="none" stroke="black" points="131.5,-1556.5 131.5,-1577.5 222.5,-1577.5 222.5,-1556.5 131.5,-1556.5"/>
<text text-anchor="start" x="157" y="-1563.3" font-family="Times,serif" font-size="14.00">token</text>
<polygon fill="none" stroke="black" points="98.5,-1535.5 98.5,-1556.5 131.5,-1556.5 131.5,-1535.5 98.5,-1535.5"/>
<text text-anchor="start" x="112.5" y="-1542.3" font-family="Times,serif" font-size="14.00"> </text>
<polygon fill="none" stroke="black" points="131.5,-1535.5 131.5,-1556.5 222.5,-1556.5 222.5,-1535.5 131.5,-1535.5"/>
<text text-anchor="start" x="140" y="-1542.3" font-family="Times,serif" font-size="14.00">expires_at</text>
<polygon fill="none" stroke="black" points="98.5,-1514.5 98.5,-1535.5 131.5,-1535.5 131.5,-1514.5 98.5,-1514.5"/>
<text text-anchor="start" x="112.5" y="-1521.3" font-family="Times,serif" font-size="14.00"> </text>
<polygon fill="none" stroke="black" points="131.5,-1514.5 131.5,-1535.5 222.5,-1535.5 222.5,-1514.5 131.5,-1514.5"/>
<text text-anchor="start" x="139" y="-1521.3" font-family="Times,serif" font-size="14.00">created_at</text>
</g>
<!-- refresh_tokens&#45;&gt;users -->
<g id="edge1" class="edge">
<title>refresh_tokens:e&#45;&gt;users:w</title>
<path fill="none" stroke="black" d="M223.5,-1588.5C290.89,-1588.5 292.97,-1520.02 353.73,-1513.07"/>
<polygon fill="black" stroke="black" points="354.21,-1516.55 364,-1512.5 353.82,-1509.56 354.21,-1516.55"/>
</g>
<!-- registration_token -->
<g id="node10" class="node">
<title>registration_token</title>
<polygon fill="none" stroke="black" points="84.5,-1881.5 84.5,-1902.5 237.5,-1902.5 237.5,-1881.5 84.5,-1881.5"/>
<text text-anchor="start" x="87.5" y="-1889.3" font-family="Times,serif" font-weight="bold" font-size="14.00">registration_token</text>
<polygon fill="none" stroke="black" points="84.5,-1860.5 84.5,-1881.5 129.5,-1881.5 129.5,-1860.5 84.5,-1860.5"/>
<text text-anchor="start" x="98" y="-1867.3" font-family="Times,serif" font-size="14.00">🔑</text>
<polygon fill="none" stroke="black" points="129.5,-1860.5 129.5,-1881.5 237.5,-1881.5 237.5,-1860.5 129.5,-1860.5"/>
<text text-anchor="start" x="176.5" y="-1867.3" font-family="Times,serif" font-size="14.00">id</text>
<polygon fill="none" stroke="black" points="84.5,-1839.5 84.5,-1860.5 129.5,-1860.5 129.5,-1839.5 84.5,-1839.5"/>
<text text-anchor="start" x="104.5" y="-1846.3" font-family="Times,serif" font-size="14.00"> </text>
<polygon fill="none" stroke="black" points="129.5,-1839.5 129.5,-1860.5 237.5,-1860.5 237.5,-1839.5 129.5,-1839.5"/>
<text text-anchor="start" x="163.5" y="-1846.3" font-family="Times,serif" font-size="14.00">token</text>
<polygon fill="none" stroke="black" points="84.5,-1818.5 84.5,-1839.5 129.5,-1839.5 129.5,-1818.5 84.5,-1818.5"/>
<text text-anchor="start" x="104.5" y="-1825.3" font-family="Times,serif" font-size="14.00"> </text>
<polygon fill="none" stroke="black" points="129.5,-1818.5 129.5,-1839.5 237.5,-1839.5 237.5,-1818.5 129.5,-1818.5"/>
<text text-anchor="start" x="145.5" y="-1825.3" font-family="Times,serif" font-size="14.00">created_at</text>
<polygon fill="none" stroke="black" points="84.5,-1797.5 84.5,-1818.5 129.5,-1818.5 129.5,-1797.5 84.5,-1797.5"/>
<text text-anchor="start" x="104.5" y="-1804.3" font-family="Times,serif" font-size="14.00"> </text>
<polygon fill="none" stroke="black" points="129.5,-1797.5 129.5,-1818.5 237.5,-1818.5 237.5,-1797.5 129.5,-1797.5"/>
<text text-anchor="start" x="143.5" y="-1804.3" font-family="Times,serif" font-size="14.00">updated_at</text>
</g>
<!-- repositories -->
<g id="node11" class="node">
<title>repositories</title>
<polygon fill="none" stroke="black" points="110.5,-1992.5 110.5,-2013.5 211.5,-2013.5 211.5,-1992.5 110.5,-1992.5"/>
<text text-anchor="start" x="113.5" y="-2000.3" font-family="Times,serif" font-weight="bold" font-size="14.00">repositories</text>
<polygon fill="none" stroke="black" points="110.5,-1971.5 110.5,-1992.5 146.5,-1992.5 146.5,-1971.5 110.5,-1971.5"/>
<text text-anchor="start" x="119.5" y="-1978.3" font-family="Times,serif" font-size="14.00">🔑</text>
<polygon fill="none" stroke="black" points="146.5,-1971.5 146.5,-1992.5 211.5,-1992.5 211.5,-1971.5 146.5,-1971.5"/>
<text text-anchor="start" x="172" y="-1978.3" font-family="Times,serif" font-size="14.00">id</text>
<polygon fill="none" stroke="black" points="110.5,-1950.5 110.5,-1971.5 146.5,-1971.5 146.5,-1950.5 110.5,-1950.5"/>
<text text-anchor="start" x="126" y="-1957.3" font-family="Times,serif" font-size="14.00"> </text>
<polygon fill="none" stroke="black" points="146.5,-1950.5 146.5,-1971.5 211.5,-1971.5 211.5,-1950.5 146.5,-1950.5"/>
<text text-anchor="start" x="159" y="-1957.3" font-family="Times,serif" font-size="14.00">name</text>
<polygon fill="none" stroke="black" points="110.5,-1929.5 110.5,-1950.5 146.5,-1950.5 146.5,-1929.5 110.5,-1929.5"/>
<text text-anchor="start" x="126" y="-1936.3" font-family="Times,serif" font-size="14.00"> </text>
<polygon fill="none" stroke="black" points="146.5,-1929.5 146.5,-1950.5 211.5,-1950.5 211.5,-1929.5 146.5,-1929.5"/>
<text text-anchor="start" x="155.5" y="-1936.3" font-family="Times,serif" font-size="14.00">git_url</text>
</g>
<!-- server_setting -->
<g id="node12" class="node">
<title>server_setting</title>
<polygon fill="none" stroke="black" points="8.5,-2144.5 8.5,-2165.5 313.5,-2165.5 313.5,-2144.5 8.5,-2144.5"/>
<text text-anchor="start" x="104.5" y="-2152.3" font-family="Times,serif" font-weight="bold" font-size="14.00">server_setting</text>
<polygon fill="none" stroke="black" points="8.5,-2123.5 8.5,-2144.5 32.5,-2144.5 32.5,-2123.5 8.5,-2123.5"/>
<text text-anchor="start" x="11.5" y="-2130.3" font-family="Times,serif" font-size="14.00">🔑</text>
<polygon fill="none" stroke="black" points="32.5,-2123.5 32.5,-2144.5 313.5,-2144.5 313.5,-2123.5 32.5,-2123.5"/>
<text text-anchor="start" x="166" y="-2130.3" font-family="Times,serif" font-size="14.00">id</text>
<polygon fill="none" stroke="black" points="8.5,-2102.5 8.5,-2123.5 32.5,-2123.5 32.5,-2102.5 8.5,-2102.5"/>
<text text-anchor="start" x="18" y="-2109.3" font-family="Times,serif" font-size="14.00"> </text>
<polygon fill="none" stroke="black" points="32.5,-2102.5 32.5,-2123.5 313.5,-2123.5 313.5,-2102.5 32.5,-2102.5"/>
<text text-anchor="start" x="37" y="-2109.3" font-family="Times,serif" font-size="14.00">security_allowed_register_domain_list</text>
<polygon fill="none" stroke="black" points="8.5,-2081.5 8.5,-2102.5 32.5,-2102.5 32.5,-2081.5 8.5,-2081.5"/>
<text text-anchor="start" x="18" y="-2088.3" font-family="Times,serif" font-size="14.00"> </text>
<polygon fill="none" stroke="black" points="32.5,-2081.5 32.5,-2102.5 313.5,-2102.5 313.5,-2081.5 32.5,-2081.5"/>
<text text-anchor="start" x="35.5" y="-2088.3" font-family="Times,serif" font-size="14.00">security_disable_client_side_telemetry</text>
<polygon fill="none" stroke="black" points="8.5,-2060.5 8.5,-2081.5 32.5,-2081.5 32.5,-2060.5 8.5,-2060.5"/>
<text text-anchor="start" x="18" y="-2067.3" font-family="Times,serif" font-size="14.00"> </text>
<polygon fill="none" stroke="black" points="32.5,-2060.5 32.5,-2081.5 313.5,-2081.5 313.5,-2060.5 32.5,-2060.5"/>
<text text-anchor="start" x="97" y="-2067.3" font-family="Times,serif" font-size="14.00">network_external_url</text>
<polygon fill="none" stroke="black" points="8.5,-2039.5 8.5,-2060.5 32.5,-2060.5 32.5,-2039.5 8.5,-2039.5"/>
<text text-anchor="start" x="18" y="-2046.3" font-family="Times,serif" font-size="14.00"> </text>
<polygon fill="none" stroke="black" points="32.5,-2039.5 32.5,-2060.5 313.5,-2060.5 313.5,-2039.5 32.5,-2039.5"/>
<text text-anchor="start" x="81.5" y="-2046.3" font-family="Times,serif" font-size="14.00">billing_enterprise_license</text>
</g>
<!-- user_completions -->
<g id="node13" class="node">
<title>user_completions</title>
<polygon fill="none" stroke="black" points="88.5,-1467.5 88.5,-1488.5 233.5,-1488.5 233.5,-1467.5 88.5,-1467.5"/>
<text text-anchor="start" x="91.5" y="-1475.3" font-family="Times,serif" font-weight="bold" font-size="14.00">user_completions</text>
<polygon fill="none" stroke="black" points="88.5,-1446.5 88.5,-1467.5 119.5,-1467.5 119.5,-1446.5 88.5,-1446.5"/>
<text text-anchor="start" x="95" y="-1453.3" font-family="Times,serif" font-size="14.00">🔑</text>
<polygon fill="none" stroke="black" points="119.5,-1446.5 119.5,-1467.5 233.5,-1467.5 233.5,-1446.5 119.5,-1446.5"/>
<text text-anchor="start" x="169.5" y="-1453.3" font-family="Times,serif" font-size="14.00">id</text>
<polygon fill="none" stroke="black" points="88.5,-1425.5 88.5,-1446.5 119.5,-1446.5 119.5,-1425.5 88.5,-1425.5"/>
<text text-anchor="start" x="101.5" y="-1432.3" font-family="Times,serif" font-size="14.00"> </text>
<polygon fill="none" stroke="black" points="119.5,-1425.5 119.5,-1446.5 233.5,-1446.5 233.5,-1425.5 119.5,-1425.5"/>
<text text-anchor="start" x="150.5" y="-1432.3" font-family="Times,serif" font-size="14.00">user_id</text>
<polygon fill="none" stroke="black" points="88.5,-1404.5 88.5,-1425.5 119.5,-1425.5 119.5,-1404.5 88.5,-1404.5"/>
<text text-anchor="start" x="101.5" y="-1411.3" font-family="Times,serif" font-size="14.00"> </text>
<polygon fill="none" stroke="black" points="119.5,-1404.5 119.5,-1425.5 233.5,-1425.5 233.5,-1404.5 119.5,-1404.5"/>
<text text-anchor="start" x="126.5" y="-1411.3" font-family="Times,serif" font-size="14.00">completion_id</text>
<polygon fill="none" stroke="black" points="88.5,-1383.5 88.5,-1404.5 119.5,-1404.5 119.5,-1383.5 88.5,-1383.5"/>
<text text-anchor="start" x="101.5" y="-1390.3" font-family="Times,serif" font-size="14.00"> </text>
<polygon fill="none" stroke="black" points="119.5,-1383.5 119.5,-1404.5 233.5,-1404.5 233.5,-1383.5 119.5,-1383.5"/>
<text text-anchor="start" x="143.5" y="-1390.3" font-family="Times,serif" font-size="14.00">language</text>
<polygon fill="none" stroke="black" points="88.5,-1362.5 88.5,-1383.5 119.5,-1383.5 119.5,-1362.5 88.5,-1362.5"/>
<text text-anchor="start" x="101.5" y="-1369.3" font-family="Times,serif" font-size="14.00"> </text>
<polygon fill="none" stroke="black" points="119.5,-1362.5 119.5,-1383.5 233.5,-1383.5 233.5,-1362.5 119.5,-1362.5"/>
<text text-anchor="start" x="156" y="-1369.3" font-family="Times,serif" font-size="14.00">views</text>
<polygon fill="none" stroke="black" points="88.5,-1341.5 88.5,-1362.5 119.5,-1362.5 119.5,-1341.5 88.5,-1341.5"/>
<text text-anchor="start" x="101.5" y="-1348.3" font-family="Times,serif" font-size="14.00"> </text>
<polygon fill="none" stroke="black" points="119.5,-1341.5 119.5,-1362.5 233.5,-1362.5 233.5,-1341.5 119.5,-1341.5"/>
<text text-anchor="start" x="151.5" y="-1348.3" font-family="Times,serif" font-size="14.00">selects</text>
<polygon fill="none" stroke="black" points="88.5,-1320.5 88.5,-1341.5 119.5,-1341.5 119.5,-1320.5 88.5,-1320.5"/>
<text text-anchor="start" x="101.5" y="-1327.3" font-family="Times,serif" font-size="14.00"> </text>
<polygon fill="none" stroke="black" points="119.5,-1320.5 119.5,-1341.5 233.5,-1341.5 233.5,-1320.5 119.5,-1320.5"/>
<text text-anchor="start" x="141.5" y="-1327.3" font-family="Times,serif" font-size="14.00">dismisses</text>
<polygon fill="none" stroke="black" points="88.5,-1299.5 88.5,-1320.5 119.5,-1320.5 119.5,-1299.5 88.5,-1299.5"/>
<text text-anchor="start" x="101.5" y="-1306.3" font-family="Times,serif" font-size="14.00"> </text>
<polygon fill="none" stroke="black" points="119.5,-1299.5 119.5,-1320.5 233.5,-1320.5 233.5,-1299.5 119.5,-1299.5"/>
<text text-anchor="start" x="138.5" y="-1306.3" font-family="Times,serif" font-size="14.00">created_at</text>
<polygon fill="none" stroke="black" points="88.5,-1278.5 88.5,-1299.5 119.5,-1299.5 119.5,-1278.5 88.5,-1278.5"/>
<text text-anchor="start" x="101.5" y="-1285.3" font-family="Times,serif" font-size="14.00"> </text>
<polygon fill="none" stroke="black" points="119.5,-1278.5 119.5,-1299.5 233.5,-1299.5 233.5,-1278.5 119.5,-1278.5"/>
<text text-anchor="start" x="136.5" y="-1285.3" font-family="Times,serif" font-size="14.00">updated_at</text>
</g>
<!-- user_completions&#45;&gt;users -->
<g id="edge3" class="edge">
<title>user_completions:e&#45;&gt;users:w</title>
<path fill="none" stroke="black" d="M234.5,-1436.5C297.72,-1436.5 297.49,-1504.7 354.01,-1511.89"/>
<polygon fill="black" stroke="black" points="353.8,-1515.38 364,-1512.5 354.23,-1508.4 353.8,-1515.38"/>
</g>
<!-- user_events -->
<g id="node14" class="node">
<title>user_events</title>
<polygon fill="none" stroke="black" points="107.5,-1231.5 107.5,-1252.5 213.5,-1252.5 213.5,-1231.5 107.5,-1231.5"/>
<text text-anchor="start" x="113.5" y="-1239.3" font-family="Times,serif" font-weight="bold" font-size="14.00">user_events</text>
<polygon fill="none" stroke="black" points="107.5,-1210.5 107.5,-1231.5 131.5,-1231.5 131.5,-1210.5 107.5,-1210.5"/>
<text text-anchor="start" x="110.5" y="-1217.3" font-family="Times,serif" font-size="14.00">🔑</text>
<polygon fill="none" stroke="black" points="131.5,-1210.5 131.5,-1231.5 213.5,-1231.5 213.5,-1210.5 131.5,-1210.5"/>
<text text-anchor="start" x="165.5" y="-1217.3" font-family="Times,serif" font-size="14.00">id</text>
<polygon fill="none" stroke="black" points="107.5,-1189.5 107.5,-1210.5 131.5,-1210.5 131.5,-1189.5 107.5,-1189.5"/>
<text text-anchor="start" x="117" y="-1196.3" font-family="Times,serif" font-size="14.00"> </text>
<polygon fill="none" stroke="black" points="131.5,-1189.5 131.5,-1210.5 213.5,-1210.5 213.5,-1189.5 131.5,-1189.5"/>
<text text-anchor="start" x="146.5" y="-1196.3" font-family="Times,serif" font-size="14.00">user_id</text>
<polygon fill="none" stroke="black" points="107.5,-1168.5 107.5,-1189.5 131.5,-1189.5 131.5,-1168.5 107.5,-1168.5"/>
<text text-anchor="start" x="117" y="-1175.3" font-family="Times,serif" font-size="14.00"> </text>
<polygon fill="none" stroke="black" points="131.5,-1168.5 131.5,-1189.5 213.5,-1189.5 213.5,-1168.5 131.5,-1168.5"/>
<text text-anchor="start" x="157" y="-1175.3" font-family="Times,serif" font-size="14.00">kind</text>
<polygon fill="none" stroke="black" points="107.5,-1147.5 107.5,-1168.5 131.5,-1168.5 131.5,-1147.5 107.5,-1147.5"/>
<text text-anchor="start" x="117" y="-1154.3" font-family="Times,serif" font-size="14.00"> </text>
<polygon fill="none" stroke="black" points="131.5,-1147.5 131.5,-1168.5 213.5,-1168.5 213.5,-1147.5 131.5,-1147.5"/>
<text text-anchor="start" x="134.5" y="-1154.3" font-family="Times,serif" font-size="14.00">created_at</text>
<polygon fill="none" stroke="black" points="107.5,-1126.5 107.5,-1147.5 131.5,-1147.5 131.5,-1126.5 107.5,-1126.5"/>
<text text-anchor="start" x="117" y="-1133.3" font-family="Times,serif" font-size="14.00"> </text>
<polygon fill="none" stroke="black" points="131.5,-1126.5 131.5,-1147.5 213.5,-1147.5 213.5,-1126.5 131.5,-1126.5"/>
<text text-anchor="start" x="144.5" y="-1133.3" font-family="Times,serif" font-size="14.00">payload</text>
</g>
<!-- user_events&#45;&gt;users -->
<g id="edge2" class="edge">
<title>user_events:e&#45;&gt;users:w</title>
<path fill="none" stroke="black" d="M214.5,-1200.5C269.95,-1200.5 289.8,-1219.66 321,-1265.5 350.27,-1308.5 313.81,-1486.5 354.17,-1509.95"/>
<polygon fill="black" stroke="black" points="353.44,-1513.37 364,-1512.5 355.2,-1506.6 353.44,-1513.37"/>
</g>
<!-- web_crawler_urls -->
<g id="node16" class="node">
<title>web_crawler_urls</title>
<polygon fill="none" stroke="black" points="90.5,-2254.5 90.5,-2275.5 231.5,-2275.5 231.5,-2254.5 90.5,-2254.5"/>
<text text-anchor="start" x="93.5" y="-2262.3" font-family="Times,serif" font-weight="bold" font-size="14.00">web_crawler_urls</text>
<polygon fill="none" stroke="black" points="90.5,-2233.5 90.5,-2254.5 131.5,-2254.5 131.5,-2233.5 90.5,-2233.5"/>
<text text-anchor="start" x="102" y="-2240.3" font-family="Times,serif" font-size="14.00">🔑</text>
<polygon fill="none" stroke="black" points="131.5,-2233.5 131.5,-2254.5 231.5,-2254.5 231.5,-2233.5 131.5,-2233.5"/>
<text text-anchor="start" x="174.5" y="-2240.3" font-family="Times,serif" font-size="14.00">id</text>
<polygon fill="none" stroke="black" points="90.5,-2212.5 90.5,-2233.5 131.5,-2233.5 131.5,-2212.5 90.5,-2212.5"/>
<text text-anchor="start" x="108.5" y="-2219.3" font-family="Times,serif" font-size="14.00"> </text>
<polygon fill="none" stroke="black" points="131.5,-2212.5 131.5,-2233.5 231.5,-2233.5 231.5,-2212.5 131.5,-2212.5"/>
<text text-anchor="start" x="171" y="-2219.3" font-family="Times,serif" font-size="14.00">url</text>
<polygon fill="none" stroke="black" points="90.5,-2191.5 90.5,-2212.5 131.5,-2212.5 131.5,-2191.5 90.5,-2191.5"/>
<text text-anchor="start" x="108.5" y="-2198.3" font-family="Times,serif" font-size="14.00"> </text>
<polygon fill="none" stroke="black" points="131.5,-2191.5 131.5,-2212.5 231.5,-2212.5 231.5,-2191.5 131.5,-2191.5"/>
<text text-anchor="start" x="143.5" y="-2198.3" font-family="Times,serif" font-size="14.00">created_at</text>
</g>
</g>
</svg>
